<svg xmlns="http://www.w3.org/2000/svg" viewBox="0 0 453.56 63.73"><defs><style>.cls-1{fill:#fff;}</style></defs><g id="Livello_2" data-name="Livello 2"><g id="Livello_1-2" data-name="Livello 1"><path class="cls-1" d="M31.87,63.73A31.87,31.87,0,1,1,63,24.8l-9.37,2.12A22.27,22.27,0,1,0,31.87,54.13a22.14,22.14,0,0,0,12.68-4L50,58.05A31.66,31.66,0,0,1,31.87,63.73Z"/><path class="cls-1" d="M55.19,61.24A19.38,19.38,0,1,1,74.56,41.86,19.4,19.4,0,0,1,55.19,61.24Zm0-29.15A9.78,9.78,0,1,0,65,41.86,9.79,9.79,0,0,0,55.19,32.09Z"/><path class="cls-1" d="M112.91.09V22.26q3.84-4.74,12.25-4.74,9.56,0,15.5,6.44t6,16.62q0,10.45-5.23,16.36t-15,6.53a21.59,21.59,0,0,1-8-1.17,15.14,15.14,0,0,1-6.61-4.38l-.72,4.74H96.46V.09Zm8.49,30.75a7.82,7.82,0,0,0-6.52,2.95A11.34,11.34,0,0,0,112.55,41,9.42,9.42,0,0,0,115,47.47a8.17,8.17,0,0,0,6.39,2.77,8.46,8.46,0,0,0,6.35-2.6,9.71,9.71,0,0,0,2.5-7.06,9.86,9.86,0,0,0-2.5-7.1A8.38,8.38,0,0,0,121.4,30.84Z"/><path class="cls-1" d="M176.73,17.52q10.64,0,17.92,5.9t7.29,17.25q0,11.27-7.46,17.16a27.74,27.74,0,0,1-17.75,5.9,31.18,31.18,0,0,1-9.34-1.38,26.17,26.17,0,0,1-8-4.07A18.93,18.93,0,0,1,153.67,51a24.06,24.06,0,0,1-2.15-10.37,22.75,22.75,0,0,1,3.71-13.18,20.67,20.67,0,0,1,9.26-7.69A31.84,31.84,0,0,1,176.73,17.52Zm0,32.72a8.56,8.56,0,0,0,6.62-2.73,9.77,9.77,0,0,0,2.5-6.84,10,10,0,0,0-2.46-6.84,9.3,9.3,0,0,0-13.32,0,10,10,0,0,0-2.46,6.84,9.89,9.89,0,0,0,2.46,6.8A8.48,8.48,0,0,0,176.73,50.24Z"/><path class="cls-1" d="M232,17.52q10.64,0,17.93,5.9t7.28,17.25q0,11.27-7.46,17.16A27.74,27.74,0,0,1,232,63.73a31.18,31.18,0,0,1-9.34-1.38,26.17,26.17,0,0,1-8-4.07A18.93,18.93,0,0,1,208.91,51a24.06,24.06,0,0,1-2.15-10.37,22.68,22.68,0,0,1,3.72-13.18,20.59,20.59,0,0,1,9.25-7.69A31.84,31.84,0,0,1,232,17.52Zm0,32.72a8.56,8.56,0,0,0,6.62-2.73,9.77,9.77,0,0,0,2.5-6.84,10,10,0,0,0-2.46-6.84,9.3,9.3,0,0,0-13.32,0,10,10,0,0,0-2.46,6.84,9.89,9.89,0,0,0,2.46,6.8A8.48,8.48,0,0,0,232,50.24Z"/><path class="cls-1" d="M264.42,0h16.27V62.66H264.42Z"/><path class="cls-1" d="M306.79.09V22.26q3.84-4.74,12.25-4.74,9.56,0,15.51,6.44t5.94,16.62q0,10.45-5.23,16.36t-15,6.53a21.59,21.59,0,0,1-8-1.17,15.14,15.14,0,0,1-6.61-4.38L305,62.66H290.34V.09Zm8.49,30.75a7.82,7.82,0,0,0-6.52,2.95A11.34,11.34,0,0,0,306.43,41a9.42,9.42,0,0,0,2.46,6.44,8.17,8.17,0,0,0,6.39,2.77,8.46,8.46,0,0,0,6.35-2.6,9.71,9.71,0,0,0,2.5-7.06,9.86,9.86,0,0,0-2.5-7.1A8.38,8.38,0,0,0,315.28,30.84Z"/><path class="cls-1" d="M394.3,62.66H377.85V38.26q0-3.75-1.78-5.54a6,6,0,0,0-4.39-1.79,7.34,7.34,0,0,0-5.4,2.19,8.53,8.53,0,0,0-2.19,6.3V62.66H347.82V18.5h14.57l.71,4.83q5.19-6.07,13.95-5.9,7.77.09,12.51,4.92t4.74,15.82Z"/><path class="cls-1" d="M419.86.09V22.26q3.86-4.74,12.25-4.74,9.57,0,15.51,6.44t5.94,16.62q0,10.45-5.23,16.36t-15,6.53a21.54,21.54,0,0,1-7.95-1.17,15.12,15.12,0,0,1-6.62-4.38l-.71,4.74H403.42V.09Zm8.5,30.75a7.83,7.83,0,0,0-6.53,2.95A11.34,11.34,0,0,0,419.51,41,9.42,9.42,0,0,0,422,47.47a8.14,8.14,0,0,0,6.39,2.77,8.44,8.44,0,0,0,6.34-2.6,9.72,9.72,0,0,0,2.51-7.06,9.87,9.87,0,0,0-2.51-7.1A8.36,8.36,0,0,0,428.36,30.84Z"/></g></g></svg>