<svg xmlns="http://www.w3.org/2000/svg" viewBox="0 0 74.56 63.73"><defs><style>.cls-1{fill:#f8e924;}</style></defs><g id="Livello_2" data-name="Livello 2"><g id="Livello_1-2" data-name="Livello 1"><path class="cls-1" d="M31.87,63.73A31.87,31.87,0,1,1,63,24.8l-9.37,2.12A22.27,22.27,0,1,0,31.87,54.13a22.14,22.14,0,0,0,12.68-4L50,58.05A31.66,31.66,0,0,1,31.87,63.73Z"/><path class="cls-1" d="M55.19,61.24A19.38,19.38,0,1,1,74.56,41.86,19.4,19.4,0,0,1,55.19,61.24Zm0-29.15A9.78,9.78,0,1,0,65,41.86,9.79,9.79,0,0,0,55.19,32.09Z"/></g></g></svg>