<svg xmlns="http://www.w3.org/2000/svg" viewBox="0 0 213.49 201.45"><defs><style>.cls-1{fill:#fff;}.cls-1,.cls-2,.cls-3,.cls-5{stroke:#1e1e1c;stroke-width:4px;}.cls-1,.cls-3{stroke-linecap:round;}.cls-1,.cls-2,.cls-3{stroke-linejoin:round;}.cls-2,.cls-5{fill:#f7e828;}.cls-3,.cls-4{fill:#1e1e1c;}.cls-5{stroke-miterlimit:10;}</style></defs><g id="Livello_2" data-name="Livello 2"><g id="Livello_1-2" data-name="Livello 1"><rect class="cls-1" x="2" y="2" width="209.49" height="197.45"/><polygon class="cls-2" points="47.56 59.75 27.34 81.04 27.34 119.15 68.85 119.15 68.85 81.04 47.56 59.75"/><polygon class="cls-1" points="27.34 81.04 2 81.04 2 144.27 27.34 119.15 27.34 81.04"/><polygon class="cls-1" points="47.56 59.75 21.8 59.75 2 81.04 27.34 81.04 47.56 59.75"/><polygon class="cls-3" points="209.06 88.18 209.06 198.99 106.51 198.99 107.86 147.99 203.23 77.15 209.06 88.18"/><polygon class="cls-4" points="27.34 119.15 52.46 144.27 128.25 144.27 100.29 119.15 27.34 119.15"/><polygon class="cls-1" points="27.34 119.15 52.46 144.27 52.46 198.99 2 198.14 2 144.27 27.34 119.15"/><path class="cls-5" d="M52.46,144.27h75.79v33.85S104.83,177.06,102.7,199H52.46Z"/><circle class="cls-3" cx="48.12" cy="85.04" r="5.7"/><rect class="cls-3" x="73.51" y="161.61" width="8.57" height="12.97"/><rect class="cls-3" x="19.36" y="158.66" width="8.57" height="12.97"/><rect class="cls-3" x="98.42" y="161.61" width="8.57" height="12.97"/><polyline class="cls-1" points="160.23 107.37 160.23 65.25 134.64 40.37 109.36 64.71 109.77 127.73 119.63 136.53 160.23 107.37"/><polygon class="cls-3" points="184.29 40.37 134.64 40.37 160.23 65.25 210 65.25 184.29 40.37"/><path class="cls-5" d="M210,65.25H160.23v42.12s10.66-15.86,23.24-16.13L210,90.42Z"/><path class="cls-5" d="M195.33,115.63c0,22.06-6.93,30.29-15.48,30.29-15.49,0-15.49-10-15.49-30.29,0-31.08,6.94-30.14,15.49-30.29C197.69,85,195.33,95.78,195.33,115.63Z"/><rect class="cls-1" x="175.04" y="119.12" width="7.18" height="45.24" rx="3.05"/><path class="cls-5" d="M93.71,35c0,6.23-11.55,11.27-25.81,11.27-7.44,0-14.15-1.37-18.86-3.58a53,53,0,0,1-12.81,1.49c-14.25,0-25.8-5-25.8-11.27,0-5.13,7.83-9.46,18.56-10.82,2.52-5.08,12.85-8.88,25.23-8.88,14.25,0,25.8,5.05,25.8,11.27A5.25,5.25,0,0,1,80,25C88.15,26.9,93.71,30.65,93.71,35Z"/><path class="cls-5" d="M133.24,26.27c0,5-9.31,9.09-20.8,9.09a37,37,0,0,1-15.19-2.89,43.09,43.09,0,0,1-10.33,1.2c-11.49,0-20.8-4.07-20.8-9.09,0-4.13,6.31-7.62,15-8.72,2-4.09,10.36-7.16,20.34-7.16,11.48,0,20.79,4.07,20.79,9.09,0,.15,0,.3,0,.45C128.77,19.77,133.24,22.79,133.24,26.27Z"/><circle class="cls-3" cx="134.64" cy="65.25" r="5.7"/><circle class="cls-3" cx="134.64" cy="88.45" r="5.7"/><circle class="cls-3" cx="134.64" cy="111.64" r="5.7"/><circle class="cls-3" cx="48.12" cy="107.53" r="5.7"/><ellipse class="cls-3" cx="13.82" cy="98.83" rx="2.85" ry="5.7"/><ellipse class="cls-3" cx="13.82" cy="119.15" rx="2.85" ry="5.7"/></g></g></svg>