<svg xmlns="http://www.w3.org/2000/svg" viewBox="0 0 213.49 201.45"><defs><style>.cls-1,.cls-3{fill:#fff;}.cls-1,.cls-2,.cls-3,.cls-4,.cls-5,.cls-7{stroke:#1e1e1c;stroke-width:4px;}.cls-1,.cls-4,.cls-5{stroke-linecap:round;}.cls-1,.cls-3,.cls-4,.cls-5,.cls-7{stroke-linejoin:round;}.cls-2,.cls-4,.cls-7{fill:#f7e828;}.cls-2{stroke-miterlimit:10;}.cls-5,.cls-6{fill:#1e1e1c;}</style></defs><g id="Livello_2" data-name="Livello 2"><g id="Livello_1-2" data-name="Livello 1"><rect class="cls-1" x="2" y="2" width="209.49" height="197.45"/><path class="cls-2" d="M3.91,17.51S74.94-.43,103.56,23c26.29,21.49,25.83,58,25.83,58L3.67,91.41Z"/><polygon class="cls-3" points="165.93 59.75 186.16 81.04 186.16 119.15 144.64 119.15 144.64 81.04 165.93 59.75"/><rect class="cls-1" x="110.79" y="81.04" width="33.85" height="38.11"/><polygon class="cls-2" points="186.16 81.04 211.5 81.04 211.5 144.27 186.16 119.15 186.16 81.04"/><polygon class="cls-4" points="165.93 59.75 191.69 59.75 211.5 81.04 186.16 81.04 165.93 59.75"/><polygon class="cls-5" points="4.43 88.18 4.43 198.99 106.99 198.99 105.64 147.99 10.27 77.15 4.43 88.18"/><polygon class="cls-6" points="186.16 119.15 161.04 144.27 85.24 144.27 113.21 119.15 186.16 119.15"/><polygon class="cls-1" points="186.16 119.15 161.04 144.27 161.04 198.99 211.5 198.14 211.5 144.27 186.16 119.15"/><path class="cls-1" d="M161,144.27H85.24v33.85s23.42-1.06,25.55,20.87H161Z"/><rect class="cls-5" x="131.42" y="161.61" width="8.57" height="12.97"/><rect class="cls-5" x="106.51" y="161.61" width="8.57" height="12.97"/><path class="cls-2" d="M78.85,40.37l25.29,24.34-.41,53.6s-4-4.37-28.86-3.28a34.83,34.83,0,0,1-21.6-7.66V65.25Z"/><rect class="cls-5" x="63.43" y="76.46" width="7.95" height="12.04"/><rect class="cls-5" x="85.11" y="76.46" width="7.95" height="12.04"/><rect class="cls-5" x="85.11" y="97.81" width="7.95" height="12.04"/><rect class="cls-5" x="161.4" y="106.63" width="7.95" height="12.04"/><rect class="cls-5" x="161.4" y="84.72" width="7.95" height="12.04"/><rect class="cls-5" x="63.43" y="97.81" width="7.95" height="12.04"/><polygon class="cls-5" points="29.2 40.37 78.85 40.37 53.27 65.25 3.49 65.25 29.2 40.37"/><path class="cls-1" d="M3.49,65.25H53.27v42.12S42.6,91.51,30,91.24L3.49,90.42Z"/><polygon class="cls-5" points="43.99 114.38 53.27 107.37 63.43 114.38 81.84 114.86 103.73 118.31 104.14 79.68 110.79 81.04 110.79 119.15 113.93 126.86 96.25 140.38 76.23 140.38 43.99 114.38"/><path class="cls-7" d="M74,118.31S57.45,139,54.68,161.56c0,0,11.18-1.47,38.65,21.24C93.33,182.8,91.4,145.35,74,118.31Z"/><circle class="cls-5" cx="188.2" cy="155.91" r="5.7"/></g></g></svg>