<svg xmlns="http://www.w3.org/2000/svg" viewBox="0 0 213.49 201.45"><defs><style>.cls-1{fill:#fff;}.cls-1,.cls-2,.cls-3,.cls-5{stroke:#1e1e1c;stroke-width:4px;}.cls-1,.cls-2{stroke-linecap:round;}.cls-1,.cls-2,.cls-5{stroke-linejoin:round;}.cls-2,.cls-4{fill:#1e1e1c;}.cls-3,.cls-5{fill:#f7e828;}.cls-3{stroke-miterlimit:10;}</style></defs><g id="Livello_2" data-name="Livello 2"><g id="Livello_1-2" data-name="Livello 1"><rect class="cls-1" x="2" y="2" width="209.49" height="197.45"/><path class="cls-2" d="M32.05,76.37c12,3,18.51-9.28,29.81.78,7.3,6.5,9.66-9.23,15.93-15.94,1.44-1.53,16.13,27.18,18,27.3,4.59.28,15.56-22,21.09-23.26,9.51-2.17,7.76-6.9,12.25,1.18A52.86,52.86,0,0,0,139.7,80.07l2.41,2.19c1.11,1,2.25,2,3.46,2.87a65.51,65.51,0,0,1,7.89,7.49c1.74,1.89,4.66,2.93,5.54,5.34,18,49-18.47,78.75-30.75,80.16l-99.2-70.47a21.34,21.34,0,0,1-22.53-14L3.25,84.53A21.26,21.26,0,0,1,2,77.33V41.13C2,27.27,18.61,73,32.05,76.37Z"/><polygon class="cls-3" points="47.56 59.75 27.34 81.04 27.34 119.15 68.85 119.15 68.85 81.04 47.56 59.75"/><rect class="cls-1" x="68.85" y="81.04" width="43.75" height="38.11"/><polygon class="cls-1" points="27.34 81.04 2 81.04 2 144.27 27.34 119.15 27.34 81.04"/><polygon class="cls-1" points="50.34 58.29 21.8 59.75 2 81.04 27.34 81.04 50.34 58.29"/><polygon class="cls-4" points="27.34 119.15 52.46 144.27 128.25 144.27 100.29 119.15 27.34 119.15"/><polygon class="cls-3" points="27.34 119.15 52.46 144.27 52.46 198.99 2 198.14 2 144.27 27.34 119.15"/><path class="cls-1" d="M52.46,144.27h75.79v33.85S104.83,177.06,102.7,199H52.46Z"/><rect class="cls-2" x="73.51" y="161.61" width="8.57" height="12.97"/><rect class="cls-2" x="98.42" y="161.61" width="8.57" height="12.97"/><path class="cls-1" d="M134.64,40.37,109.36,64.71l.41,53.6s4-4.37,28.85-3.28a34.85,34.85,0,0,0,21.61-7.66V65.25Z"/><rect class="cls-2" x="130.67" y="82.48" width="7.95" height="12.04"/><rect class="cls-2" x="44.12" y="88.51" width="7.95" height="12.04"/><rect class="cls-2" x="10.69" y="94.7" width="7.95" height="12.04"/><rect class="cls-2" x="25.34" y="161.71" width="7.95" height="12.04"/><polygon class="cls-2" points="184.29 40.37 134.64 40.37 160.23 65.25 210 65.25 184.29 40.37"/><path class="cls-3" d="M210,65.25H160.23v42.12s10.66-15.86,23.24-16.13L210,90.42Z"/><polygon class="cls-5" points="171.8 157.76 171.8 198.87 159.57 198.87 159.57 157.76 165.69 148.4 171.8 157.76"/><polygon class="cls-5" points="191.23 158 191.23 199.1 179 199.1 179 158 185.11 148.64 191.23 158"/><polygon class="cls-5" points="210.66 158 210.66 199.1 198.43 199.1 198.43 158 204.54 148.64 210.66 158"/><rect class="cls-5" x="171.8" y="173.87" width="7.2" height="12.76"/><rect class="cls-5" x="191.23" y="173.87" width="7.2" height="12.76"/><path class="cls-3" d="M105.63,40.42c0,3.79-12.34,6.86-27.57,6.86-14.9,0-21.8-1-25-2.66A38.29,38.29,0,0,1,41,46.45c-19,0-20.47-4.24-20.47-9.46S27.6,24.32,41,27.53L47.27,29c4.44-1.55,10.78-2.67,17.43-4,15.51-3.21,23.7,4.24,23.7,9.46,0,.15,0,.31,0,.46C98.2,36.18,105.63,37.58,105.63,40.42Z"/><path class="cls-3" d="M132.1,29.4c.35,4.89-6.38,9.35-15,10a22.76,22.76,0,0,1-11.66-2,25.3,25.3,0,0,1-7.7,1.72c-8.66.62-16-2.83-16.31-7.72-.28-4,4.23-7.76,10.67-9.3C93.31,18,99.37,14.56,106.89,14c8.65-.62,16,2.84,16.31,7.72,0,.15,0,.29,0,.44C128.27,23.31,131.86,26,132.1,29.4Z"/></g></g></svg>