<svg xmlns="http://www.w3.org/2000/svg" viewBox="0 0 213.49 201.45"><defs><style>.cls-1{fill:#fff;}.cls-1,.cls-2,.cls-3,.cls-4{stroke:#1e1e1c;stroke-width:4px;}.cls-1,.cls-2{stroke-linecap:round;}.cls-1,.cls-2,.cls-4{stroke-linejoin:round;}.cls-2{fill:#1e1e1c;}.cls-3,.cls-4{fill:#f7e828;}.cls-3{stroke-miterlimit:10;}</style></defs><g id="Livello_2" data-name="Livello 2"><g id="Livello_1-2" data-name="Livello 1"><polygon class="cls-1" points="2 2 209.95 2 211.5 144.48 2 144.48 2 2"/><polygon class="cls-2" points="2.79 121.84 2.79 182.49 52.57 185.82 52.57 121.84 2.79 121.84"/><polygon class="cls-2" points="142.3 110.98 211.5 110.98 211.5 148.86 151.33 143.11 137.93 129.92 144.15 127.25 142.3 110.98"/><polygon class="cls-2" points="176.03 51.22 208.23 51.22 211.5 119.87 136.23 180.04 77.71 175.53 52.2 120.69 90.93 87.87 176.03 51.22"/><path class="cls-3" d="M169.52,67.17c0,11.21-5.69,20.29-12.7,20.29a9.48,9.48,0,0,1-6.55-2.9,11.77,11.77,0,0,1-6.15,1.75c-7,0-12.7-6.24-12.7-13.94s2.52-11.41,6.27-12.93v0c0-19.89,5.68-23.59,12.7-23.59,4.86,0,9.09,5.09,11.22,12.55C166.25,51.4,169.52,58.68,169.52,67.17Z"/><rect class="cls-1" x="147.42" y="78.06" width="6.1" height="38.43" rx="3.05"/><polygon class="cls-1" points="186.33 123.42 211.5 148.86 211.5 199.45 161.17 199.45 161.17 148.86 186.33 123.42"/><polygon class="cls-2" points="2 144.48 2 199.45 126.99 199.45 125.34 174.16 9.11 139.01 2 144.48"/><path class="cls-3" d="M102.1,45.23l26.25,24.34-1,50.87-9.69,10s-32.45,1.36-41-4l1.1-56.88Z"/><path class="cls-1" d="M77.76,69.57H18.41l1.73,42s6-2.83,27.94-1.22c0,0,9.17,17.22,28.58,16.13Z"/><polygon class="cls-2" points="100.99 44.11 77.76 69.57 18.41 69.57 43.3 45.23 100.99 44.11"/><rect class="cls-2" x="98.79" y="86.8" width="7.95" height="12.04"/><path class="cls-1" d="M77.36,98.53l25.28,24.34-.41,53.61s-4-4.38-28.85-3.28a34.88,34.88,0,0,1-21.6-7.66V123.42Z"/><path class="cls-3" d="M103.42,149.77l57.75-.91v50.59H127s-13.12-20.85-23.65-21.95Z"/><rect class="cls-2" x="73.38" y="140.65" width="7.95" height="12.04"/><rect class="cls-2" x="128.08" y="165.54" width="7.95" height="12.04"/><rect class="cls-2" x="182.36" y="165.54" width="7.95" height="12.04"/><polygon class="cls-2" points="27.71 98.53 77.36 98.53 51.77 123.42 2 123.42 27.71 98.53"/><path class="cls-4" d="M2.79,157.33H52.57v42.12S41.9,183.59,29.32,183.31l-26.53-.82Z"/><polygon class="cls-1" points="128.08 123.42 186.33 123.42 161.17 148.86 103.42 149.76 128.08 123.42"/><ellipse class="cls-3" cx="189.29" cy="44.58" rx="11.88" ry="31.59"/><rect class="cls-1" x="186.32" y="72.04" width="6.1" height="38.43" rx="3.05"/></g></g></svg>