<svg xmlns="http://www.w3.org/2000/svg" viewBox="0 0 213.64 201.47"><defs><style>.cls-1{fill:#fff;}.cls-1,.cls-2,.cls-3,.cls-4{stroke:#1e1e1c;stroke-width:4px;}.cls-1,.cls-2{stroke-linecap:round;}.cls-1,.cls-2,.cls-4{stroke-linejoin:round;}.cls-2{fill:#1e1e1c;}.cls-3,.cls-4{fill:#f7e828;}.cls-3{stroke-miterlimit:10;}</style></defs><g id="Livello_2" data-name="Livello 2"><g id="Livello_1-2" data-name="Livello 1"><polyline class="cls-1" points="2 135.32 211.63 135.32 211.63 2 2.14 2 2.14 24.76 2 135.32"/><polygon class="cls-2" points="71.34 110.99 2.14 110.99 2.14 148.87 62.31 143.13 75.71 129.93 69.48 127.27 71.34 110.99"/><polygon class="cls-2" points="37.6 51.23 2.14 51.23 2.14 119.88 77.4 180.06 135.93 175.54 161.44 120.7 121.62 95.25 37.6 51.23"/><path class="cls-3" d="M87,19.67l25,23.16L111,93.7l-9.7,10s-12-14.14-41-12.5l1.09-48.41Z"/><path class="cls-1" d="M61.35,42.83H2V57.05s4.37-1.91,29.67,26.53c0,0,9.16,8.76,28.58,7.66Z"/><polygon class="cls-2" points="85.69 18.49 61.35 42.83 2.01 42.83 26.89 18.49 85.69 18.49"/><rect class="cls-2" x="82.39" y="60.06" width="7.95" height="12.04"/><rect class="cls-2" x="37.94" y="60.52" width="7.95" height="12.04"/><rect class="cls-2" x="14.37" y="60.73" width="7.95" height="12.04"/><polygon class="cls-2" points="211.64 144.5 211.64 199.47 86.65 199.47 88.29 174.17 204.53 139.03 211.64 144.5"/><path class="cls-1" d="M136.28,98.55,111,122.89l.41,53.6s4-4.37,28.86-3.28a34.83,34.83,0,0,0,21.6-7.66V123.44Z"/><rect class="cls-2" x="132.3" y="140.67" width="7.95" height="12.04"/><polygon class="cls-2" points="185.93 98.55 136.28 98.55 161.86 123.44 211.64 123.44 185.93 98.55"/><path class="cls-3" d="M211.64,123.44H161.86v42.11s10.67-15.86,23.25-16.13l26.53-.82Z"/><path class="cls-1" d="M2.14,111v88.48H118.92l-43.56-58.8a51.22,51.22,0,0,0-29.47-19.39Z"/><polygon class="cls-4" points="14.66 156.76 14.66 198.84 2.14 198.84 2.14 156.76 8.4 147.18 14.66 156.76"/><polygon class="cls-4" points="34.55 156.76 34.55 198.84 22.03 198.84 22.03 156.76 28.29 147.18 34.55 156.76"/><polygon class="cls-4" points="54.44 156.76 54.44 198.84 41.92 198.84 41.92 156.76 48.18 147.18 54.44 156.76"/><polygon class="cls-4" points="74.33 156.76 74.33 198.84 61.81 198.84 61.81 156.76 68.07 147.18 74.33 156.76"/><polygon class="cls-4" points="94.21 156.76 94.21 198.84 81.7 198.84 81.7 156.76 87.95 147.18 94.21 156.76"/><rect class="cls-4" x="14.66" y="173.26" width="7.37" height="13.06"/><rect class="cls-4" x="34.55" y="173.26" width="7.37" height="13.06"/><rect class="cls-4" x="54.44" y="173.26" width="7.37" height="13.06"/><rect class="cls-4" x="74.33" y="173.26" width="7.37" height="13.06"/><path class="cls-4" d="M186.73,20.3c0,2.13-13.22,3.86-29.53,3.86-15.95,0-23.33-.59-26.72-1.5a75.55,75.55,0,0,1-13,1c-20.32,0-21.92-2.38-21.92-5.33s7.57-7.13,21.92-5.32l6.72.83c4.76-.87,11.55-1.5,18.66-2.27,16.61-1.81,25.38,2.38,25.38,5.32a2.26,2.26,0,0,1,0,.26C178.77,17.91,186.73,18.7,186.73,20.3Z"/><path class="cls-4" d="M122.55,47.84c0,1.87,12.78,3.39,28.54,3.39,10.75,0,17.47-.25,21.67-.67a50.47,50.47,0,0,1,9.28,0c2.31.19,4.8.29,7.4.29,19.64,0,21.18-2.09,21.18-4.68s-7.32-6.26-21.18-4.68h-.07a52.48,52.48,0,0,1-12,0c-3.74-.43-8.06-.82-12.51-1.26-16-1.58-24.52,2.1-24.52,4.68v.23C130.25,45.74,122.55,46.43,122.55,47.84Z"/><rect class="cls-2" x="185.5" y="139.02" width="7.95" height="12.04"/></g></g></svg>