<svg xmlns="http://www.w3.org/2000/svg" viewBox="0 0 213.49 201.45"><defs><style>.cls-1{fill:#fff;}.cls-1,.cls-2,.cls-3{stroke:#1e1e1c;stroke-width:4px;}.cls-1,.cls-3{stroke-linecap:round;stroke-linejoin:round;}.cls-2{fill:#f7e828;stroke-miterlimit:10;}.cls-3,.cls-4{fill:#1e1e1c;}</style></defs><g id="Livello_2" data-name="Livello 2"><g id="Livello_1-2" data-name="Livello 1"><rect class="cls-1" x="2" y="2" width="209.49" height="197.45"/><path class="cls-2" d="M104.41,58.49S82.72,6.72,3.89,19.8L2,23.17v172l193.37-3.54Z"/><path class="cls-3" d="M2,151.39s5.4-8.16,13.63-7.12,30.42,2.37,30.42,2.37L49.28,158a28.64,28.64,0,0,0,28.6,20.87c12.17-.47,10.75-3.26,13.4-3.69l31.86,1.8,3.37,22L2,199.45Z"/><path class="cls-3" d="M185,20.45c-12,3-17.89,5.44-29.2,15.5-7.3,6.5-17.36,18.8-26.76,21.46a28.16,28.16,0,0,1-5.93,1.08c-4.59.29-9.83-1.23-15.36-2.49A21.38,21.38,0,0,0,84.34,66.43,53.11,53.11,0,0,1,73.79,80.07l-2.41,2.19c-1.11,1-2.25,2-3.46,2.87A64.69,64.69,0,0,0,60,92.62,65.07,65.07,0,0,1,54.49,98c-79.6,68-2.52,94.61,9.76,96l120.2-86.33a21.35,21.35,0,0,0,22.53-14l3.26-9.11a21.26,21.26,0,0,0,1.25-7.2V41.13A21.29,21.29,0,0,0,185,20.45Z"/><path class="cls-2" d="M32.44,95.36s-16.93,26.34-19.7,48.91c0,0,11.18-1.47,38.65,21.24C51.39,165.51,49.84,122.4,32.44,95.36Z"/><polygon class="cls-2" points="165.93 59.75 186.16 81.04 186.16 119.15 144.64 119.15 144.64 81.04 165.93 59.75"/><rect class="cls-1" x="110.79" y="81.04" width="33.85" height="38.11"/><polygon class="cls-1" points="186.16 81.04 211.5 81.04 211.5 144.27 186.16 119.15 186.16 81.04"/><polygon class="cls-1" points="163.16 58.29 191.69 59.75 211.5 81.04 186.16 81.04 163.16 58.29"/><polygon class="cls-4" points="186.16 119.15 161.04 144.27 85.24 144.27 113.21 119.15 186.16 119.15"/><polygon class="cls-1" points="186.16 119.15 161.04 144.27 161.04 198.99 211.5 198.14 211.5 144.27 186.16 119.15"/><path class="cls-2" d="M161,144.27H85.24v33.85s23.42-1.06,25.55,20.87H161Z"/><circle class="cls-3" cx="165.38" cy="85.04" r="5.7"/><rect class="cls-3" x="131.42" y="161.61" width="8.57" height="12.97"/><rect class="cls-3" x="106.51" y="161.61" width="8.57" height="12.97"/></g></g></svg>