<svg xmlns="http://www.w3.org/2000/svg" viewBox="0 0 213.49 201.45"><defs><style>.cls-1{fill:#fff;}.cls-1,.cls-2,.cls-3,.cls-4{stroke:#1e1e1c;stroke-width:4px;}.cls-1,.cls-4{stroke-linecap:round;}.cls-1,.cls-3,.cls-4{stroke-linejoin:round;}.cls-2,.cls-3{fill:#f7e828;}.cls-2{stroke-miterlimit:10;}.cls-4,.cls-5{fill:#1e1e1c;}</style></defs><g id="Livello_2" data-name="Livello 2"><g id="Livello_1-2" data-name="Livello 1"><rect class="cls-1" x="2" y="2" width="209.49" height="197.45"/><path class="cls-2" d="M183.67,171.9c-3.14-12.27-5.66-18.3-16.11-29.86-6.74-7.47-13.68-18.63-16.45-28.24a29,29,0,0,1-1.12-6.07c-.29-4.69-4.55-9.18-3.24-14.84a21.75,21.75,0,0,0-10.83-24,54.55,54.55,0,0,1-14.16-10.78L120,56.22c-1.39-1.51-2.69-3.1-4-4.7a71.1,71.1,0,0,0-6.85-7,86.64,86.64,0,0,1-6.68-6.87C43.23-30.18,14.43,15.47,6.08,38.72c-2,5.55-4.51,28.11-1,32.88L81,164.85c1.92,2.63,11.84,7.49,12.11,10.74a21.89,21.89,0,0,0,14.61,18.76l6.56,2.32a40.48,40.48,0,0,0,13.44,2.3h34.52C176.58,199,187.18,185.65,183.67,171.9Z"/><polygon class="cls-1" points="165.93 59.75 186.16 81.04 186.16 119.15 144.64 119.15 144.64 81.04 165.93 59.75"/><polygon class="cls-1" points="186.16 81.04 211.5 81.04 211.5 144.27 186.16 119.15 186.16 81.04"/><polygon class="cls-3" points="165.93 59.75 191.69 59.75 211.5 81.04 186.16 81.04 165.93 59.75"/><polygon class="cls-4" points="4.43 88.18 4.43 198.99 106.99 198.99 105.64 147.99 10.27 77.15 4.43 88.18"/><polygon class="cls-5" points="186.16 119.15 161.04 144.27 85.24 144.27 113.21 119.15 186.16 119.15"/><polygon class="cls-1" points="186.16 119.15 161.04 144.27 161.04 198.99 211.5 198.14 211.5 144.27 186.16 119.15"/><path class="cls-2" d="M161,144.27H85.24v33.85s23.42-1.06,25.55,20.87H161Z"/><rect class="cls-4" x="131.42" y="161.61" width="8.57" height="12.97"/><rect class="cls-4" x="161.1" y="106.17" width="8.57" height="12.97"/><rect class="cls-4" x="181.98" y="146.93" width="8.57" height="12.97"/><rect class="cls-4" x="181.98" y="175.75" width="8.57" height="12.97"/><rect class="cls-4" x="106.51" y="161.61" width="8.57" height="12.97"/><polyline class="cls-1" points="53.27 107.37 53.27 65.25 78.85 40.37 104.14 64.71 103.64 129.29 92.28 138.07 53.27 107.37"/><rect class="cls-4" x="74.87" y="71.13" width="7.95" height="12.04"/><rect class="cls-4" x="74.73" y="100.15" width="7.95" height="12.04"/><polygon class="cls-4" points="29.2 40.37 78.85 40.37 53.27 65.25 3.49 65.25 29.2 40.37"/><path class="cls-2" d="M3.49,65.25H53.27v42.12S42.6,91.51,30,91.24L3.49,90.42Z"/><path class="cls-2" d="M68.27,101.52c0-.42,0-.86,0-1.31,0-5.55,1.07-9.25-4.2-10.8,0-3.38-.53-5.67-4.8-6.74-.22-4.18-2.1-6.38-13.22-6.29-6.18.05-11.37-.21-12.77,7.06-3.06.51-5.4,1.93-6.42,5.94-3.7.87-6.17,3.44-6.17,11.16,0,1.31,0,2.51.07,3.6-3,1.18-4.85,4-4.85,10.75,0,6.58,0,10.33,7.9,11.34,1.16,2.65,4,4,10.79,4.22,1.66,1.89,5,2.83,11.45,2.83a15.29,15.29,0,0,0,9.08-2.48c7.26,0,13.14-3.16,13.14-11.62,0-.54,0-1.07,0-1.58A12.25,12.25,0,0,0,70,111.09C70,106.68,70.65,103.44,68.27,101.52Z"/><rect class="cls-1" x="40.04" y="106.72" width="6.1" height="38.43" rx="3.05"/><path class="cls-2" d="M99.5,144.12c0-.49.06-1,.06-1.53,0-6.47,1.24-10.77-4.9-12.58,0-3.95-.62-6.61-5.6-7.86-.25-4.88-2.44-7.44-15.4-7.33-7.2.05-13.24-.24-14.88,8.23-3.56.59-6.29,2.24-7.48,6.92-4.32,1-7.19,4-7.19,13,0,1.53,0,2.93.07,4.2-3.44,1.37-5.64,4.65-5.64,12.52,0,7.68,0,12.05,9.21,13.23,1.34,3.08,4.61,4.71,12.57,4.91,1.93,2.2,5.76,3.29,13.34,3.29,4.11,0,7.83-.86,10.59-2.88,8.45,0,15.31-3.68,15.31-13.55q0-.94,0-1.83a14.27,14.27,0,0,0,1.89-7.59C101.48,150.13,102.27,146.36,99.5,144.12Z"/><rect class="cls-1" x="66.6" y="150.18" width="7.11" height="44.79" rx="3.05"/><path class="cls-1" d="M2,107.37S41.6,114,40.66,132.11s10.79,32.74,20.68,37.5S84,199.45,84,199.45H2V107.37Z"/><circle class="cls-4" cx="165.38" cy="85.04" r="5.7"/></g></g></svg>