<svg xmlns="http://www.w3.org/2000/svg" viewBox="0 0 213.49 201.45"><defs><style>.cls-1{fill:#fff;}.cls-1,.cls-2,.cls-3{stroke:#1e1e1c;stroke-width:4px;}.cls-1,.cls-2{stroke-linecap:round;stroke-linejoin:round;}.cls-2{fill:#1e1e1c;}.cls-3{fill:#f7e828;stroke-miterlimit:10;}</style></defs><g id="Livello_2" data-name="Livello 2"><g id="Livello_1-2" data-name="Livello 1"><polygon class="cls-1" points="211.5 48.83 211.5 2 2 2 2 56.44 211.5 48.83"/><polygon class="cls-2" points="71.19 110.98 2 110.98 2 148.86 62.17 143.11 75.57 129.92 69.34 127.25 71.19 110.98"/><rect class="cls-1" x="132.16" y="47.66" width="79.34" height="14.5" transform="translate(343.65 109.82) rotate(-180)"/><rect class="cls-3" x="132.16" y="62.16" width="79.34" height="14.5" transform="translate(343.65 138.81) rotate(-180)"/><rect class="cls-1" x="132.16" y="75.62" width="79.34" height="15.81" transform="translate(343.65 167.06) rotate(-180)"/><rect class="cls-3" x="132.16" y="91.29" width="79.34" height="14.5" transform="translate(343.65 197.07) rotate(-180)"/><rect class="cls-1" x="138.03" y="104.99" width="73.46" height="18.43" transform="translate(349.53 228.41) rotate(-180)"/><polygon class="cls-1" points="37.46 51.22 2 51.22 2 119.87 77.26 180.04 135.78 175.53 161.3 120.69 122.56 87.87 37.46 51.22"/><path class="cls-3" d="M112.12,24.5l25,23.16-1,50.87-9.7,10s-12-14.14-41-12.5l1.1-48.41Z"/><path class="cls-1" d="M86.51,47.66H27.16V61.89S31.54,60,56.84,88.41c0,0,9.16,8.76,28.57,7.66Z"/><polygon class="cls-2" points="110.85 23.32 86.51 47.66 27.16 47.66 52.05 23.32 110.85 23.32"/><rect class="cls-2" x="107.54" y="64.89" width="7.95" height="12.04"/><polygon class="cls-2" points="211.5 144.48 211.5 199.45 86.51 199.45 88.15 174.16 204.38 139.01 211.5 144.48"/><path class="cls-1" d="M136.14,98.53l-25.29,24.34.41,53.61s4-4.38,28.85-3.28a34.92,34.92,0,0,0,21.61-7.66V123.42Z"/><rect class="cls-2" x="132.16" y="140.65" width="7.95" height="12.04"/><polygon class="cls-2" points="185.79 98.53 136.14 98.53 161.72 123.42 211.5 123.42 185.79 98.53"/><path class="cls-3" d="M211.49,123.42H161.72v42.12S172.39,149.68,185,149.4l26.52-.82Z"/><polygon class="cls-2" points="2 110.98 2 199.45 118.78 199.45 44.1 137.51 2 110.98"/><path class="cls-3" d="M42.59,89.31c0,22.07-6.93,30.29-15.48,30.29-15.48,0-15.48-10-15.48-30.29,0-31.08,6.93-30.13,15.48-30.28C45,58.71,42.59,69.46,42.59,89.31Z"/><rect class="cls-1" x="22.31" y="92.81" width="7.18" height="45.24" rx="3.05"/><path class="cls-3" d="M128.76,148.94c0,5.92-10.82,10.72-24.16,10.72A45,45,0,0,1,88.7,157a20.07,20.07,0,0,1-6.29,1c-9.29,0-16.82-6.17-16.82-13.78,0-11.61,7.53-13.77,16.82-13.77a20,20,0,0,1,3.13.24c-.05-.59-.08-1.2-.08-1.81,0-9.29,6.17-16.82,13.77-16.82,11.62,0,13.78,7.53,13.78,16.82a19.48,19.48,0,0,1-2.4,9.49C125.74,139.27,128.76,143.66,128.76,148.94Z"/><rect class="cls-1" x="86.04" y="154.88" width="6.1" height="38.43" rx="3.05"/></g></g></svg>