<svg xmlns="http://www.w3.org/2000/svg" viewBox="0 0 216.09 201.45"><defs><style>.cls-1{fill:#fff;}.cls-1,.cls-2,.cls-3{stroke:#1e1e1c;stroke-width:4px;}.cls-1,.cls-3{stroke-linecap:round;stroke-linejoin:round;}.cls-2{fill:#f7e828;stroke-miterlimit:10;}.cls-3,.cls-4{fill:#1e1e1c;}</style></defs><g id="Livello_2" data-name="Livello 2"><g id="Livello_1-2" data-name="Livello 1"><rect class="cls-1" x="4.59" y="2" width="209.49" height="197.45"/><path class="cls-2" d="M111.67,58.49S133.37,6.72,212.2,19.8l1.89,3.37V81L149.87,94Z"/><polygon class="cls-3" points="132 55.83 189.39 56.98 214.09 81.04 154.9 81.04 132 55.83"/><path class="cls-1" d="M214.09,151.39s-5.41-8.16-13.63-7.12S170,146.64,170,146.64L166.81,158a28.65,28.65,0,0,1-28.6,20.87c-12.17-.47-10.75-3.26-13.4-3.69L93,177l-3.37,22,124.51.46Z"/><polygon class="cls-1" points="154.9 122.56 214.09 123.86 214.09 81.04 154.9 81.04 154.9 122.56"/><path class="cls-3" d="M31.08,20.45c12,3,17.87,5.45,29.17,15.5,7.3,6.5,17.36,18.8,26.76,21.46A28.36,28.36,0,0,0,93,58.49c4.58.29,9.82-1.23,15.35-2.49A21.37,21.37,0,0,1,134,72.56h0A21.36,21.36,0,0,1,115.52,98l-83.88,9.63a21.34,21.34,0,0,1-22.53-14L5.84,84.53a21.26,21.26,0,0,1-1.25-7.2V41.18A21.33,21.33,0,0,1,31.08,20.45Z"/><polygon class="cls-1" points="50.15 59.75 29.93 81.04 29.93 119.15 71.44 119.15 71.44 81.04 50.15 59.75"/><path class="cls-2" d="M105.29,81,130.84,57,154.9,81v41.52s-21.5,11.71-24.06,21.71l-25.55-25.12Z"/><rect class="cls-1" x="71.44" y="81.04" width="33.85" height="38.11"/><polygon class="cls-4" points="29.93 81.04 4.59 81.04 4.59 144.27 29.93 119.15 29.93 81.04"/><polygon class="cls-2" points="52.93 58.29 24.39 59.75 4.59 81.04 29.93 81.04 52.93 58.29"/><polygon class="cls-4" points="29.93 119.15 55.05 144.27 130.84 144.27 102.88 119.15 29.93 119.15"/><polygon class="cls-2" points="29.93 119.15 55.05 144.27 55.05 198.99 4.59 198.14 4.59 144.27 29.93 119.15"/><path class="cls-1" d="M55.05,144.27h75.79v33.85s-23.42-1.06-25.55,20.87H55.05Z"/><circle class="cls-3" cx="50.71" cy="85.04" r="5.7"/><rect class="cls-3" x="76.1" y="161.61" width="8.57" height="12.97"/><rect class="cls-3" x="85.3" y="95.96" width="8.57" height="12.97"/><rect class="cls-3" x="101.01" y="161.61" width="8.57" height="12.97"/><rect class="cls-3" x="125.81" y="82.96" width="8.57" height="12.97"/><path class="cls-2" d="M203.54,132.06c0-.42.05-.86.05-1.31,0-5.55,1.06-9.25-4.2-10.8,0-3.38-.54-5.67-4.81-6.74-.21-4.19-2.09-6.39-13.21-6.3-6.18,0-11.37-.2-12.78,7.07-3.05.51-5.39,1.93-6.41,5.93-3.71.87-6.17,3.45-6.17,11.17,0,1.31,0,2.51.06,3.59-2.95,1.19-4.84,4-4.84,10.75,0,6.59,0,10.34,7.9,11.35,1.15,2.65,4,4,10.79,4.22,1.66,1.89,4.94,2.82,11.45,2.82a15.28,15.28,0,0,0,9.08-2.47c7.26,0,13.14-3.16,13.14-11.63,0-.54,0-1.06,0-1.57a12.15,12.15,0,0,0,1.63-6.51C205.24,137.22,205.91,134,203.54,132.06Z"/><rect class="cls-1" x="175.31" y="137.26" width="6.1" height="38.43" rx="3.05"/></g></g></svg>