<svg xmlns="http://www.w3.org/2000/svg" viewBox="0 0 213.49 201.45"><defs><style>.cls-1{fill:#fff;}.cls-1,.cls-2,.cls-3{stroke:#1e1e1c;stroke-width:4px;}.cls-1,.cls-3{stroke-linecap:round;stroke-linejoin:round;}.cls-2{fill:#f7e828;stroke-miterlimit:10;}.cls-3,.cls-4{fill:#1e1e1c;}</style></defs><g id="Livello_2" data-name="Livello 2"><g id="Livello_1-2" data-name="Livello 1"><rect class="cls-1" x="2" y="2" width="209.49" height="197.45"/><path class="cls-2" d="M109.08,58.49S130.78,6.72,209.6,19.8l1.89,3.37V81L147.28,94Z"/><polygon class="cls-3" points="129.41 55.83 186.8 56.98 211.5 81.04 152.31 81.04 129.41 55.83"/><path class="cls-3" d="M211.49,151.39s-5.4-8.16-13.62-7.12-30.43,2.37-30.43,2.37L164.22,158a28.65,28.65,0,0,1-28.6,20.87c-12.17-.47-10.75-3.26-13.4-3.69L90.35,177,87,199l124.5.46Z"/><polygon class="cls-1" points="152.31 122.56 211.5 123.86 211.5 81.04 152.31 81.04 152.31 122.56"/><path class="cls-2" d="M181.05,95.36S198,121.7,200.76,144.27c0,0-11.19-1.47-38.65,21.24C162.11,165.51,163.65,122.4,181.05,95.36Z"/><path class="cls-3" d="M28.49,20.45c12,3,17.87,5.45,29.17,15.5C65,42.45,75,54.75,84.42,57.41a28.39,28.39,0,0,0,5.93,1.08c4.59.29,9.83-1.23,15.36-2.49a21.36,21.36,0,0,1,25.7,16.56h0A21.34,21.34,0,0,1,112.93,98l-83.88,9.63a21.34,21.34,0,0,1-22.53-14L3.25,84.53A21.26,21.26,0,0,1,2,77.33V41.18A21.33,21.33,0,0,1,28.49,20.45Z"/><polygon class="cls-2" points="47.56 59.75 27.34 81.04 27.34 119.15 68.85 119.15 68.85 81.04 47.56 59.75"/><path class="cls-2" d="M102.7,81,128.25,57,152.31,81v41.52s-21.5,11.71-24.06,21.71L102.7,119.15Z"/><rect class="cls-1" x="68.85" y="81.04" width="33.85" height="38.11"/><polygon class="cls-4" points="27.34 81.04 2 81.04 2 144.27 27.34 119.15 27.34 81.04"/><polygon class="cls-1" points="50.34 58.29 21.8 59.75 2 81.04 27.34 81.04 50.34 58.29"/><polygon class="cls-4" points="27.34 119.15 52.46 144.27 128.25 144.27 100.29 119.15 27.34 119.15"/><polygon class="cls-1" points="27.34 119.15 52.46 144.27 52.46 198.99 2 198.14 2 144.27 27.34 119.15"/><path class="cls-2" d="M52.46,144.27h75.79v33.85S104.83,177.06,102.7,199H52.46Z"/><circle class="cls-2" cx="91.36" cy="29.51" r="17.72"/><circle class="cls-3" cx="48.12" cy="85.04" r="5.7"/><rect class="cls-3" x="73.51" y="161.61" width="8.57" height="12.97"/><rect class="cls-3" x="98.42" y="161.61" width="8.57" height="12.97"/><rect class="cls-3" x="123.22" y="82.96" width="8.57" height="12.97"/></g></g></svg>