<svg xmlns="http://www.w3.org/2000/svg" viewBox="0 0 213.49 201.45"><defs><style>.cls-1{fill:#fff;}.cls-1,.cls-2,.cls-3{stroke:#1e1e1c;stroke-width:4px;}.cls-1,.cls-2{stroke-linecap:round;stroke-linejoin:round;}.cls-2{fill:#1e1e1c;}.cls-3{fill:#f7e828;stroke-miterlimit:10;}</style></defs><g id="Livello_2" data-name="Livello 2"><g id="Livello_1-2" data-name="Livello 1"><polygon class="cls-1" points="2 48.83 2 2 211.5 2 211.5 56.44 2 48.83"/><polygon class="cls-2" points="142.3 110.98 211.5 110.98 211.5 148.86 151.33 143.11 137.93 129.92 144.15 127.25 142.3 110.98"/><path class="cls-3" d="M30,54.91S26.43,34,43.39,6.09c0,0,14.5,22.7,13.4,48.82Z"/><rect class="cls-1" x="2" y="47.66" width="79.34" height="14.5"/><rect class="cls-3" x="2" y="62.16" width="79.34" height="14.5"/><rect class="cls-1" x="2" y="75.62" width="79.34" height="15.81"/><rect class="cls-3" x="2" y="91.29" width="79.34" height="14.5"/><rect class="cls-1" x="2" y="104.99" width="73.46" height="18.43"/><polygon class="cls-2" points="176.03 51.22 211.5 51.22 211.5 119.87 136.23 180.04 77.71 175.53 52.2 120.69 90.93 87.87 176.03 51.22"/><path class="cls-3" d="M102.64,23.32,76.39,47.66l1,50.87,9.7,10s12-14.14,41-12.5L127,47.66Z"/><path class="cls-1" d="M127,47.66h59.34V61.89S182,60,156.66,88.41c0,0-9.16,8.76-28.58,7.66Z"/><polygon class="cls-2" points="103.75 22.2 126.99 47.66 186.33 47.66 161.45 23.32 103.75 22.2"/><polygon class="cls-1" points="186.33 123.42 211.5 148.86 211.5 199.45 161.17 199.45 161.17 148.86 186.33 123.42"/><rect class="cls-2" x="98" y="64.89" width="7.95" height="12.04"/><polygon class="cls-2" points="2 144.48 2 199.45 126.99 199.45 125.34 174.16 9.11 139.01 2 144.48"/><path class="cls-1" d="M77.36,98.53l25.28,24.34-.41,53.61s-4-4.38-28.85-3.28a34.88,34.88,0,0,1-21.6-7.66V123.42Z"/><path class="cls-3" d="M103.42,149.77l57.75-.91v50.59H127s-13.12-20.85-23.65-21.95Z"/><rect class="cls-2" x="73.38" y="140.65" width="7.95" height="12.04"/><rect class="cls-2" x="128.08" y="165.54" width="7.95" height="12.04"/><rect class="cls-2" x="182.36" y="165.54" width="7.95" height="12.04"/><polygon class="cls-2" points="27.71 98.53 77.36 98.53 51.77 123.42 2 123.42 27.71 98.53"/><path class="cls-3" d="M2,123.42H51.78v42.12S41.11,149.68,28.53,149.4L2,148.58Z"/><polygon class="cls-1" points="128.08 123.42 186.33 123.42 161.17 148.86 103.42 149.76 128.08 123.42"/></g></g></svg>