<svg xmlns="http://www.w3.org/2000/svg" viewBox="0 0 213.49 201.45"><defs><style>.cls-1{fill:#fff;}.cls-1,.cls-2,.cls-3,.cls-4{stroke:#1e1e1c;stroke-width:4px;}.cls-1,.cls-2{stroke-linecap:round;}.cls-1,.cls-2,.cls-4{stroke-linejoin:round;}.cls-2{fill:#1e1e1c;}.cls-3,.cls-4{fill:#f7e828;}.cls-3{stroke-miterlimit:10;}</style></defs><g id="Livello_2" data-name="Livello 2"><g id="Livello_1-2" data-name="Livello 1"><polygon class="cls-1" points="211.5 2 3.54 2 2 144.48 211.5 144.48 211.5 2"/><polygon class="cls-2" points="210.7 121.84 210.7 182.49 160.93 185.82 160.93 121.84 210.7 121.84"/><polygon class="cls-2" points="71.19 110.98 2 110.98 2 148.86 62.17 143.11 75.57 129.92 69.34 127.25 71.19 110.98"/><polygon class="cls-2" points="37.46 51.22 5.27 51.22 2 119.87 77.26 180.04 135.78 175.53 161.3 120.69 122.56 87.87 37.46 51.22"/><polygon class="cls-1" points="13.56 42.68 13.56 72.41 4.72 72.41 4.72 42.68 9.14 35.91 13.56 42.68"/><polygon class="cls-1" points="27.61 42.85 27.61 72.59 18.77 72.59 18.77 42.85 23.19 36.09 27.61 42.85"/><polygon class="cls-1" points="41.67 43.03 41.67 72.76 32.82 72.76 32.82 43.03 37.24 36.26 41.67 43.03"/><polygon class="cls-1" points="55.72 43.2 55.72 72.93 46.88 72.93 46.88 43.2 51.3 36.43 55.72 43.2"/><polygon class="cls-1" points="69.77 43.37 69.77 73.11 60.93 73.11 60.93 43.37 65.35 36.61 69.77 43.37"/><rect class="cls-1" x="13.56" y="54.34" width="5.21" height="9.23"/><rect class="cls-1" x="27.61" y="54.34" width="5.21" height="9.23"/><rect class="cls-1" x="41.67" y="54.34" width="5.21" height="9.23"/><rect class="cls-1" x="55.72" y="54.34" width="5.21" height="9.23"/><path class="cls-3" d="M78.46,96.19c0,5.93-10.82,10.73-24.16,10.73a44.91,44.91,0,0,1-15.89-2.65,20.18,20.18,0,0,1-6.3,1c-9.29,0-16.82-6.17-16.82-13.78,0-11.61,7.53-13.77,16.82-13.77a20,20,0,0,1,3.13.24c-.05-.59-.07-1.2-.07-1.81,0-9.29,6.16-16.82,13.77-16.82,11.61,0,13.77,7.53,13.77,16.82a19.47,19.47,0,0,1-2.39,9.49C75.45,86.52,78.46,90.91,78.46,96.19Z"/><rect class="cls-1" x="35.74" y="102.13" width="6.1" height="38.43" rx="3.05"/><polygon class="cls-1" points="27.16 123.42 2 148.86 2 199.45 52.32 199.45 52.32 148.86 27.16 123.42"/><polygon class="cls-2" points="211.5 144.48 211.5 199.45 86.51 199.45 88.15 174.16 204.38 139.01 211.5 144.48"/><path class="cls-3" d="M207.68,37.84c0-.42,0-.86,0-1.31,0-5.55,1.07-9.24-4.2-10.8,0-3.38-.53-5.67-4.8-6.74-.22-4.18-2.1-6.38-13.22-6.29-6.18.05-11.36-.21-12.77,7.07-3.06.5-5.4,1.92-6.41,5.93-3.71.87-6.18,3.44-6.18,11.16,0,1.31,0,2.51.07,3.6-3,1.18-4.85,4-4.85,10.75,0,6.58,0,10.34,7.9,11.35,1.16,2.64,4,4,10.79,4.22,1.66,1.88,4.95,2.82,11.45,2.82a15.28,15.28,0,0,0,9.08-2.47c7.26,0,13.14-3.17,13.14-11.63,0-.54,0-1.07,0-1.57a12.27,12.27,0,0,0,1.62-6.51C209.38,43,210.06,39.77,207.68,37.84Z"/><rect class="cls-1" x="179.45" y="43.04" width="6.1" height="38.43" rx="3.05"/><path class="cls-3" d="M142.13,24.39c0-.35,0-.72,0-1.09,0-4.6.89-7.67-3.48-9,0-2.8-.45-4.7-4-5.59-.17-3.47-1.73-5.29-11-5.22-5.12,0-9.42-.17-10.59,5.87a5.92,5.92,0,0,0-5.32,4.92c-3.07.72-5.12,2.85-5.12,9.25,0,1.09,0,2.09.05,3-2.45,1-4,3.31-4,8.91s0,8.58,6.56,9.41c1,2.2,3.28,3.36,8.94,3.5,1.38,1.57,4.11,2.35,9.5,2.35a12.62,12.62,0,0,0,7.53-2.06c6,0,10.9-2.62,10.9-9.64,0-.45,0-.88,0-1.3a10.13,10.13,0,0,0,1.35-5.4C143.54,28.67,144.1,26,142.13,24.39Z"/><rect class="cls-1" x="118.72" y="28.7" width="5.06" height="31.87" rx="2.53"/><path class="cls-3" d="M111.4,45.23,85.14,69.57l1,50.87,9.7,10s32.44,1.36,41-4l-1.09-56.88Z"/><path class="cls-1" d="M135.74,69.57h59.35l-1.74,42s-6-2.83-27.94-1.22c0,0-9.16,17.22-28.58,16.13Z"/><polygon class="cls-2" points="112.5 44.11 135.74 69.57 195.09 69.57 170.2 45.23 112.5 44.11"/><rect class="cls-2" x="106.75" y="86.8" width="7.95" height="12.04"/><rect class="cls-2" x="145.02" y="78.91" width="7.95" height="12.04"/><rect class="cls-2" x="175.15" y="78.91" width="7.95" height="12.04"/><path class="cls-1" d="M136.14,98.53l-25.29,24.34.41,53.61s4-4.38,28.85-3.28a34.92,34.92,0,0,0,21.61-7.66V123.42Z"/><path class="cls-3" d="M110.07,149.77l-57.75-.91v50.59H86.51s13.12-20.85,23.65-21.95Z"/><rect class="cls-2" x="132.16" y="140.65" width="7.95" height="12.04"/><rect class="cls-2" x="77.46" y="165.54" width="7.95" height="12.04"/><rect class="cls-2" x="23.18" y="165.54" width="7.95" height="12.04"/><polygon class="cls-2" points="185.79 98.53 136.14 98.53 161.72 123.42 211.5 123.42 185.79 98.53"/><path class="cls-4" d="M210.7,157.33H160.92v42.12s10.67-15.86,23.25-16.14l26.53-.82Z"/><polygon class="cls-1" points="85.42 123.42 27.16 123.42 52.32 148.86 110.07 149.76 85.42 123.42"/></g></g></svg>