<svg xmlns="http://www.w3.org/2000/svg" viewBox="0 0 44.63 44.61"><defs><style>.cls-1{fill:#f7e828;stroke:#010101;}.cls-1,.cls-2{stroke-miterlimit:10;stroke-width:3px;}.cls-2{stroke:#000;}</style></defs><g id="Livello_2" data-name="Livello 2"><g id="Livello_1-2" data-name="Livello 1"><path class="cls-1" d="M2.45,35.09A20.49,20.49,0,0,1,3.19,31,4,4,0,0,1,4.3,29.24l20-19.93c.16-.16.27-.42.57-.39s.31.2.44.32l10.1,10.1c.13.13.31.23.33.44s-.31.48-.5.68C28.93,26.73,22.62,33,16.39,39.3A8.18,8.18,0,0,1,10.91,42a6.22,6.22,0,0,1-1.43.18Z"/><path class="cls-1" d="M29.58,4.25a5,5,0,0,1,3-2.24A7.79,7.79,0,0,1,43.13,9.64a7.57,7.57,0,0,1-2.22,5.12c-.14.14-.26.36-.52.29s-.28-.15-.38-.26Q34.91,9.71,29.84,4.63C29.73,4.52,29.57,4.43,29.58,4.25Z"/><path class="cls-2" d="M29.58,4.25c0,.18.15.27.26.38Q34.91,9.72,40,14.79c.1.11.19.26.38.26,0,.18,0,.3-.17.42l-4.16,4.14a1.63,1.63,0,0,1-.35.17c0-.21-.2-.31-.33-.44L25.28,9.24c-.13-.12-.23-.3-.44-.32a.57.57,0,0,1,.21-.41l4.11-4.1A.41.41,0,0,1,29.58,4.25Z"/><path class="cls-2" d="M2.45,35.09l7,7.08a33.55,33.55,0,0,1-5.34.94A2.45,2.45,0,0,1,1.51,40.5,32.24,32.24,0,0,1,2.45,35.09Z"/></g></g></svg>