<svg xmlns="http://www.w3.org/2000/svg" viewBox="0 0 48.05 48.05"><defs><style>.cls-1{fill:#f7e828;stroke:#010101;stroke-linecap:round;stroke-linejoin:round;stroke-width:3px;}</style></defs><g id="Livello_2" data-name="Livello 2"><g id="Livello_1-2" data-name="Livello 1"><path d="M24,48.05H8.25A8,8,0,0,1,0,39.84Q0,24,0,8.2A8,8,0,0,1,8.16,0H39.9a8,8,0,0,1,8.15,8.1q0,15.92,0,31.83A8,8,0,0,1,39.89,48ZM33.37,5.43a9.27,9.27,0,1,0,9.25,9.28A9.27,9.27,0,0,0,33.37,5.43ZM14.68,42.62a9.27,9.27,0,1,0-9.25-9.28A9.27,9.27,0,0,0,14.68,42.62ZM12,18.59A6.5,6.5,0,0,0,18.59,12a6.51,6.51,0,0,0-6.48-6.6,6.51,6.51,0,0,0-6.68,6.51A6.51,6.51,0,0,0,12,18.59ZM36,29.46a6.58,6.58,0,1,0,6.59,6.59A6.5,6.5,0,0,0,36,29.46Z"/><path class="cls-1" d="M33.37,5.43a9.27,9.27,0,0,1,0,18.54,9.27,9.27,0,1,1,0-18.54Z"/><path class="cls-1" d="M14.68,42.62a9.27,9.27,0,0,1,0-18.54,9.27,9.27,0,1,1,0,18.54Z"/><path class="cls-1" d="M12,18.59a6.51,6.51,0,0,1-6.54-6.65,6.51,6.51,0,0,1,6.68-6.51A6.51,6.51,0,0,1,18.59,12,6.5,6.5,0,0,1,12,18.59Z"/><path class="cls-1" d="M36,29.46a6.58,6.58,0,1,1-6.57,6.61A6.5,6.5,0,0,1,36,29.46Z"/></g></g></svg>