<svg xmlns="http://www.w3.org/2000/svg" viewBox="0 0 36.66 44.93"><defs><style>.cls-1{fill:#f7e828;stroke:#010101;stroke-miterlimit:10;stroke-width:3px;}.cls-2{fill:#010202;}</style></defs><g id="Livello_2" data-name="Livello 2"><g id="Livello_1-2" data-name="Livello 1"><path class="cls-1" d="M1.51,22.46c0-4.83,0-9.66,0-14.49A6.2,6.2,0,0,1,5.29,2,5.17,5.17,0,0,1,7.55,1.5c7.2,0,14.4,0,21.6,0a6.18,6.18,0,0,1,5.9,5.32,13.79,13.79,0,0,1,.11,1.82q0,14.09,0,28.18a6.33,6.33,0,0,1-2.78,5.51,6.14,6.14,0,0,1-3.58,1.08c-7,0-13.92,0-20.87,0A6.27,6.27,0,0,1,1.51,37C1.5,32.13,1.51,27.29,1.51,22.46ZM18.32,37.14A10.49,10.49,0,1,0,7.82,26.68,10.49,10.49,0,0,0,18.32,37.14Zm2.1-27.28a2.13,2.13,0,0,0,2.12-2.08,2.11,2.11,0,0,0-4.21,0A2.11,2.11,0,0,0,20.42,9.86ZM30.93,7.77a2.14,2.14,0,0,0-2.1-2.11,2.16,2.16,0,0,0-2.11,2.11,2.11,2.11,0,0,0,4.21,0Z"/><path class="cls-2" d="M18.32,37.14A10.49,10.49,0,1,1,28.84,26.71,10.51,10.51,0,0,1,18.32,37.14Zm0-10.47c1.87,0,3.75,0,5.63,0,.6,0,.69-.2.63-.72a6.32,6.32,0,0,0-12.55,0c-.07.54,0,.78.65.77C14.59,26.64,16.47,26.67,18.35,26.67Z"/><path class="cls-2" d="M20.42,9.86a2.11,2.11,0,0,1-2.09-2.11,2.11,2.11,0,1,1,2.09,2.11Z"/><path class="cls-2" d="M30.93,7.77a2.11,2.11,0,0,1-4.21,0,2.16,2.16,0,0,1,2.11-2.11A2.14,2.14,0,0,1,30.93,7.77Z"/><path class="cls-1" d="M18.35,26.67c-1.88,0-3.76,0-5.64,0-.65,0-.72-.23-.65-.77a6.32,6.32,0,0,1,12.55,0c.06.52,0,.73-.63.72C22.1,26.65,20.22,26.67,18.35,26.67Z"/></g></g></svg>