<svg xmlns="http://www.w3.org/2000/svg" viewBox="0 0 191.62 177.46"><defs><style>.cls-1{fill:#f7e828;}</style></defs><g id="Livello_2" data-name="Livello 2"><g id="Livello_1-2" data-name="Livello 1"><path d="M79.89,0c24,.5,42.79,9.17,57.77,26.13a14.66,14.66,0,0,0,4.48,3.51,73.82,73.82,0,0,1,42.14,70.75,23.42,23.42,0,0,1-.7,6.12c-2.68,8-.39,15.79,1,23.59,2.24,12.69,4.62,25.36,6.89,38.05,1.06,5.93-3.12,10.2-9,9.15-16.51-3-33-6.19-49.52-8.85-4-.64-8.32.38-12.46.88C96.78,172.15,76.3,165.27,59,148.9c-1.7-1.61-3.09-2.34-5.64-1.85-14.67,2.84-29.4,5.39-44.11,8-5.92,1.05-10.16-3.09-9.1-9,3-16.5,6.25-33,8.83-49.53.69-4.44-.6-9.21-1.13-13.82A73.65,73.65,0,0,1,58.73,3.62a64,64,0,0,1,9.61-2.41C72.61.53,77,.29,79.89,0ZM16.54,138.76c9.6-1.73,18.43-3.46,27.3-4.89s17.94-4.94,27.27-1.64a12.6,12.6,0,0,0,2.68.53A59,59,0,0,0,139.94,77.6c2.33-36.75-30-66.87-66.47-62A59.16,59.16,0,0,0,23.89,88.92a17.67,17.67,0,0,1,.39,6.75c-1,6.76-2.43,13.47-3.65,20.2C19.29,123.25,18,130.64,16.54,138.76ZM152.9,55.25c5.1,23.33,1.46,44.44-12.64,63.19S106.8,146.58,83,148.13a17.55,17.55,0,0,0,1.66,1.12,58.89,58.89,0,0,0,39.36,4.5c2.3-.52,4.79-1.12,7.06-.78,7.89,1.19,15.72,2.79,23.58,4.21,6.66,1.21,13.33,2.4,20.21,3.63a26.57,26.57,0,0,0-.17-2.83c-1.91-10.55-3.93-21.08-5.74-31.65-.93-5.45-2.64-10.78-1.05-16.55a54,54,0,0,0-.13-28.13A57.64,57.64,0,0,0,152.9,55.25Z"/><path class="cls-1" d="M16.54,138.76c1.45-8.12,2.75-15.51,4.09-22.89,1.22-6.73,2.61-13.44,3.65-20.2a17.67,17.67,0,0,0-.39-6.75A59.16,59.16,0,0,1,73.47,15.59c36.51-4.86,68.8,25.26,66.47,62a59,59,0,0,1-66.15,55.16,12.6,12.6,0,0,1-2.68-.53c-9.33-3.3-18.25.18-27.27,1.64S26.14,137,16.54,138.76ZM81.09,96.39c7,0,13.94,0,20.91,0,5.17,0,8.47-3,8.51-7.38s-3.27-7.49-8.37-7.5c-14.06,0-28.11-.07-42.17,0A10.39,10.39,0,0,0,54.82,83c-3,1.83-3.72,4.79-2.88,8.1.79,3.13,3.72,5.25,7.55,5.3C66.69,96.45,73.89,96.38,81.09,96.39ZM73.54,74.24H87.26c.22,0,.45,0,.68,0,4.94-.39,8-3.41,7.87-7.7s-3.45-7.08-8.4-7.09q-13.55,0-27.09,0c-5.32,0-8.55,2.68-8.69,7.12s3.09,7.56,8.54,7.68C64.62,74.33,69.08,74.25,73.54,74.24Z"/><path class="cls-1" d="M152.9,55.25a57.64,57.64,0,0,1,14.86,26.4,54,54,0,0,1,.13,28.13c-1.59,5.77.12,11.1,1.05,16.55,1.81,10.57,3.83,21.1,5.74,31.65a26.57,26.57,0,0,1,.17,2.83c-6.88-1.23-13.55-2.42-20.21-3.63-7.86-1.42-15.69-3-23.58-4.21-2.27-.34-4.76.26-7.06.78a58.89,58.89,0,0,1-39.36-4.5A17.55,17.55,0,0,1,83,148.13c23.82-1.55,43.15-10.9,57.28-29.69S158,78.58,152.9,55.25Z"/><path d="M81.09,96.39c-7.2,0-14.4.06-21.6,0-3.83,0-6.76-2.17-7.55-5.3-.84-3.31-.08-6.27,2.88-8.1A10.39,10.39,0,0,1,60,81.53c14.06-.11,28.11-.09,42.17,0,5.1,0,8.41,3.08,8.37,7.5s-3.34,7.35-8.51,7.38C95,96.43,88.06,96.39,81.09,96.39Z"/><path d="M73.54,74.25c-4.46,0-8.92.08-13.37,0-5.45-.12-8.68-3.11-8.54-7.68s3.37-7.11,8.69-7.12q13.54,0,27.09,0c5,0,8.25,2.82,8.4,7.09s-2.93,7.31-7.87,7.7c-.23,0-.46,0-.68,0Z"/></g></g></svg>