<svg xmlns="http://www.w3.org/2000/svg" viewBox="0 0 61.74 38.1"><defs><style>.cls-1{fill:#f7e828;stroke:#010101;stroke-miterlimit:10;stroke-width:3px;}.cls-2{fill:#010202;}</style></defs><g id="Livello_2" data-name="Livello 2"><g id="Livello_1-2" data-name="Livello 1"><path class="cls-1" d="M43.2,33.21H18.64c0-.34,0-.68,0-1a5.79,5.79,0,0,0-3.36-5.63,5.78,5.78,0,0,0-6.59.73,6.08,6.08,0,0,0-2.21,5.43,6.49,6.49,0,0,1-4.69-5.33,30.1,30.1,0,0,1,0-8.89A7.06,7.06,0,0,1,4.49,14,8.17,8.17,0,0,0,6,11.76C7.14,10,8.18,8.1,9.3,6.29a9.45,9.45,0,0,1,8.39-4.77c3.94,0,7.89,0,11.83,0a12.3,12.3,0,0,1,10.31,5c1.35,1.71,2.74,3.39,4.07,5.12a1.73,1.73,0,0,0,1.13.66,48.19,48.19,0,0,1,9,2.58,9.74,9.74,0,0,1,6.14,9,11.71,11.71,0,0,1-.5,4.7,6.84,6.84,0,0,1-4.39,4.18c0-.25,0-.51,0-.76a6.07,6.07,0,0,0-5.19-6A6.15,6.15,0,0,0,43.46,30,8.38,8.38,0,0,0,43.2,33.21Z"/><path class="cls-2" d="M6.52,32.72a6.08,6.08,0,0,1,2.21-5.43,5.78,5.78,0,0,1,6.59-.73,5.79,5.79,0,0,1,3.36,5.63c0,.34,0,.68,0,1s-.24.74-.39,1.11a6.09,6.09,0,0,1-11.53-.78C6.64,33.27,6.58,33,6.52,32.72Z"/><path class="cls-2" d="M43.2,33.21A8.38,8.38,0,0,1,43.46,30,6.15,6.15,0,0,1,50.13,26a6.07,6.07,0,0,1,5.19,6c0,.25,0,.51,0,.76-.71,3.09-2.51,4.91-5.23,5.29a6.08,6.08,0,0,1-6.73-4.33C43.32,33.52,43.25,33.36,43.2,33.21Z"/></g></g></svg>