<svg xmlns="http://www.w3.org/2000/svg" viewBox="0 0 47.32 45.11"><defs><style>.cls-1{fill:#010202;}.cls-2{fill:#f7e828;stroke:#010101;stroke-miterlimit:10;stroke-width:3px;}</style></defs><g id="Livello_2" data-name="Livello 2"><g id="Livello_1-2" data-name="Livello 1"><path class="cls-1" d="M13.78,28.14c.5-.24.23-.52.05-.8-1-1.45-1.92-2.92-2.92-4.36a2.41,2.41,0,0,1,0-3.06C12,18.42,13,16.9,14,15.38a2.67,2.67,0,0,1,1.15-1A20.58,20.58,0,0,1,32,14.27a3.19,3.19,0,0,1,1.44,1.23c1,1.5,2,3,3,4.48a2.37,2.37,0,0,1,0,2.93c-1,1.47-2,3-3,4.43-.19.28-.45.56,0,.8a3,3,0,0,1,.67,4,25.16,25.16,0,0,0-1,2.59Q31.73,38.35,30.27,42a2.28,2.28,0,0,1-1.8,1.6A2.16,2.16,0,0,1,25.94,41c.36-2.1.79-4.18,1.19-6.27.22-1.05.44-2.1.68-3.15.08-.38,0-.54-.4-.67a10.48,10.48,0,0,0-7.5,0c-.37.13-.49.29-.4.67.24,1.05.45,2.1.68,3.15.39,2,.8,4.08,1.17,6.12a2.2,2.2,0,0,1-4.23,1.23c-.93-2.25-1.82-4.51-2.73-6.77-.09-.21-.2-.41-.3-.61-.32-.84-.57-1.71-1-2.52C12.37,30.68,12.4,29.32,13.78,28.14ZM17,18.88l-1.52,2.25c-.12.16-.26.32-.09.55.51.74,1,1.49,1.61,2.39Zm13.36,5.18,1.47-2.2c.12-.18.31-.34.12-.61-.52-.74-1-1.49-1.59-2.35Z"/><path class="cls-2" d="M13.78,28.14c-1.38,1.18-1.41,2.54-.65,4.08.4.81.65,1.68,1,2.52-1.75,0-3.5,0-5.26,0-.54,0-.69.16-.69.7A38.4,38.4,0,0,1,8,40.93,3.23,3.23,0,0,1,4.37,43.6a3.3,3.3,0,0,1-2.86-3.23q0-4.48,0-9a3.21,3.21,0,0,1,3.14-3.27C7.69,28.09,10.74,28.13,13.78,28.14Z"/><path class="cls-2" d="M33.22,34.74a25.16,25.16,0,0,1,1-2.59,3,3,0,0,0-.67-4c3,0,6,0,9.05,0a3.22,3.22,0,0,1,3.22,3.27c0,2.89,0,5.77,0,8.66a3.27,3.27,0,0,1-3.25,3.55,3.32,3.32,0,0,1-3.4-3.51c0-1.55,0-3.1,0-4.64,0-.54-.15-.71-.69-.7C36.72,34.78,35,34.75,33.22,34.74Z"/><path class="cls-2" d="M23.64,10.34a4.42,4.42,0,0,1-4.44-4.4,4.46,4.46,0,0,1,8.92,0A4.43,4.43,0,0,1,23.64,10.34Z"/><path class="cls-1" d="M5.89,14.81c0,.77,0,1.55,0,2.32a2.2,2.2,0,0,1-2.21,2.12,2.17,2.17,0,0,1-2.16-2.09q-.06-2.36,0-4.71a2.16,2.16,0,0,1,2.17-2.08,2.16,2.16,0,0,1,2.19,2.05c0,.79,0,1.59,0,2.39Z"/><path class="cls-1" d="M45.82,14.85c0,.78,0,1.55,0,2.32a2.18,2.18,0,0,1-4.36,0c-.05-1.59-.05-3.19,0-4.78a2.16,2.16,0,0,1,2.2-2,2.2,2.2,0,0,1,2.16,2,2,2,0,0,1,0,.23v2.24Z"/><path class="cls-1" d="M12.54,5.94c0,.77,0,1.54,0,2.31a2.14,2.14,0,0,1-2.21,2.1A2.11,2.11,0,0,1,8.17,8.28c-.05-1.57-.05-3.14,0-4.7a2.18,2.18,0,0,1,4.36,0c0,.8,0,1.6,0,2.4Z"/><path class="cls-1" d="M39.16,5.91c0,.8,0,1.6,0,2.39a2.18,2.18,0,0,1-4.36,0c0-1.59,0-3.19,0-4.78a2.19,2.19,0,0,1,4.36,0c0,.79,0,1.59,0,2.39Z"/><path class="cls-2" d="M20.19,34.77c-.23-1.05-.44-2.1-.68-3.15-.09-.38,0-.54.4-.67a10.48,10.48,0,0,1,7.5,0c.36.13.48.29.4.67-.24,1.05-.46,2.1-.68,3.15Z"/></g></g></svg>