<?xml version="1.0" encoding="UTF-8"?><svg id="a" xmlns="http://www.w3.org/2000/svg" viewBox="0 0 1080 1080"><defs><style>.n{fill:#fff;}.o{fill:none;}</style></defs><g id="b" transform="translate(31.056 135.053)"><path id="c" class="n" d="M1020.02,675.42c9.4-4.91,18.57-10.24,27.6-15.79,2.69-1.68,3.51-5.23,1.83-7.92-1.61-2.58-4.95-3.45-7.62-2-3.34,1.77-6.66,3.56-9.99,5.32,2.63-2.25,5.05-4.73,7.24-7.4l-.15-.15c8.41-7.53-2.39-21.76-11.96-15.56-8.21,6.48-17.14,11.98-26.62,16.38-20.05,8.5-42.16,9.91-63.68,10.16-7.74-.3-15.49,.48-23.02,2.29,3-12.02,10.49-21.1,14.47-32.74,2.94-11.76-14.03-19.76-20.04-8.46-1.48,2.78-2.88,5.58-4.26,8.4-12.99,11.82-34.69,10.78-47.8,23.48-6.93,6.5-11.38,15.22-12.56,24.65-.98,6.13,.54,12.27-3.16,17.7-17.91,25.34-46.21,65.39-60.58,93.28-10.18-66.27-37.35-148.23-65.41-208.83-8.89-19.61-20.26-38-33.84-54.72,1.58-5.48-4-15.2-7.54-12.21-10.91-13.34-30.21-16.79-45.73-23.43-21.31-9.61-38.1-27.07-46.86-48.75-10.98-40.32-38-45.44-75.49-43.66-35.84-.04-62.37,15.3-70.19,51.81-15.89,27.72-53.42,23.13-80.43,30.47-19.79,4.61-39,11.45-57.24,20.41-20.3-19.26-93.02,61.59-99.63,82.4,3.91,.76,7.76,1.66,11.59,2.77,1.45,.48,2.24,2.04,1.76,3.49-.44,1.35-1.84,2.15-3.23,1.83-4.26-1.01-8.58-1.75-12.93-2.23-.13,.43-.25,.83-.33,1.23l-1.46-.11c1.11,.57,2.16,1.26,3.13,2.05,2.45,2.03-.74,5.95-3.34,4.34-2.67-1.35-5.6-2.09-8.59-2.17-.17,6.04-21.71-.72-25.06-2.72-14.87-1.86-30.17,.13-44.05-7.04-18.47-3.91-37.07-8.19-55.34-13.15-4.83,1.88-9.38,8.63-5.54,13.58,1.07,1.09,1.04,2.85-.05,3.91-.88,.86-2.21,1.03-3.28,.43-9.01-5.82-16.58-13.61-22.15-22.79-2.81-2.84-7.82-2.23-11.6-3.41-.52,.9-.79,1.92-.8,2.96-16.04,2.64-4.6,20.17,3.47,25.62-4.28,2.79-4.44,8.25-4.06,12.8-.99,1.65-1.15,3.67-.43,5.45,3.02,6.95,9.55,12.81,14.5,18.44,5.06,6.41,10.76,12.28,17.02,17.52,25.69,18.87,55.85,30.74,87.51,34.44,11.17,1.74,27.23,4.34,34.14,13.79-1.98,11.09-4.53,22.07-7.64,32.9-3.95,14.51-3.68,29.7-3.73,44.5-.45-.4-1.14-.37-1.54,.08-.11,.12-.19,.26-.23,.41-.33,6.2-2.16,12.22-5.33,17.56-3.24,9.7-5.47,19.71-6.66,29.87-4.89,47.72-6.08,96.85,4.97,143.84,4.24,17.39,11.2,33.99,20.62,49.21,2.27,4,6.91,6.03,11.4,4.99,14.07,6.85,29.82,9.47,45.35,7.53,49.94-14.14,32.53,19.91,102.54,9.48,120.84-15.4,242.96,14.86,363.55-2.91,2.97,22.95,41.85,16.36,55.35,6.66,40.49-30.11,60.6-125.46,80.92-173.83,13.97-38.12,37.35-105.64,67.99-131.22,9.43-6.71,20.11-11.48,31.4-14.02,41.46-10.69,83.08-20.79,124.64-31.19,7.04-1.74,5.78-13.75-1.74-12.99-10.03,1.02-20.06,1.95-30.1,2.91Z"/><path id="d" d="M711.87,1042.89c-1.53-.02-2.97-.68-3.97-1.84-37.24-1.5-73.87-2.61-108.86-3.26-29.17-.56-59.4-.84-89.85-.84-33.87,0-69.22,.35-105.1,1.05-31.43,.61-64.37,1.49-97.9,2.61-4.69,.16-9.47,.33-14.09,.5h-.06c-11.17,.43-22.73,.84-34.1,1h-.47c-2.38,0-4.75-.22-7.09-.65-2.47-.43-4.88-1.16-7.18-2.17-2.15-.9-4.09-2.25-5.68-3.95-1.53-1.66-2.44-3.79-2.61-6.04v-.3c-1.1,.3-2.22,.54-3.35,.71-.2,.03-.4,.05-.61,.05-.29,0-.58-.03-.87-.1l-.23-.06c-3.22,.93-6.55,1.39-9.9,1.35-9.16-.48-18.21-2.16-26.93-5.01-1.64-.46-3.2-.89-4.72-1.3l-1.02-.27c-5.55-1.33-10.9-3.37-15.92-6.08-4.99-2.8-9.37-6.56-12.89-11.06-3.33-4.25-6.19-8.86-8.52-13.73-2.35-4.9-4.3-9.99-5.83-15.2-2.97-10.45-5.01-21.15-6.08-31.96-2.36-19.86-2.24-39.93,.36-59.75-1.12-16.27-.52-32.61,1.79-48.75,.96-8.41,2.01-16.17,3.22-23.71,.71-4.39,1.62-8.69,2.58-13.09,.13-.58,.24-1.16,.36-1.78h0c.24-1.19,.48-2.42,.8-3.62l.22-.77c-.28,.04-.56,.05-.84,.05-1.33-.02-2.63-.38-3.79-1.03-1.72-.96-3.05-2.48-3.77-4.32-.71-1.83-1.07-3.78-1.06-5.74,.05-11.12,.77-22.23,2.17-33.26v-.18l.25-2.35c1.3-12.12,3.04-23.94,5.24-35.15l.58-2.99c1.5-8.81,3.88-17.45,7.11-25.79-12.99-1.95-25.82-4.79-38.42-8.52-6.17-1.95-12.17-4.41-17.93-7.35-2.16-.34-4.29-.86-6.36-1.55h0c-.63-.2-1.3-.4-1.93-.58-4.13-1.21-8.25-2.64-12.29-4.27-8.34-3.27-16.35-7.32-23.94-12.09-6.11-3.88-11.83-8.34-17.1-13.32-5.26-4.98-9.97-10.51-14.04-16.5l-.56-.84c-2.27-3.42-4.22-7.05-5.81-10.83-1.83-3.73-2.48-7.94-1.86-12.05,.56-2.27,2.07-4.18,4.14-5.25-3.32-2.86-6.13-6.27-8.3-10.08-1.08-1.86-1.95-3.84-2.61-5.89-.6-1.83-.87-3.76-.82-5.68-.01-2.55,1.16-4.95,3.17-6.51,1.97-1.36,4.34-2.05,6.73-1.95,3.35,0,6.62,.97,9.44,2.78,3.91,2.9,7.37,6.36,10.26,10.28l.28,.35c3.32,4.08,6.95,8.13,11.14,12.38,1.04,1.06,2.1,2.09,3.14,3.08l1.07,1c-.17-.4-.32-.81-.43-1.21-1.06-3.46-.98-7.18,.24-10.59,1.12-3.45,3.6-6.29,6.87-7.87,1.43-.65,2.98-.99,4.56-.97,2.67,.12,5.3,.74,7.75,1.83l.61,.25c5.32,2.23,10.76,4.15,16.3,5.74,8.08,2.22,16.3,3.93,24.59,5.14,8.28,1.26,16.76,2.2,24.97,3.11,6.56,.73,13.34,1.48,19.98,2.39,9.08,1.18,18.09,2.89,26.97,5.12,1.81-7.32,4.58-14.36,8.25-20.95,3.62-6.57,7.8-12.82,12.49-18.67,5.33-6.69,11.17-12.96,17.46-18.75,6.19-5.68,12.77-10.92,19.69-15.69,6.91-4.75,14.09-9.09,21.51-12.99,7.17-3.77,14.89-7.34,22.96-10.62,15.82-6.32,32.06-11.53,48.6-15.59,14.33-3.61,30.05-6.91,49.51-10.39,.37-.07,.74-.1,1.12-.1,2.43,.22,4.75,1.15,6.67,2.67l.6,.4,.04,.03c1.36,1.15,2.99,1.93,4.75,2.24,.4,0,.8-.09,1.16-.29,6.52-3.66,12.4-8.37,17.4-13.94,7.38-8.37,14.05-17.34,19.92-26.83,2.44-3.7,4.95-7.53,7.55-11.25,1.14-1.73,3.08-2.77,5.15-2.76,1.16,0,2.3,.3,3.32,.87,.99,.55,1.82,1.35,2.39,2.34,.99,1.81,.88,4.02-.29,5.72l-2.02,3.34c-3.77,6.21-8.32,13.46-13.39,20.36-4.72,6.56-10.12,12.62-16.1,18.05-3.13,2.8-6.51,5.31-10.08,7.51-3.59,2.19-7.4,3.99-11.37,5.36-4.72,1.67-9.67,2.6-14.67,2.74-2.25,.03-4.5-.27-6.67-.9l-.8-1.17,.8,1.17c8.74,12.53,18.46,24.34,29.07,35.32,9.4,9.85,19.98,19.86,33.28,31.51,23.55,20.06,48.12,38.9,73.61,56.42l2.1,1.49c41.37-30.15,75.6-69.03,100.25-113.89-4.52-.93-8.82-2.72-12.66-5.27l-.04-.03c-.63-.36-1.23-.71-1.83-1.04-5.35-2.8-10.12-6.6-14.06-11.18-1.58-1.93-2.91-4.06-3.94-6.34-.99-2.2-1.76-4.5-2.29-6.85-.99-4.8-1.61-9.67-1.85-14.57-.2-2.67-.41-5.42-.73-8.09-.03-.18,.03-.37,.15-.51,.17-.18,.41-.27,.66-.26,.21,0,.42,.06,.59,.19,3.59,3.62,6.11,8.16,7.28,13.12,.25,.73,.5,1.48,.76,2.21,1.66,5.71,4.86,10.86,9.26,14.87,4.64,3.73,9.75,6.82,15.2,9.22,.83,.39,2.68,.98,4.82,1.66h0c5.03,1.6,11.93,3.8,13.01,5.72,4.43-1.04,8.97-1.57,13.52-1.57,9.23,.07,18.35,2.1,26.73,5.95,8.57,3.91,16.45,9.19,23.32,15.63,8.34,7.85,15.77,16.6,22.18,26.1,6.43,9.48,12.36,19.29,17.75,29.39,11.45,21.21,21.24,43.28,29.27,66.01,4.27,11.88,7.93,23.65,10.86,34.99,3.08,11.82,5.51,23.81,7.27,35.9,2.68,18.62,4.63,38.87,5.93,61.93l.14,2.61c16.78-26.34,34.67-53.52,53.2-80.78-1.95-5.24-2.07-10.98-.36-16.31,1.75-5.39,4.67-10.32,8.54-14.45,3.7-3.96,8.01-7.31,12.76-9.92,4.74-2.59,9.62-4.93,14.61-7.02,1.42-.63,2.89-1.27,4.34-1.92l1.49-.67c5.54-2.35,10.78-5.35,15.6-8.95,2.02-1.68,3.91-3.5,5.67-5.45,2.09-2.37,4.42-4.52,6.95-6.41,2.7-1.81,5.87-2.78,9.12-2.77,2.63-.08,5.21,.72,7.34,2.26,1.02,.79,1.84,1.8,2.4,2.96,.63,1.34,.97,2.81,.99,4.29,.02,3.02-.45,6.02-1.38,8.89-.9,2.88-1.98,5.7-3.21,8.45-1.29,2.92-2.79,5.74-4.51,8.43-1.72,2.69-3.62,5.26-5.68,7.69-.18,.21-.38,.4-.61,.55l-.16,.1c5.73,1,11.51,1.66,17.32,1.97,2.23,.1,4.49,.16,6.71,.16,9.63,.02,19.24-.98,28.66-2.98,11.87-2.52,23.32-6.72,34-12.48,2.14-1.16,4.28-2.42,6.34-3.64,3.36-1.98,6.83-4.03,10.38-5.68,3.54-1.71,7.3-2.9,11.18-3.52,.9-.14,1.85-.23,2.91-.3h.11c.91,.05,1.73,.54,2.21,1.3,.47,.63,.59,1.46,.33,2.21-.38,.96-.76,1.83-1.15,2.69-1.84,4.04-4.09,7.88-6.73,11.45-2.67,3.64-5.75,6.96-9.18,9.89l-.53,.43c2.45-.87,4.86-1.8,7.13-2.83,4.96-2.24,9.84-4.93,14.56-7.53,8.27-5.03,17.14-8.99,26.41-11.79,.62-.17,1.3-.33,2.11-.5,.38-.08,.76-.12,1.15-.13,1.62-.03,3.11,.89,3.8,2.35,.79,1.7,.53,3.7-.66,5.15-.5,.64-.92,1.16-1.3,1.63-6.56,8.18-13.87,15.74-21.84,22.56-2.74,2.33-5.59,4.6-8.45,6.75,8.59-2.61,17.55-5.82,26.63-9.55,.5-.21,1.04-.32,1.58-.33,1.32,.05,2.55,.69,3.35,1.74,.85,1.02,1.39,2.25,1.58,3.56,.28,2.27-.08,4.58-1.03,6.66-.99,2.12-2.34,4.05-3.98,5.72-3.39,3.3-7.13,6.23-11.15,8.72l-.3,.2c-7.05,4.59-14.63,8.3-22.58,11.05-15.27,5.01-31.02,8.41-46.99,10.15l-7.72,1.08c-7.38,1.03-15.2,2.17-22.99,3.64-7.59,1.39-15.09,3.28-22.44,5.65-7.26,2.32-14.24,5.44-20.82,9.28-3.3,1.95-6.47,4.13-9.47,6.51-3.09,2.47-6,5.17-8.69,8.08-12.42,13.46-20.75,30.2-28.2,46.18-6.6,14.14-12.95,29.49-20.6,49.78-4.59,12.16-8.84,24.71-12.95,36.83-1.74,5.19-3.57,10.55-5.4,15.82-5.6,16.18-12.33,32.25-18.84,47.77l-1.04,2.49c-6.86,16.65-14.72,32.87-23.54,48.56-4.53,7.97-9.31,15.63-14.21,22.8-5.17,7.56-10.66,14.83-16.32,21.61-.72,.97-1.84,1.55-3.04,1.58-.84-.01-1.65-.29-2.32-.79-.72-.52-1.29-1.21-1.68-2.01-.4-.81-.58-1.71-.53-2.61,.07-.98,.43-1.92,1.05-2.69,6.09-7.89,11.75-16.09,16.98-24.57,5-8.1,9.92-16.9,14.61-26.15,4.34-8.54,8.47-17.43,12.66-27.2,3.69-8.59,7.33-17.65,11.13-27.7,3.62-9.55,6.95-19.42,10.19-28.95h0c2.46-7.26,5-14.77,7.65-22.09l3.65-10.07c4.63-12.76,9.64-26.45,14.9-40.13,6.41-16.89,13.68-33.43,21.77-49.58l.87-1.69c3.96-7.85,8.42-15.44,13.36-22.71,4.92-7.28,10.68-13.95,17.17-19.88,2.89-2.6,5.95-5.01,9.16-7.21,3.14-2.15,6.41-4.12,9.78-5.88,6.73-3.48,13.77-6.32,21.04-8.47,14.75-4.1,29.81-7,45.04-8.69l9.51-1.26c12.82-1.47,25.53-3.81,38.04-7,7.19-1.88,14.16-4.55,20.77-7.95,2.63-1.38,5.19-2.9,7.66-4.54-7.08,2.08-14.26,3.78-21.52,5.1-3.5,.64-7.07,1.14-10.63,1.48-4.86,.48-9.86,.72-15.31,.72-3.75,0-7.69-.11-12.06-.34-.4-.04-.71-.37-.73-.77-.04-.33,.19-.63,.52-.67,5.78-1.03,11.95-2.35,19.41-4.15l1.94-.47c.07-1.22,.55-2.37,1.34-3.3,2.51-2.57,5.51-4.62,8.81-6.04,1.62-.8,3.2-1.68,4.73-2.64,4.43-2.89,8.71-6.01,12.82-9.35,3.65-2.97,7.28-6.23,10.8-9.66l.1-.1-.05,.05-.05,.05c-3.39,1.56-6.77,3.32-10.04,5.02-5.77,3.17-11.76,5.93-17.91,8.25-7.77,2.77-15.87,4.52-24.09,5.21l-.51,.04-.51,.03c-2.5,.18-5.03,.29-7.48,.39-6.08,.08-12.15,.7-18.13,1.83-.07,.01-.14,.02-.2,.02-.33,0-.62-.23-.67-.56-.07-.37,.13-.73,.48-.87,6.55-2.47,13.36-4.22,20.29-5.21h.06l2.42-.43c.19-.67,.67-1.22,1.3-1.5l1.98-.95c5.94-2.56,11.44-6.03,16.3-10.3,4.33-4.05,7.93-8.82,10.64-14.09-6.95,1.98-13.54,5.09-19.49,9.19-3.46,2.2-7.04,4.2-10.71,6.02-10.73,5.05-22.09,8.65-33.77,10.71l-1.33,.23c-7.83,1.32-15.76,2-23.7,2.02-7.7,.05-15.38-.73-22.92-2.31-7.35-1.52-14.42-4.18-20.95-7.88-.23-.12-.35-.38-.28-.63,.08-.29,.34-.48,.64-.49h.1c3.29,.54,6.62,1.15,9.84,1.74h.04c2.17,.4,4.43,.81,6.64,1.19-.55-.5-.91-1.18-1.02-1.92-.11-.82,.15-1.64,.71-2.24,4.96-5.61,8.8-12.12,11.32-19.17l.48-1.38,.16-.43v-.02c.69-1.82,1.23-3.69,1.61-5.6,.46-1.77,.22-3.65-.67-5.25-1.13-1.47-2.93-2.28-4.78-2.14-1.46,.01-2.9,.32-4.23,.9-3.41,1.87-6.41,4.41-8.82,7.46-1.56,1.8-3.25,3.48-5.06,5.03-5.17,3.97-10.8,7.29-16.78,9.88l-1.25,.57c-1.62,.73-3.28,1.45-4.89,2.15-8.96,3.23-17.21,8.14-24.32,14.47-2.21,2.2-4.16,4.66-5.81,7.32-1.65,2.66-2.82,5.58-3.47,8.63-.6,2.8-.54,5.71,.18,8.48,.18,.6,.39,1.2,.64,1.78,.68,1.2,.85,2.62,.49,3.95-.99,2.24-2.32,4.31-3.94,6.14-.75,.96-1.46,1.86-2.02,2.68-1.98,2.94-3.99,5.94-5.93,8.83-3.32,4.98-6.69,10.05-9.95,14.95l-.06,.09-1.77,2.66c-7.51,11.33-15.13,22.98-23.28,35.61-2.51,3.88-5.02,7.82-7.48,11.65l-3.72,5.83-1.6,2.5-.36,.57-.29,.46-1.52,2.39-1.54,2.42c.12,.48,.11,.98-.05,1.45-.53,1.5-1.59,2.77-2.97,3.55l-.24,.14c-12.07,19.11-24.22,38.57-35.97,57.4l-.09,.15c-7.28,11.67-14.81,23.75-22.24,35.61-1.16,10.61-2.09,19.9-2.85,28.43-2.06,23.02-3.25,44.14-3.65,64.52-.15,7.61,.26,15.38,.66,22.89v.03c.15,2.76,.3,5.62,.43,8.42,.23,5.05,.53,10.06,.92,14.9l.29,3.52c.69,4.77,.31,9.64-1.13,14.24-.4,1.11-1.13,2.07-2.08,2.76-.86,.61-1.88,.93-2.93,.94ZM168.21,683.51c3.51,.09,6.95,1.03,10.03,2.73,2.73,1.52,5.07,3.65,6.84,6.22,1.03,.93,1.72,2.17,1.96,3.54,.88,2.03,1.46,4.18,1.74,6.38,.19,1.08-.1,2.19-.79,3.04,.77,14.4-.36,28.85-3.34,42.96-2.98,14.17-6.76,28.15-11.33,41.89l-.87,2.7-.56,1.71c-1.74,5.36-3.57,10.78-5.32,16.03h0c-3.91,11.64-7.93,23.68-11.41,35.65-3.56,11.96-6.37,24.13-8.43,36.43-3.07,20.35-3.33,41.03-.76,61.46l.17,1.4c1.08,9.99,3.03,19.86,5.83,29.51,1.44,4.83,3.26,9.55,5.43,14.1,2.14,4.47,4.76,8.69,7.82,12.59,2.82,3.63,6.33,6.68,10.31,8.97,4.01,2.2,8.28,3.87,12.72,4.96l.52,.14c2.38,.63,4.82,1.34,7.18,2.03h0c6.18,2,12.52,3.46,18.95,4.37,.97,.1,1.94,.16,2.91,.16,6.13-.34,12.13-1.86,17.68-4.46l1.77-.69h0c7.53-6.85,13.55-15.19,17.71-24.48,4.25-9.43,7.6-19.25,9.99-29.31,3.32-12.96,5.78-26.12,7.38-39.41,1.6-13.23,2.46-26.53,2.61-39.85,.13-26.72-1.81-53.41-5.82-79.83-3.94-27.36-9.37-54.9-14.62-81.55l-.17-.84c-.8-4.08-1.64-8.23-2.45-12.24h0c-1.9-9.43-3.87-19.18-5.56-28.81l-1.43-8.08c-.71-4.01-1.52-8.76-2.21-13.5-.84-5.79-1.12-11.39-1.41-17.31l-.04-.82c-7.57-12.3-18.11-22.5-30.64-29.67-8.82-5.05-18.29-8.9-28.13-11.43-15.86-3.81-32-6.36-48.26-7.61-12.63-1.3-25.7-2.65-38.07-5.21-9.32-1.98-18.46-4.74-27.32-8.25l-1.22-.47c-1.67-.73-3.46-1.16-5.28-1.27-2.3-.05-4.36,1.43-5.04,3.62-.69,1.63-.89,3.42-.56,5.16,.35,1.73,1.09,3.36,2.17,4.75,2.89,3.52,6.59,6.29,10.79,8.05,4.18,1.86,8.48,3.44,12.88,4.73l.43,.14c4.86,1.54,9.81,2.77,14.82,3.67,1.52,.27,3.04,.49,4.54,.7,3.5,.37,6.96,1.11,10.3,2.21,.97,.38,1.58,1.34,1.53,2.38-.04,.87-.67,1.6-1.53,1.76-1.93,.44-3.9,.66-5.88,.64-4.12-.14-8.22-.67-12.24-1.59l-.15-.03c-6.66-1.32-13.2-3.17-19.57-5.53-1.38-.51-2.53-.95-3.63-1.38l-.93-.37c.87,.64,1.84,1.3,2.9,2.08,.11,.09,.16,.24,.11,.37-.03,.12-.13,.2-.25,.2-.03,0-.07,0-.1,0-7.55-2.86-14.69-6.7-21.23-11.42-6.56-4.71-12.58-10.14-17.92-16.2l-.53-.6c-.57-.65-1.23-1.49-2.01-2.46-2.05-2.69-4.29-5.22-6.72-7.58-2.06-2.32-4.91-3.8-7.99-4.14-.91,0-1.8,.22-2.61,.63-1.01,.46-1.74,1.37-1.97,2.45-.19,1.4,.02,2.83,.6,4.12,.69,1.7,1.56,3.33,2.58,4.86,2.12,3.14,4.42,6.17,6.88,9.05l.96,1.17,.5,.62c2.42,.13,4.78,.76,6.95,1.84,2.18,1.06,4.29,2.25,6.33,3.57l.43,.26c6.97,4.25,14.18,8.08,21.6,11.48,6.77,3.18,13.85,5.98,20.7,8.69,8.02,3.17,16.31,6.44,24.15,10.36,.07,.03,.11,.1,.09,.17-.02,.09-.1,.15-.2,.15h-.03c-9.28-1.54-18.43-3.8-27.36-6.77l-.4-.13-.4-.13c-5.25-1.74-10.66-3.73-16.52-6.12-6.03-2.45-11.92-5.24-17.63-8.35-1.53-.84-3.09-1.85-4.73-2.93-3.59-2.78-7.75-4.74-12.19-5.74-.36-.05-.73-.07-1.09-.07-.21,0-.43,0-.61,.03-1.17,0-2.26,.63-2.84,1.65-1.93,3.65,2.64,12.1,3.57,13.76,3.15,5.59,6.94,10.8,11.29,15.51,8.92,9.49,19.46,17.33,31.13,23.13,3.69,1.88,7.65,3.66,12.11,5.43-.69-.61-1.37-1.25-1.89-1.74-2.48-2.34-4.78-4.86-6.89-7.53-2.11-2.68-3.99-5.53-5.62-8.52l-.87-1.62c-1.52-2.65-2.58-5.53-3.14-8.53-.22-1.39-.07-2.82,.43-4.13,.62-1.42,1.69-2.59,3.04-3.33,1.75-1.01,3.73-1.52,5.75-1.48,2.21,.05,4.4,.44,6.49,1.17,.22,.07,.43,.15,.66,.22l.13,.05c1.55,.54,3.25,1.25,5.19,2.15,4.93,2.43,9.66,5.25,14.15,8.43,1.66,1.11,3.38,2.26,5.09,3.36,3.29,2.12,6.76,3.94,10.38,5.44,3.61,1.47,7.35,2.59,11.17,3.37l.75,.15c.76,.15,1.53,.3,2.27,.43,6.76,1.28,13.74,2.61,18.4,8.09,.58,.74,.7,1.75,.3,2.61-.29,.7-.97,1.17-1.74,1.17-.25,0-.49-.04-.72-.13-5.02-1.69-10.23-2.94-15.26-4.16-4.64-1.12-9.44-2.27-14.04-3.76-4.66-1.45-9.15-3.44-13.35-5.92-2.3-1.39-4.58-2.88-6.78-4.34h0c-3.04-1.98-6.16-4.04-9.38-5.84-2.93-1.7-6.03-3.07-9.25-4.09l-1.78-.53c-.74-.25-1.52-.39-2.3-.43-.28,0-.56,.03-.82,.12-.41,.09-.76,.34-.99,.69-.21,.43,0,1.01,.24,1.74h0c.05,.14,.1,.29,.15,.43l.05,.15c4.38,13.55,17.59,23.72,25.08,28.57,2.25,1.46,4.66,2.88,7.17,4.21,7.12,3.71,14.55,6.78,22.21,9.19,7.64,2.48,15.6,4.56,23.29,6.57h.04c2.5,.65,5.09,1.33,7.62,2.01,.1,.03,10.56,2.95,13.98,4.03,.4,.04,.79,.02,1.19,.02Zm604.57,107.99c-.19,.04-.37,.1-.54,.14h-.04c-3.67,1.03-7.43,1.96-11.07,2.87-1.41,.35-3.01,.75-4.55,1.14-8.99,2.06-17.77,4.99-26.2,8.74-1.52,19.25-3.72,38.76-5.85,57.63h0c-.3,2.69-.65,5.73-.98,8.69l-.5,4.42c4.2-7.78,8.04-14.64,11.75-20.95,12.22-20.77,24.99-41.85,37.97-62.67h0Zm-622.15,2.19c-.03,1.89-.2,3.78-.52,5.65-.11,.78-.21,1.51-.3,2.24-.23,1.95-.43,3.94-.64,5.86v.02c-.22,2.12-.43,4.32-.71,6.47-1.07,8.95-1.88,17.07-2.45,24.83-.4,5.42-.66,10.86-.87,15.93,4.37-16.35,10.02-32.64,15.49-48.41l.02-.07c1.03-2.97,2.09-6.04,3.14-9.06-1.14-.14-2.27-.37-3.37-.69l-1.95-.53-.39-.1h0c-1.44-.34-4.77-1.19-7.46-2.14Zm886.74-118.52l-.43,.3,.43-.3Zm2.72-1.97l-.77,.57,.77-.57Zm-254.84,108.54h0l.07-.11,.07-.11,1.52-2.39,.5-.79,.16-.24,1.6-2.5,.04,.87c.11,1.31-.28,2.6-1.09,3.63-.74,.87-1.75,1.45-2.87,1.65h0ZM218.8,642.39c-2.91-.41-5.67-1.54-8.03-3.29-1.36-.88-2.8-1.64-4.28-2.29-10.42-4.1-21.78-5.2-32.79-3.17-3.59,.66-7.12,1.65-10.52,2.97-.06,.02-.11,.03-.17,.03-.23-.02-.41-.18-.46-.41-.07-.22,.03-.45,.23-.56,4.05-2.22,8.36-3.93,12.82-5.12,4.44-1.17,9.02-1.77,13.61-1.77,1.55,0,3.13,.07,4.68,.21,5.47,.45,10.85,1.69,15.96,3.67l.5,.2,.83,.31c2.02,.7,3.97,1.59,5.83,2.64,1.81,.92,3.2,2.49,3.91,4.39,.15,.46,.08,.96-.2,1.35-.34,.48-.88,.79-1.46,.83-.15,0-.3,.02-.45,.02Z"/></g><g id="e" transform="translate(78.592 38.043)"><path id="f" class="n" d="M515.45,63.12c52.11,0,119.34,32.69,125.07,66.18,6.76,39.46,42.95,190.87,34.77,239.42-8.17,48.55-52.22,83.52-122.66,83.52s-123.05-38.46-135.13-51.65c-12.08-13.2-34.46-60.33-34.46-60.33,0,0-37.73-5.02-37.91-35.78-.51-17.53,9.01-33.81,24.54-41.96,0,0-8.81-121.41,13.38-153.02,22.18-31.61,80.31-46.37,132.4-46.37Z"/><path id="g" d="M555.67,458.55c-3.47,0-6.95-.12-10.34-.36-7.1-.5-14.16-1.49-21.12-2.97l-.77-.17c-7.07-1.52-13.22-3.33-16.94-9.91-.55-1.06-.64-2.3-.26-3.43,.25-.85,.86-1.55,1.66-1.93,2.53-1.23,5.3-1.89,8.11-1.95,.79,0,1.58,.05,2.36,.14,2.41,.32,4.79,.79,7.15,1.39,1.41,.33,2.87,.67,4.3,.95,7.31,1.36,14.72,2.11,22.15,2.25,1.08,.02,2.17,.03,3.24,.03,13.52,.06,26.97-1.92,39.89-5.89,15.97-4.99,45.3-17.24,62.27-43.19,15.26-23.34,10.82-50.81,6.51-77.4v-.03c-.33-2.01-.66-4.09-.98-6.11l-.13-.84c-5.21-33.47-9.34-60.57-13.03-85.28l-1.81-12.19c-.96-6.48-1.9-12.59-2.81-18.47h0c-3.99-22.91-6.58-46.03-7.78-69.26-.01-.15,.04-.3,.14-.41,.25-.24,.66-.24,.9,.02,.06,.06,.11,.14,.14,.22,5.65,18.67,10.17,35.12,14.21,51.74,3.87,15.91,7.45,32.57,11.25,52.44l2.17,11.2,.92,4.78c5.36,27.84,10.91,56.63,15.56,85.06l.29,1.79c1.3,7.74,2.13,15.55,2.48,23.39,.35,7.84-.21,15.7-1.68,23.42-1.49,7.26-4.12,14.25-7.77,20.71-3.63,6.48-8.08,12.47-13.24,17.81-10,10.24-21.65,18.73-34.46,25.11-12.77,6.43-26.35,11.14-40.36,14-10.6,2.22-21.4,3.34-32.24,3.37Zm-117.1-40.6c-1.91-.03-3.8-.46-5.53-1.27-1.76-.81-3.44-1.79-5-2.94l-.26-.19c-7.97-5.63-15.22-12.22-21.58-19.63-6.14-7.25-11.3-15.28-15.33-23.89-4-8.6-6.92-17.66-8.69-26.98-.83,2.02-2.31,3.71-4.21,4.8-2.07,1.1-4.39,1.65-6.73,1.59-1.35,0-2.69-.13-4.02-.37-3.54-.61-6.92-1.98-9.88-4.01-2.95-2.02-5.5-4.56-7.52-7.51-3.89-6.35-6.23-13.53-6.82-20.95-1.13-7.27-1.28-14.66-.47-21.97,.62-5.26,2.14-10.37,4.47-15.12,2.24-4.64,5.65-8.62,9.88-11.56-3.13-6.99-5.19-14.41-6.13-22.01-.95-7.63-1.27-15.33-.96-23.02,.74-15.06,2.31-30.07,4.7-44.97,.54-3.83,1.11-7.82,1.62-11.68l7.12-53.16,.29-2.14c.77-5.6,1.74-12.21,3.14-18.7,1.27-6.19,3.06-12.27,5.35-18.16,2.25-5.78,5.23-11.26,8.87-16.28,3.65-5.02,8.16-9.35,13.33-12.8,2.89-1.9,5.97-3.5,9.19-4.78,3.22-1.25,6.53-2.24,9.91-2.96,6.79-1.4,13.72-2.06,20.65-1.98h1.09l1.74,.02c12.05,.19,57.26,1.23,93.6,2.07,18.05,.43,35.1,.81,45.17,1.03l7.21,.15c4.86,.09,12.34,.19,19.58,.28,7,.09,14.23,.18,19.11,.27h.57l4.57,.09h0c3.28,.05,6.67,.1,9.99,.21l.73,.02c3.48-.16,6.88,1.01,9.53,3.27,1.4,1.34,2.1,3.26,1.89,5.19v.25l7.22,.63c2.19,.12,4.18,1.29,5.35,3.14,1.06,1.89,1.13,4.18,.2,6.14l-.1,.22c-2.81,8.41-4.79,17.07-5.92,25.86-.77,4.5-1.44,8.38-2.03,10.94-1,4.18-1.73,8.42-2.21,12.69-.06,.5-.1,1.02-.15,1.51-.03,2.86-.76,5.66-2.12,8.17-.9,1.4-2.15,2.53-3.63,3.29-1.42,.74-2.99,1.13-4.59,1.13-1.81,.04-3.57-.58-4.95-1.74-1.48-1.39-2.3-3.35-2.25-5.38-.01-.28,0-.55,.03-.83-12.36-.54-26.76-.83-41.63-.83-19.39,0-38.36,.5-53.42,1.4-26.37,1.6-52.58,5.15-78.43,10.64-6.55,1.39-13.13,2.92-19.54,4.54-1.3,.33-2.67,.62-4.1,.93-4.35,.68-8.57,2.06-12.49,4.08-5.35,3.25-5.21,9.21-4.64,14.54,.34,3.19,.8,3.74,1.39,4.45,.88,1.07,1.48,2.35,1.74,3.71l.09,.34c1.46,5.8,3.43,11.47,5.86,16.94,.3,.66,.64,1.3,.98,1.96,1.55,2.25,2.21,4.99,1.85,7.7-.68,2.13-1.89,4.05-3.53,5.56-3.04,2.45-6.72,3.96-10.61,4.34-4.78,.95-9.28,1.84-11.78,6.69-4.38,8.48-4.78,19.59-5.16,29.41-.03,.75-.06,1.49-.08,2.22l-.03,.59c-.29,6.97-.21,13.94,.25,20.9,.1,1.59,.29,3.2,.47,4.75,.32,2.33,.5,4.68,.55,7.03,.04,2.35-.32,4.69-1.08,6.91-.37,1.1-1.06,2.06-1.99,2.74-.84,.6-1.84,.92-2.87,.92-1.82-.04-3.52-.93-4.57-2.42-.29-.39-.57-.8-.87-1.26l-.26-.43h0c.24,.38,.47,.78,.73,1.24,.08,.15,.08,.33,0,.47-.09,.15-.26,.25-.43,.25-.12,0-.23-.06-.31-.15-2.73-3.06-6.65-4.8-10.75-4.78-4.33,.15-8.53,1.56-12.06,4.06-8.85,5.98-10.31,17.83-10.52,22.64-.73,9.79,.73,19.63,4.28,28.78,1.28,3.79,4.1,6.86,7.77,8.44,1.28,.4,2.62,.61,3.96,.61,.43,0,.87,.04,1.3,.08,.86,.1,1.72,.26,2.55,.48,1.02,.28,2.06,.45,3.12,.51h.56c1.18,.05,2.28,.65,2.95,1.62,.73,.91,.99,2.12,.7,3.25l-.05,.15c-.03,.1-.07,.2-.11,.32,.11,.09,.19,.2,.25,.33,7.17,14.11,16.29,27.13,27.09,38.69,5.33,5.86,11.12,11.3,17.29,16.27,3.02,2.55,6.23,4.87,9.59,6.95,1.07,.63,2.21,1.12,3.4,1.45,.25,.07,.53,.13,.79,.18,.35,.06,.7,.15,1.04,.26l.59,.2h0l.1,.03c1.73,.19,3.18,1.4,3.67,3.07,.68,1.94,.52,4.07-.43,5.88-1.14,1.99-3.05,3.43-5.28,3.98-.94,.25-1.91,.38-2.89,.37Zm-50.64-99.74c-1.4,.02-2.77-.39-3.93-1.18-1.27-.93-2.18-2.29-2.54-3.82l-.08-.3c-2.22-7.82-8.75-13.67-16.76-15.03-.37-.07-.66-.35-.73-.73-.05-.27,.11-.54,.36-.64,6.96-3.47,15.24-3.04,21.8,1.15,3.74,2.37,6.83,5.62,9,9.48,1.41,2.1,1.51,4.82,.27,7.02-1.6,2.53-4.39,4.06-7.38,4.05Z"/></g><g id="h" transform="translate(112.183 77.354)"><path id="i" d="M587,388.54c-4.55-.01-9.05-.91-13.25-2.65-3.09-1.26-6-2.94-8.65-4.97-2.66-2.04-5.03-4.43-7.04-7.1-1.25-1.59-1.79-3.64-1.47-5.65,.37-2.04,1.5-3.86,3.16-5.09,1.33-1.02,2.96-1.59,4.63-1.62,.35,0,.69,.03,1.03,.08,1.96,.34,3.7,1.49,4.78,3.17l.28,.39c2.36,3.24,5.48,5.86,9.08,7.63,2.8,1.37,5.87,2.09,8.99,2.1,.74,0,1.49-.04,2.23-.13,7.17-1.16,13.67-4.89,18.28-10.49,.6-.61,1.23-1.28,2.06-2.17,.41-.62,1.01-1.07,1.71-1.3,.36-.12,.73-.18,1.11-.18,1.24,0,2.39,.61,3.1,1.62,.45,.67,.66,1.47,.59,2.28-.66,5.76-3.43,11.06-7.77,14.9-2.39,2.24-5.09,4.12-8.02,5.59-2.81,1.43-5.81,2.45-8.9,3.04-1.95,.36-3.93,.54-5.91,.55Zm9.33-52.85h0c-3.92-.06-7.79-.84-11.42-2.3-4.8-1.93-9.32-4.49-13.43-7.63-.96-.74-1.62-1.8-1.88-2.98-.22-1.12-.13-2.28,.26-3.35,.45-1.27,1.23-2.4,2.26-3.27,.98-.86,2.23-1.35,3.53-1.38,.97,0,1.92,.3,2.73,.84l.91,.7h0c4.67,3.61,11.73,9.06,18.49,9.06,3.14,0,6.13-1.32,8.23-3.65,2.15-2.78,2.99-6.35,2.31-9.79-1.56-7.61-9.84-13.17-12.34-14.69-.76-.65-1.02-1.72-.63-2.65,.46-1.44,1.82-2.41,3.34-2.38,.26,0,.53,.02,.79,.07,3.09,.49,6.07,1.57,8.76,3.17,2.31,1.39,4.32,3.24,5.89,5.44,2.93,4.21,4.26,9.32,3.76,14.43-.41,5.27-2.63,10.25-6.27,14.08-4.01,4.12-9.54,6.39-15.29,6.28Zm-74.32-51.61c-1.8-.03-3.52-.71-4.86-1.91-1.44-1.25-2.35-3-2.55-4.9-.53-4.78-.43-9.61,.29-14.37,.17-1.39,.35-2.84,.48-4.39,.17-2.42,1.35-4.65,3.26-6.15,1.76-1.39,3.93-2.16,6.17-2.17,1.68-.04,3.32,.48,4.67,1.47,1.43,1.13,2.36,2.78,2.58,4.59,1.23,8.14-.18,16.47-4.02,23.75-1.02,2.43-3.38,4.03-6.01,4.07Zm109.09-3.26c-1.96,.07-3.84-.74-5.14-2.2-2.68-3.37-4.33-7.44-4.73-11.73-.69-4.26,.69-8.59,3.7-11.67,.18-.31,.38-.62,.59-.9,1.45-2.18,3.84-3.55,6.46-3.72,.66,0,1.33,.1,1.96,.29,2.85,.75,5.18,2.79,6.31,5.51,1.25,3.41,1.52,7.1,.78,10.65-.57,3.49-1.66,6.88-3.23,10.05-.63,1.18-1.6,2.15-2.79,2.76-1.21,.63-2.55,.96-3.91,.96h0Zm-142.01-34.23c-.41-.02-.79-.25-.99-.61-.25-.39-.28-.88-.08-1.3,2.57-4.87,6.01-9.22,10.15-12.85,4.11-3.68,8.68-6.8,13.6-9.28,5.07-2.66,10.51-4.56,16.13-5.65l1.74-.3c2.31-.44,4.65-.69,7-.75,3.23-.27,6.42,.92,8.69,3.24,1.24,1.46,1.86,3.34,1.74,5.25-.08,1.33-.71,2.58-1.74,3.43-2.62,2-5.89,2.96-9.17,2.69-.72,0-1.47,0-2.17-.03h-.06c-.69,0-1.48-.04-2.26-.04s-1.36,0-1.96,.05c-4.62,.26-9.2,1.04-13.65,2.33-9.45,3.1-18.33,7.7-26.32,13.62-.19,.13-.41,.2-.63,.21Zm166.1-6.95h0l-.73-.18c-2.76-.75-5.42-1.79-7.96-3.09l-2.61-1.27c-2.98-1.53-6.06-2.84-9.22-3.94-6.84-2.24-13.89-3.8-21.04-4.65-1.52-.15-2.98-.7-4.22-1.6-1.18-.89-2.02-2.16-2.36-3.6-.57-1.83-.3-3.81,.74-5.42,.77-1.3,1.94-2.3,3.33-2.87,.9-.36,1.87-.55,2.84-.54,.55,0,1.1,.06,1.64,.17l1.3,.27c7.86,1.49,15.49,3.97,22.72,7.38,3.6,1.75,6.96,3.96,9.99,6.58,2.94,2.54,5.34,5.64,7.07,9.12,.25,1.91,0,2.38-.24,2.7l-.05,.1-.07,.09c-.27,.39-.67,.65-1.13,.75h0Z"/></g><g id="j" transform="translate(104.577 109.479)"><rect id="k" class="o" x="406.22" y="304.28" width="256.9" height="211.11"/></g><g id="l" transform="translate(88.521 88.978)"><rect id="m" class="o" x="336.5" y="215.24" width="359.66" height="126.66"/></g></svg>