<svg xmlns="http://www.w3.org/2000/svg" viewBox="0 0 298.3 228.81"><defs><style>.cls-1{fill:#fff;}.cls-2{fill:none;}</style></defs><g id="Livello_2" data-name="Livello 2"><g id="Livello_1-2" data-name="Livello 1"><g id="Turtleneck-2"><path id="_Background-3" data-name=" Background-3" class="cls-1" d="M36.47,92.63C44,91,48.48,91,51,88.39s3-7,4-10.39c.58-1.88,6.25-3.59,11.74-3.32,4.48.22,9,2.11,9.34,3.32.78,2.69,2,14.21,6.14,16s12.87.16,15.38,4.39,10.73,21.46,10.73,25.47-80.47,2.79-80.47,2.79S28.94,94.29,36.47,92.63Z"/><path id="_Ink-5" data-name=" Ink-5" d="M3.15,189.44h0a3.06,3.06,0,0,1-1.9-.61A2.63,2.63,0,0,1,.5,188a3.42,3.42,0,0,1-.37-1A9.47,9.47,0,0,1,0,184.82v-.17l.05-2.34L.13,180c.06-2.65.1-5.35.14-7.95h0c.08-4.83.16-9.83.35-14.74.2-5.51.53-10.31,1-14.69.32-3.1.7-5.89,1.14-8.51a83.61,83.61,0,0,1,1.87-8.41c.39-1.41.82-2.79,1.28-4.11s1-2.72,1.56-4,1.22-2.63,1.88-3.86,1.44-2.52,2.22-3.69a49.46,49.46,0,0,1,10-10.88,55.15,55.15,0,0,1,6.06-4.27,58.56,58.56,0,0,1,6.57-3.43,64.35,64.35,0,0,1,7.13-2.68c1.2-.37,2.43-.66,3.63-1h0c1-.24,2.07-.49,3.1-.79a7.23,7.23,0,0,0,2.63-1.16h0l.06-.05.15-.12.2-.2.12-.13a1.75,1.75,0,0,0,.16-.25,4.07,4.07,0,0,0,.42-1.26h0l0-.11a7.44,7.44,0,0,1,.33-1.14,2.74,2.74,0,0,1,.64-1,3.64,3.64,0,0,1,1.34-.88,1.76,1.76,0,0,1,.68-.14,2.25,2.25,0,0,1,.52.07,2.29,2.29,0,0,1,.94-1h0a2.61,2.61,0,0,1,.31,1.48h0c0,.07,0,.14,0,.21,0,.34,0,.72,0,1.09a8.36,8.36,0,0,0,3.32,1.06l.45.08c2.36.43,4.18.7,5.9.87a45.49,45.49,0,0,0,4.56.23c.51,0,1,0,1.55,0,1,0,2-.09,3-.19.27,0,.56-.08.87-.14a9,9,0,0,1,1.46-.18,3.05,3.05,0,0,1,.52,0h0l.12-.06c0-.12-.07-.24-.1-.36a2.77,2.77,0,0,1,0-1.11,1.31,1.31,0,0,1,.6-.9.73.73,0,0,1,.29-.07.68.68,0,0,1,.42.17,1.9,1.9,0,0,1,.46.69c.06.13.14.27.21.39a2.92,2.92,0,0,0,.32.38c.36-.11.71-.2,1.06-.28a1.66,1.66,0,0,1,.32,0,1.29,1.29,0,0,1,1.09.61,10.06,10.06,0,0,1,1.49,3.93l.06.32h0a12.92,12.92,0,0,0,.36,1.49,3.36,3.36,0,0,0,.76,1.3,1.44,1.44,0,0,1,.46,1,1.48,1.48,0,0,1-.36,1,33.07,33.07,0,0,1,5.34.69,29.44,29.44,0,0,1,5.12,1.58A14.65,14.65,0,0,1,99,96.42a15.74,15.74,0,0,1,2.33,2,17.12,17.12,0,0,1,1.92,2.4,18.73,18.73,0,0,1,1.48,2.71,37.9,37.9,0,0,1,1.66,4.77c.46,1.62.85,3.29,1.22,4.91.15.65.31,1.33.47,2,.48,2,1,4,1.47,5.88h0c.63,2.47,1.27,5,1.86,7.56q1.45,6.19,2.9,12.39l.07.31v0c1.06,4.51,2.15,9.18,3.22,13.78l1.76,7.53,0,.19c.45,1.95.91,3.89,1.36,5.84.25,1.08.51,2.18.76,3.24s.5,2.15.76,3.24l.41,1.77.41,1.77c.06.26.14.53.22.81h0a8.16,8.16,0,0,1,.41,2.34,2.39,2.39,0,0,1-1.56,2.27,10,10,0,0,1-3,.61l-.87.1-1.82.27h0c-1.53.23-3.11.46-4.67.57l-.85,0a8.45,8.45,0,0,1-4.63-1.21l0,.29-.1.66a3.29,3.29,0,0,1-.2,1.24,1.92,1.92,0,0,1-.67,1,1.78,1.78,0,0,1-1.56.3,1.66,1.66,0,0,1-.68-.36h0a5.61,5.61,0,0,1-1.29.15l-4.25.11h-.13l-2.46.06-6.31.16c-12.52.32-22.12.49-31.14.53h-.27l-7.8,0c-2.86,0-5.36,0-7.66,0-3,0-5.47-.09-7.71-.16-1.4-.05-2.66-.1-3.93-.25l-.54-.05h0a4.92,4.92,0,0,1-1.93-.42,1,1,0,0,1-.58.2.73.73,0,0,1-.74-.61c-.3-1.33-.61-2.66-.91-4l-.3-1.31-.15.35h0c-.2.44-.4.9-.59,1.34l0,.09c-.29.64-.58,1.31-.83,2a3.79,3.79,0,0,1-.91,1.53,2.89,2.89,0,0,1-2.11.74,12.67,12.67,0,0,1-1.63-.16c-.29,0-.57-.08-.84-.1-1.12-.11-2.24-.17-3.33-.17a31.06,31.06,0,0,0-5.1.42,35.72,35.72,0,0,0-4.35,1A7.56,7.56,0,0,1,3.15,189.44Zm.46-3.27a.1.1,0,0,0,.05.06h0S3.66,186.2,3.61,186.17Zm-.51-.37h0a.11.11,0,0,0,.09,0h0Z"/></g><g id="hat-beanie"><path id="Path" class="cls-1" d="M69,18.88c6.78,0,14.92,3.29,15.61,3.36h0q.55,0,4.27,3.24l-2.69,5.24.22.21c1,1,1.93,1.91,2.63,2.62,5.72,5.85,6.75,28.82,5.4,36.83S90.64,86.23,79,86.23s-24.57-7-26.56-9.17A5.67,5.67,0,0,0,48,75c-.07-.09-.14-.17-.2-.26l-.25,0a15.27,15.27,0,0,1-4.92-1.34c-1.94-1.1-4.07-6.87-4.07-8.14s-3.19-10.4-3.25-11.37v0c0-.81-4.16-4.53-4.16-5.71s-.84-1.11,0-5.27l.25-1.23c.89-4.43,2.63-11.77,9.29-15C48,23.14,62.18,18.88,69,18.88Z"/><path id="_Ink-6" data-name=" Ink-6" d="M77.35,88.29a16.18,16.18,0,0,1-5.55-1,16.71,16.71,0,0,1-5.15-3,6.64,6.64,0,0,0-.55-.51c-.46-.39-1-.87-1-1.1a.14.14,0,0,1,.11-.1c.15.16.31.32.5.5a.13.13,0,0,1,0-.06l-.16-.14c-.32-.3-.47-.49-.44-.57s0,0,.1,0h.09l0,0,0,0,.22.15,0,0h0c-.18-.19-.28-.35-.26-.4a.05.05,0,0,1,.05,0,.64.64,0,0,1,.18.06l0,0c.16.17.33.34.52.51a.13.13,0,0,1,0-.06L66,82.45c-.14-.14-.13-.16-.07-.25h0l0,0c-.09-.12-.12-.2-.1-.24a0,0,0,0,1,.06,0,.47.47,0,0,1,.37.25h.07c.22,0,.43.24.61.45a1.06,1.06,0,0,0,.33.3,17,17,0,0,0,4.66,2.57,14.6,14.6,0,0,0,4.9.85,14.08,14.08,0,0,0,5.58-1.15,16,16,0,0,0,5-3.48,19.75,19.75,0,0,0,2.91-3.77A25.21,25.21,0,0,0,92.59,73a39.37,39.37,0,0,0,1.89-13.15V59.4c0-2.14-.09-4-.2-5.78-.13-2.08-.32-4-.59-5.75a48.74,48.74,0,0,0-1.17-5.62,38.25,38.25,0,0,0-1.94-5.37,21.47,21.47,0,0,0-1-2c-.26-.48-.55-.94-.84-1.38a12.51,12.51,0,0,1-2.5-.46l-.84-.24-6.94.39h0l-5.19.3L72,33.62a33.08,33.08,0,0,0-5.16.64,11.72,11.72,0,0,0-4.67,2.08,5.28,5.28,0,0,0-1,.87,7.52,7.52,0,0,0-.75,1,18.93,18.93,0,0,0-1.12,2.31,21.23,21.23,0,0,1-.94,2A6.91,6.91,0,0,1,57,44.26a10.31,10.31,0,0,0-1.79,1.51,6.81,6.81,0,0,0-1.06,1.54,13.34,13.34,0,0,0-1,3.6h0c-.06.32-.12.66-.19,1a15.36,15.36,0,0,0,.25,2,9.87,9.87,0,0,1,.21,3.11,2.63,2.63,0,0,1-.55,1.24,2.52,2.52,0,0,1-.54.49,3.93,3.93,0,0,1-.78.36c.19.28.21.39.19.43l-.06,0a.56.56,0,0,1-.4-.33h0c.17.32.18.43.16.47l0,0c-.1,0-.37-.27-.41-.44l-.11-.08c.16.26.17.36.15.39s0,0,0,0a.55.55,0,0,1-.32-.22.19.19,0,0,1,0-.1,3,3,0,0,0-1.33-1.11,4.19,4.19,0,0,0-1.67-.34,4.62,4.62,0,0,0-1.23.17s0,0-.06,0h-.05a4.24,4.24,0,0,0-3,2.49,6.86,6.86,0,0,0-.59,2,9.09,9.09,0,0,0,0,2.21A7.63,7.63,0,0,0,44.1,68.6a3.79,3.79,0,0,0,3.07,1.66,5.16,5.16,0,0,0,.79-.08l.11,0a.2.2,0,0,1,.16.07l0,0c0-.09,0-.16,0-.2a.12.12,0,0,1,.08,0,.29.29,0,0,1,.16.07s0,0,0,0h0c0-.13,0-.21,0-.24a.05.05,0,0,1,0,0c.13,0,.46.47.51.6v0l.07,0,0-.07a1.5,1.5,0,0,0-.09-.22.16.16,0,0,1,0-.12v0a1,1,0,0,0-.07-.15s0,0,0-.11h0a.21.21,0,0,1,.13,0c.14,0,.23.22.3.41a.5.5,0,0,0,.1.21.31.31,0,0,1-.06-.32.1.1,0,0,1,.09-.06.16.16,0,0,1,.11,0,29.44,29.44,0,0,0,2.31,4,22.53,22.53,0,0,0,3,3.49c.2.16.47.36.75.56a9.66,9.66,0,0,0,1.77,1.13,10.5,10.5,0,0,1,1.52,1s0,0,0,0l0,0,0,0,.31.15a1.2,1.2,0,0,1,.24.26,1.15,1.15,0,0,1,.2.29.13.13,0,0,1,0,.12,0,0,0,0,1-.06,0,.11.11,0,0,1-.08,0l-.11,0h0l0,0h0s.08.19.05.24,0,0,0,0h0l-.16-.06-.06,0c.07.08.13.17.19.25h0l0,.07a.54.54,0,0,1,.14.27.07.07,0,0,1-.07.08h0l-.26-.09,0,0c0,.1.1.22.08.26h-.08l-.39-.14,0,0h0a8.1,8.1,0,0,1-1.16-.53L57,81l-.39-.28a7.23,7.23,0,0,1-.9-.63A19.24,19.24,0,0,1,50.8,75.5a3.8,3.8,0,0,1-2.57.83,10.86,10.86,0,0,1-3.55-.73,23.46,23.46,0,0,1-3.3-1.52,6.39,6.39,0,0,1-1.57-1.21,6.59,6.59,0,0,1-1.07-1.55,8.5,8.5,0,0,1-.67-1.8,13.07,13.07,0,0,1-.33-2,7.65,7.65,0,0,0-.48-1.76c-.22-.55-.48-1.07-.76-1.62a18.1,18.1,0,0,1-1.43-3.54,20,20,0,0,1-.6-5.87h0a1.07,1.07,0,0,1-.31-.13,1.05,1.05,0,0,1-.29-.17l-.11-.15-.15-.1,0,0s0,0,0,0h0s0,0,0-.06v0l-.19-.26-.79-1.08h0L32,52v0s0,0,0,0a16,16,0,0,1-1.34-2.26,8.69,8.69,0,0,1-.78-2.44,6.66,6.66,0,0,1-.17-1.89,10,10,0,0,1,.24-1.81A50.66,50.66,0,0,1,33.35,35a38.12,38.12,0,0,1,2.81-4.78,18.67,18.67,0,0,1,3.37-3.78,8.76,8.76,0,0,1,1.86-1.39,28.55,28.55,0,0,1,2.93-1.46,68.36,68.36,0,0,1,8.15-2.85,91.83,91.83,0,0,1,9.59-2.19c1.65-.28,3.24-.49,4.74-.64a43.56,43.56,0,0,1,4.39-.23,25.74,25.74,0,0,1,3.16.17l.32,0a20.71,20.71,0,0,1,2.47.48,21.08,21.08,0,0,1,7.51,3.1c.37.26.89.54,1.48.87a16.63,16.63,0,0,1,3.57,2.39,4.63,4.63,0,0,1,.63.75,3,3,0,0,1,.38.81,2.23,2.23,0,0,1,.08.89,2.84,2.84,0,0,1-.29,1,5.9,5.9,0,0,1,.61,1.92,4.08,4.08,0,0,1-.18,1.9,4.66,4.66,0,0,1-.33,1.16,33.92,33.92,0,0,1,3.25,6.31,75.4,75.4,0,0,1,1.79,8.12,64.59,64.59,0,0,1,.77,8.21,71.35,71.35,0,0,1-.06,8c-.09,1.41-.24,2.78-.43,4.06a38.43,38.43,0,0,1-.81,4,29.77,29.77,0,0,1-1.25,3.81A24.42,24.42,0,0,1,92.1,79.2a21.83,21.83,0,0,1-2.36,3.2,19.75,19.75,0,0,1-3,2.76,14.66,14.66,0,0,1-4.38,2.33A15.94,15.94,0,0,1,77.35,88.29Zm-11.6-5.65h0l0,.07a.43.43,0,0,0,.1.09v0l-.09-.07ZM36.54,43.93a43.9,43.9,0,0,1-.06,5.62c-.07,1.08-.13,2.2-.13,3.31a22.62,22.62,0,0,0,.22,3.39,18.47,18.47,0,0,0,.94,3.65,22.46,22.46,0,0,0,2,4.06,10.06,10.06,0,0,1,1.1,3.55A10.65,10.65,0,0,0,40.91,69a4.12,4.12,0,0,0,.63,1.34,7.13,7.13,0,0,0,3.69,2.27l.16.06a11.33,11.33,0,0,0,1.5.47,6,6,0,0,0,1.52.2,4.28,4.28,0,0,0,.87-.09l-.11-.18c-.08-.12-.11-.19-.1-.25a.22.22,0,0,1,.11-.1v0h0c-.14-.26-.27-.52-.39-.76l-.12,0h0a.12.12,0,0,1,0,.1.12.12,0,0,1-.08,0,2.47,2.47,0,0,1-.86.15h-.24a3.27,3.27,0,0,1-.87-.17h0l-.21,0a5.19,5.19,0,0,1-2-1,6.58,6.58,0,0,1-1.95-1.69,8.14,8.14,0,0,1-1.26-2.27,10.09,10.09,0,0,1-.42-5.25A7.9,7.9,0,0,1,42.56,58a6.22,6.22,0,0,1,1.62-1.31,6.11,6.11,0,0,1,2.11-.7A35.91,35.91,0,0,1,47,50.17a51.54,51.54,0,0,1,1.75-6.7,48.64,48.64,0,0,1,2.73-6.65,30.68,30.68,0,0,1,3.63-5.67c2-2.42,5.46-4.45,10.11-5.87a44,44,0,0,1,6.72-1.48,48.28,48.28,0,0,1,6.8-.49c1.32,0,2.6.06,3.81.18l.4.13a12.63,12.63,0,0,1,2.5.59c.56.17,1.14.35,1.72.47a9.65,9.65,0,0,0-1.63-1A18.16,18.16,0,0,0,83.75,23,19.09,19.09,0,0,0,80,21.22a34.53,34.53,0,0,0-4-1.07,7.72,7.72,0,0,0-1.67-.22c-1-.09-2.1-.13-3.18-.13a48.63,48.63,0,0,0-8.93.89c-2.55.47-5.25,1.11-8.75,2.09l-.47.13-1.13.32c-3.5,1-7.12,2-10.06,4.13a17.74,17.74,0,0,0-1.61,1.4,19.19,19.19,0,0,0-1.42,1.56,25.08,25.08,0,0,0-2.38,3.5,40.86,40.86,0,0,0-1.91,3.81c-.61,1.35-1.16,2.71-1.62,3.88A9.28,9.28,0,0,0,32,44.42a9.3,9.3,0,0,0,2.67,7.84,43.32,43.32,0,0,1,1.5-7.75,1.32,1.32,0,0,0,.09-.3c0-.17.06-.24.29-.28ZM53,66.47c-.1,0-.32-.19-.49-.35a.2.2,0,0,1,0,.15s0,0,0,0-.23-.11-.47-.35l-.21-.23-.13-.13a15.1,15.1,0,0,0-2.85-1.74,9.86,9.86,0,0,0-3.15-.92h-.06c-.26,0-.4-.09-.44-.19a.22.22,0,0,1,0-.21.71.71,0,0,1-.25-.11.14.14,0,0,1-.07-.11c0-.06.08-.11.18-.11h0c-.12-.07-.16-.15-.14-.22a.22.22,0,0,1,.2-.13l.09,0a.18.18,0,0,1,0-.16.13.13,0,0,1,.12,0l.16,0h0l.11,0h0c.1-.14.17-.21.24-.21a.11.11,0,0,1,.08,0h0a.05.05,0,0,0,0,0l0,0a.64.64,0,0,1,.26-.1l.08,0h.42a5.52,5.52,0,0,1,1.93.38,8.36,8.36,0,0,1,1.85,1,12.9,12.9,0,0,1,1.64,1.31,13.34,13.34,0,0,1,1.28,1.43.07.07,0,0,1-.06,0c-.13,0-.33-.22-.41-.31h0l0,0,0,0,0,.06c.13.18.18.3.16.33s0,0,0,0a1.34,1.34,0,0,1-.45-.29,2.28,2.28,0,0,1-.4-.42l0,0h0l.06.06h0a1.36,1.36,0,0,1,.37.45l.08.06c.35.3.53.58.5.67s0,0,0,0-.33-.19-.62-.49a.14.14,0,0,1,0,.11l0,0c.23.16.45.49.42.59ZM44.32,42.83a.69.69,0,0,1-.37-.1l-.55-.36c-.88-.6-1.77-1.18-2.82-1.76a.85.85,0,0,1-.55-.69.46.46,0,0,1,.34-.42,1.87,1.87,0,0,1,.62-.1A5.61,5.61,0,0,1,44.72,41a1.56,1.56,0,0,1,.43,1.28A.94.94,0,0,1,44.32,42.83Zm4.61-5.67a2.11,2.11,0,0,1-1.25-.44l-.5-.32c-1-.68-1.82-1.22-2.39-1.65-.79-.59-1.16-1-1.12-1.12s.08-.08.2-.08a15,15,0,0,1,3.56,1.19c.18.08.36.14.56.21a2.89,2.89,0,0,1,1.64,1,.72.72,0,0,1-.7,1.17Zm4-5.78a1.37,1.37,0,0,1-.72-.2c-.91-.57-1.84-1.09-2.8-1.57-.47-.24-1-.49-1.43-.75a.26.26,0,0,1,0-.21.5.5,0,0,1,.39-.11,10.7,10.7,0,0,1,2.58.64l.24.07.12.05.22.08h0a3.56,3.56,0,0,1,1.84,1.11.64.64,0,0,1,.1.64A.63.63,0,0,1,52.93,31.38Zm4.89-4.74a3.88,3.88,0,0,1-2.23-1c-.27-.19-.53-.39-.81-.56s-.37-.49-.32-.61.14-.12.31-.12a9.26,9.26,0,0,1,3.14,1.1h0a.73.73,0,0,1,.3.65.66.66,0,0,1-.36.55ZM63.21,24a1.52,1.52,0,0,1-.67-.18,4,4,0,0,1-.91-.6,5.05,5.05,0,0,1-.71-.59c-.13-.14-.18-.25-.16-.32s.12-.11.29-.11a6.32,6.32,0,0,1,2.43.79.69.69,0,0,1,.26.71A.54.54,0,0,1,63.21,24Z"/></g><g id="Smile-2"><path id="_Ink-7" data-name=" Ink-7" d="M80.42,75.08a5.71,5.71,0,0,1-2.19-.44,5.9,5.9,0,0,1-1.42-.82,6.48,6.48,0,0,1-1.17-1.17,1.24,1.24,0,0,1-.24-.93,1.35,1.35,0,0,1,1.29-1.11h.17a1.21,1.21,0,0,1,.79.53l0,.06a4.12,4.12,0,0,0,1.49,1.26,3.46,3.46,0,0,0,1.49.34,2.17,2.17,0,0,0,.36,0,3.88,3.88,0,0,0,1.64-.57,8,8,0,0,0,1.38-1.16l.34-.35a.6.6,0,0,1,.28-.22.57.57,0,0,1,.18,0,.63.63,0,0,1,.52.27.54.54,0,0,1,.09.37,3.32,3.32,0,0,1-.41,1.34,4.12,4.12,0,0,1-.87,1.12,5.49,5.49,0,0,1-1.32.92A5.58,5.58,0,0,1,81.4,75,5.41,5.41,0,0,1,80.42,75.08ZM82,66.36h0A5.3,5.3,0,0,1,80.08,66a9.36,9.36,0,0,1-2.22-1.26.83.83,0,0,1-.31-.49,1,1,0,0,1,0-.55,1.3,1.3,0,0,1,.38-.54.93.93,0,0,1,.58-.23.8.8,0,0,1,.45.14l.15.11h0a11.15,11.15,0,0,0,1.39,1,3.39,3.39,0,0,0,1.66.53,1.86,1.86,0,0,0,.7-.14,2,2,0,0,0,.66-.46,2,2,0,0,0,.38-1.62A3,3,0,0,0,83.13,61a5.87,5.87,0,0,0-1.23-1,.4.4,0,0,1-.1-.44.64.64,0,0,1,.19-.27.58.58,0,0,1,.36-.12h.13a4.21,4.21,0,0,1,1.45.52,3.33,3.33,0,0,1,1,.9A3.6,3.6,0,0,1,85.52,63a3.66,3.66,0,0,1-.32,1.25,3.51,3.51,0,0,1-.71,1.07A3.45,3.45,0,0,1,82,66.36ZM69.7,57.84a1.2,1.2,0,0,1-.81-.31,1.33,1.33,0,0,1-.42-.81,9.41,9.41,0,0,1,0-2.37c0-.23.06-.47.08-.72a1.42,1.42,0,0,1,.54-1,1.64,1.64,0,0,1,1-.35,1.21,1.21,0,0,1,.77.24,1.12,1.12,0,0,1,.42.75,6.33,6.33,0,0,1-.66,3.92,1.26,1.26,0,0,1-.45.52A1,1,0,0,1,69.7,57.84Zm18-.53a1.11,1.11,0,0,1-.85-.37,3.21,3.21,0,0,1-.51-.88A3.78,3.78,0,0,1,86.07,55a2.25,2.25,0,0,1,.61-1.93,1.3,1.3,0,0,1,.1-.15,1.4,1.4,0,0,1,1.07-.61,1.13,1.13,0,0,1,.32,0,1.54,1.54,0,0,1,1,.9A3.21,3.21,0,0,1,89.34,55a5.65,5.65,0,0,1-.53,1.66,1.11,1.11,0,0,1-.46.45,1.34,1.34,0,0,1-.65.17ZM64.26,51.66a.18.18,0,0,1-.16-.1.24.24,0,0,1,0-.22,7.68,7.68,0,0,1,1.68-2.12A10.7,10.7,0,0,1,68,47.69a9.67,9.67,0,0,1,2.66-.93l.29,0a7.48,7.48,0,0,1,1.16-.12,1.78,1.78,0,0,1,1.43.53,1.2,1.2,0,0,1,.29.87.77.77,0,0,1-.29.56A2.22,2.22,0,0,1,72,49H71a10.71,10.71,0,0,0-2.25.39,15.35,15.35,0,0,0-4.34,2.25A.2.2,0,0,1,64.26,51.66Zm27.42-1.15h0l-.12,0A6.22,6.22,0,0,1,90.24,50l-.43-.21a12,12,0,0,0-1.52-.65,17.94,17.94,0,0,0-3.47-.77,1.39,1.39,0,0,1-.7-.26,1.11,1.11,0,0,1-.39-.6,1.08,1.08,0,0,1,.12-.89,1.2,1.2,0,0,1,.55-.47,1.27,1.27,0,0,1,.47-.09,1.24,1.24,0,0,1,.27,0l.22,0a15.83,15.83,0,0,1,3.75,1.22,7.86,7.86,0,0,1,1.65,1.09,4.84,4.84,0,0,1,1.16,1.5c0,.32,0,.4,0,.45h0v0a.28.28,0,0,1-.18.12Z"/></g><g id="Moustache_5-2" data-name="Moustache 5-2"><path id="_Ink-8" data-name=" Ink-8" d="M95.16,66.13c-.2-.6-1.24-.55-1.17.16a2.1,2.1,0,0,1-1,2.11,1.76,1.76,0,0,1-2.23-.67,12.63,12.63,0,0,0-1.27-1.82,4.77,4.77,0,0,0-1.79-1.11,3.57,3.57,0,0,0-1.59-.16A3.86,3.86,0,0,0,82.48,66l-.15.2-.25-.33a.73.73,0,0,0-.78-.26,4.76,4.76,0,0,0-5.23-.25c-1.34.79-2.46,2-4.11,2.06a2.51,2.51,0,0,1-2.83-2.12c0-.75-1.07-1.38-1.65-.68a5.15,5.15,0,0,0-.78,5.17,7,7,0,0,0,4,4,15.5,15.5,0,0,0,6.39,1.06,6.66,6.66,0,0,0,5.33-2.61,7.33,7.33,0,0,0,.4-.63A6.62,6.62,0,0,0,88,73.9c2.07,0,4.52-.32,6-1.93a6,6,0,0,0,1.23-5.84"/></g><g id="_None-2" data-name=" None-2"><rect id="accessories_None_background-2" data-name="accessories None background-2" class="cls-2" x="39.08" y="46.49" width="59.36" height="20.9"/></g><g id="Turtleneck-3"><path id="_Background-4" data-name=" Background-4" class="cls-1" d="M211.07,92.63c7.54-1.66,12-1.66,14.54-4.24s3-7,4-10.39c.58-1.88,6.24-3.59,11.74-3.32,4.48.22,9,2.11,9.34,3.32.78,2.69,2,14.21,6.13,16s12.87.16,15.38,4.39S283,119.83,283,123.84s-80.48,2.79-80.48,2.79S203.53,94.29,211.07,92.63Z"/><path id="_Ink-9" data-name=" Ink-9" d="M177.74,189.44h0a3.1,3.1,0,0,1-1.9-.61,2.72,2.72,0,0,1-.74-.84,3.15,3.15,0,0,1-.37-1,10.07,10.07,0,0,1-.12-2.19v0a.61.61,0,0,1,0-.14l0-2.34c0-.78,0-1.56.05-2.33.06-2.65.1-5.35.15-7.95h0c.07-4.83.16-9.83.34-14.74.21-5.51.53-10.31,1-14.69.32-3.1.7-5.89,1.15-8.51.48-2.83,1.1-5.64,1.86-8.41.39-1.41.82-2.79,1.28-4.11s1-2.72,1.57-4,1.21-2.63,1.87-3.86,1.44-2.52,2.23-3.69a49,49,0,0,1,10-10.88,54.21,54.21,0,0,1,6.06-4.27,57.71,57.71,0,0,1,6.57-3.43,65,65,0,0,1,7.12-2.68c1.2-.37,2.44-.66,3.64-1h0c1-.24,2.07-.49,3.09-.79a7.35,7.35,0,0,0,2.64-1.16h0l.07-.05.14-.12.2-.2.13-.13c.06-.08.11-.17.16-.25a4.33,4.33,0,0,0,.41-1.26h0l0-.11a6.43,6.43,0,0,1,.32-1.14,2.76,2.76,0,0,1,.65-1,3.68,3.68,0,0,1,1.33-.88,1.81,1.81,0,0,1,.69-.14,2.32,2.32,0,0,1,.52.07,2.26,2.26,0,0,1,.93-1h0a2.62,2.62,0,0,1,.32,1.48h0v.21c0,.34,0,.72,0,1.09a8.31,8.31,0,0,0,3.32,1.06l.45.08c2.35.43,4.17.7,5.9.87a45.29,45.29,0,0,0,4.55.23q.78,0,1.56,0c1,0,2-.09,3-.19.27,0,.57-.08.87-.14a9.08,9.08,0,0,1,1.47-.18,2.94,2.94,0,0,1,.51,0h0l.13-.06c0-.12-.08-.24-.11-.36a2.77,2.77,0,0,1,0-1.11,1.25,1.25,0,0,1,.6-.9.68.68,0,0,1,.28-.07.63.63,0,0,1,.42.17,2.06,2.06,0,0,1,.47.69,2.93,2.93,0,0,0,.21.39,2.3,2.3,0,0,0,.32.38c.35-.11.71-.2,1.05-.28a1.73,1.73,0,0,1,.32,0,1.3,1.3,0,0,1,1.1.61,10.06,10.06,0,0,1,1.48,3.93c0,.11.05.21.07.32h0a9.79,9.79,0,0,0,.36,1.49,3.36,3.36,0,0,0,.76,1.3,1.48,1.48,0,0,1,.46,1,1.54,1.54,0,0,1-.36,1,33.21,33.21,0,0,1,5.34.69,29.71,29.71,0,0,1,5.12,1.58,14.89,14.89,0,0,1,2.71,1.49,16,16,0,0,1,4.25,4.38,17.81,17.81,0,0,1,1.48,2.71,36.37,36.37,0,0,1,1.66,4.77c.46,1.62.85,3.29,1.23,4.91.15.65.31,1.33.47,2,.47,2,1,4,1.46,5.88h0c.63,2.47,1.28,5,1.87,7.56q1.45,6.19,2.9,12.39l.07.31v0c1.05,4.51,2.14,9.18,3.22,13.78.61,2.6,1.24,5.34,1.76,7.53l0,.19c.46,1.95.91,3.89,1.37,5.84.25,1.08.5,2.18.75,3.24s.51,2.15.76,3.24l.41,1.77.42,1.77q.09.39.21.81h0a8.16,8.16,0,0,1,.41,2.34,2.39,2.39,0,0,1-1.55,2.27,10.14,10.14,0,0,1-3,.61l-.87.1-1.82.27h0c-1.53.23-3.12.46-4.68.57-.28,0-.57,0-.85,0a8.5,8.5,0,0,1-4.63-1.21l0,.29-.11.66a3.11,3.11,0,0,1-.2,1.24,1.86,1.86,0,0,1-.67,1,1.76,1.76,0,0,1-1.55.3,1.6,1.6,0,0,1-.68-.36h0a5.7,5.7,0,0,1-1.3.15l-4.24.11H272l-2.46.06-6.31.16c-12.51.32-22.12.49-31.14.53h-.27l-7.79,0c-2.86,0-5.37,0-7.67,0-3,0-5.47-.09-7.71-.16-1.39-.05-2.65-.1-3.93-.25l-.54-.05h0a4.88,4.88,0,0,1-1.92-.42,1,1,0,0,1-.59.2.73.73,0,0,1-.74-.61l-.9-4-.3-1.31-.16.35h0c-.19.44-.39.9-.59,1.34l0,.09c-.28.64-.58,1.31-.83,2a3.88,3.88,0,0,1-.9,1.53,2.9,2.9,0,0,1-2.12.74,12.52,12.52,0,0,1-1.62-.16c-.3,0-.57-.08-.84-.1-1.12-.11-2.24-.17-3.34-.17a31.15,31.15,0,0,0-5.1.42,36.16,36.16,0,0,0-4.35,1A7.49,7.49,0,0,1,177.74,189.44Zm.47-3.27a.06.06,0,0,0,0,.06h0S178.25,186.2,178.21,186.17Zm-.52-.37h0a.12.12,0,0,0,.09,0h0Z"/></g><g id="Bun"><path id="_Background-5" data-name=" Background-5" class="cls-1" d="M224.79,14c9.54-.52,18-3.2,24.71,2.8,0,0,10.87-8.12,12.68-5,1.22,2.07-.47,4.85,0,7.41,2.94,5,2.77,13.52,2.94,15.51.42,5,3.07,23.91,3.07,28.4,0,2.29-1.89,8.29-3.07,11.62-2.61,7.43-7.61,11.22-15.8,11.22S227.74,79.09,223.46,73c-.38-.53-2.81,1-5.35-1.67-2.76-2.92-4.28-8.5-4.28-11.82,0-4.21-2.73-7.13-2.41-12.53C212.12,35,214.58,14.57,224.79,14Z"/><path id="_Ink-10" data-name=" Ink-10" d="M248.11,87a15.51,15.51,0,0,1-2.64-.22,15,15,0,0,1-3-.71,22.36,22.36,0,0,1-2.25-1,10.8,10.8,0,0,1-1.1-.63,13,13,0,0,1-1.66-1.3c-.18-.15-.34-.3-.49-.44a.12.12,0,0,1,0-.11.14.14,0,0,1,.09-.09h0l0,0h0a.46.46,0,0,1-.07-.07,0,0,0,0,1,0,0h0l0,0a.11.11,0,0,1,0-.08.2.2,0,0,1,.08-.12H237a0,0,0,0,1,0,0l0,0a.12.12,0,0,1,0-.11.16.16,0,0,1,.09-.09h.22l-.05,0a.1.1,0,0,1-.05-.11.13.13,0,0,1,.1-.08,1,1,0,0,1,.25,0h.06l.08,0h0l-.06,0-.1-.09a.14.14,0,0,1,0-.07.24.24,0,0,1,.07-.13h.06a.4.4,0,0,1,.18.07.9.9,0,0,1,.39.13c.16.16.35.33.56.51a.71.71,0,0,1,.31.16c.2.19.42.38.68.59l.18.13L240,83l.37.22.62.37.41.13,3.24,1.1.16,0,1.18.15a10.68,10.68,0,0,0,2.33,0h.1a8,8,0,0,0,1.62-.16,16.27,16.27,0,0,0,2.84-.75,20.69,20.69,0,0,0,3.05-1.44c.35-.2.71-.41,1.05-.63l.33-.24a25.83,25.83,0,0,0,2.09-1.75c.31-.28.62-.58.91-.9l0,0h0a1.14,1.14,0,0,1,.11-.11c.28-.32.56-.64.81-1l.24-.28a31.89,31.89,0,0,0,2.68-4,24,24,0,0,0,2-4.28c.17-.53.32-1.07.44-1.6a8.58,8.58,0,0,0,.43-2c0-.12,0-.26.06-.38h0v-.21a.34.34,0,0,1,0-.11c0-.22.05-.43.07-.64s0-.43,0-.64V62.67s0-.08,0-.12l0-.29c0-.3-.07-.6-.1-.9s-.06-.59-.1-.89h0c0-.2-.05-.44-.09-.68s0-.19,0-.29l0-.1,0-.24c-.07-.41-.15-.82-.25-1.2l-.05-.17-.27-1.33-.29-1.3c-.19-.88-.36-1.77-.48-2.64-.22-1.37-.42-2.76-.6-4.26l0-.2c-.17-1.29-.29-2.63-.38-4s-.17-2.63-.19-3.93a.17.17,0,0,1,.09-.14v-.35h0a.24.24,0,0,1,0-.12v-.8l-.73,0c-.37,0-.71,0-1.1,0H262a19.17,19.17,0,0,1-2.14-.23.08.08,0,0,1-.07.07h-.21l0,.1a.11.11,0,0,1-.07.1H259a3.59,3.59,0,0,1-.47,0,4.27,4.27,0,0,1-.71-.15l-.44-.1-.63-.2h0l-.52-.18a3.7,3.7,0,0,0-.66-.07,2.51,2.51,0,0,0-.55.06l-.31.09a2.64,2.64,0,0,1-.68.13,1.35,1.35,0,0,1-.29,0,1.71,1.71,0,0,1-.27-.09h-.13a3,3,0,0,1-.86-.32c-.17-.08-.34-.16-.51-.22a.63.63,0,0,0-.19,0,.72.72,0,0,0-.29.06l0,0-.15.11-.18.22-.09.11a2.13,2.13,0,0,1-.56.52,1.35,1.35,0,0,1-.92.39h0a1.91,1.91,0,0,1-.58-.1,4.23,4.23,0,0,1-1.28.2,3.57,3.57,0,0,1-1-.15,3.33,3.33,0,0,1-.87-.25,2.93,2.93,0,0,1-.39-.21c-.35.15-.69.33-1,.51h0c-.17.09-.35.19-.53.27l-.11.06a3.59,3.59,0,0,1-1.58.48H242a21,21,0,0,1-2.22-.27h-.12l-.36-.07-.3,0-.15,0a11.48,11.48,0,0,1-1.37.44,5.54,5.54,0,0,1-1.4.18,3.68,3.68,0,0,1-1-.12,3.29,3.29,0,0,1-1.48-.55l0,0-.2-.12h0a1.81,1.81,0,0,1-.76-.69,1.73,1.73,0,0,1-.22-1,2.06,2.06,0,0,1,0-.7l-.66.76c-1,1.19-1.72,2.12-2.37,3l-.17.24c-.4.57-.79,1.18-1.14,1.79s-.73,1.23-1.1,1.8-1,1.11-1.42,1.67l-.19.24-.66.87a8.2,8.2,0,0,0-1.16,1.81c-.25.48-.49,1-.69,1.43l-.19.44a15.21,15.21,0,0,0-.53,1.78,8.78,8.78,0,0,0-.25,1.34v.15c0,.19,0,.37,0,.54l.11.07.11,0,.09,0q.28.09.33.18a.13.13,0,0,1,0,.06l-.29.56s0,.07,0,.1c-.19.38-.4.76-.58,1.12l0,0,.49.26a2.78,2.78,0,0,1,.73.64,3.81,3.81,0,0,1,.62.43,4.18,4.18,0,0,1,.62.83,4.1,4.1,0,0,1,.4.88,1.68,1.68,0,0,1,.07.5.93.93,0,0,1-.25.55.71.71,0,0,1-.44.15,1.56,1.56,0,0,1-.67-.18.86.86,0,0,1-.33-.23,5.2,5.2,0,0,0-.36-1,3.63,3.63,0,0,0-.6-.85h0a9.11,9.11,0,0,0-.91-.37l-.11,0h0a.09.09,0,0,1,0,.11.11.11,0,0,1-.1.06,5.56,5.56,0,0,1-1,.1l-.44,0-.74-.11a5.13,5.13,0,0,0-.87.45l-.09.06h0a5.89,5.89,0,0,0-1.63,2.16c0,.08-.07.15-.1.22l0,.12h0a7.25,7.25,0,0,0-.1,3,9.53,9.53,0,0,0,.94,2.83c.49.78,1,1.56,1.53,2.3l.52.68c.31.29.61.59.9.88l.14.14a4.31,4.31,0,0,0,.47.26l.19.06a2.4,2.4,0,0,0,1,.24h.24a3.45,3.45,0,0,0,1.06-.16l.09,0,.06,0a3.44,3.44,0,0,0,.65-.55.14.14,0,0,1,.11,0h.11a1.2,1.2,0,0,0,.16-.17.09.09,0,0,1,.07,0l.06,0h0a.62.62,0,0,1,.42.24.06.06,0,0,1,0,.08l0,.05,0,0a1.18,1.18,0,0,1,.19.11,1.58,1.58,0,0,1,.75.46,0,0,0,0,1,0,0h0a1.21,1.21,0,0,1-.29.35l0,0-.09.06c.12.08.19.14.2.19l0,0a1,1,0,0,1-.08.14c.23.28.48.58.77,1a7.43,7.43,0,0,0,1,1.54,6.87,6.87,0,0,0,1.13,1.4l.07.07h0l0,0c.31.23.64.45,1,.68l.15.1h0c.08,0,.18.11.13.21l0,0c.23.15.46.29.69.41h0c.07,0,.14.1.14.17a.1.1,0,0,1-.05.08l-.06,0a1.21,1.21,0,0,1-.47-.23h-.09l.09,0,0,0,.07,0s.2.12.2.21a.12.12,0,0,1-.07.07h0a.44.44,0,0,1-.22-.07l-.26-.14a.1.1,0,0,1,0,.07.13.13,0,0,1-.07.06H229a5.69,5.69,0,0,0,.55.32l0,0a.35.35,0,0,1,.15.16.09.09,0,0,1,0,.08l-.07,0a.87.87,0,0,1-.37-.16l0,0L229,79H229l.08.06.12.07.09,0c.09,0,.21.12.23.2a.08.08,0,0,1,0,.07.08.08,0,0,1-.09,0,.52.52,0,0,1-.26-.1l-.12-.07h0v0h0a.11.11,0,0,1-.09,0,.39.39,0,0,1-.2-.08l-.08,0-.4-.25L228,79h0a12.13,12.13,0,0,1-1.91-1.34,10.59,10.59,0,0,1-1-1,12.37,12.37,0,0,1-1.56-2.36s0,0,0-.09a3,3,0,0,1-.15-.31,4.41,4.41,0,0,1-1.14.15h-.33a5,5,0,0,1-.76-.13,5.68,5.68,0,0,1-2.26-.93l-.07-.05,0,0a5.32,5.32,0,0,1-.79-.55A12.12,12.12,0,0,1,216.64,71q-.46-.55-.87-1.14l-.73-1-.1-.13a10.1,10.1,0,0,1-1.46-4,8.54,8.54,0,0,1-.14-1.59,6.44,6.44,0,0,1,.13-1.16l0,0-.1-.11s0,.06-.06.06h0l-.34-.35a5.59,5.59,0,0,1-.7-.83,8.5,8.5,0,0,1-1-2.09,7.1,7.1,0,0,1-.34-1.71c0-.1,0-.2,0-.3a7.85,7.85,0,0,1,.11-2.32.12.12,0,0,1,.07-.1.88.88,0,0,1,0-.16v0a6.49,6.49,0,0,1-1.23-1.76,4.46,4.46,0,0,1-.44-2.13,4.06,4.06,0,0,1,.31-1.41l0,0a2.43,2.43,0,0,1-1.12-.5,4.18,4.18,0,0,1-.88-1l-.13-.1a7.13,7.13,0,0,1-1.93-3A6.72,6.72,0,0,1,205,42a.41.41,0,0,1,0-.11h0a.06.06,0,0,0,0,0,13.59,13.59,0,0,1-.16-3.49,16.7,16.7,0,0,1-.49-2.18c-.05-.32-.09-.67-.12-1.07v-.32a17.76,17.76,0,0,1,0-2.42A21.4,21.4,0,0,1,204.5,30a25.13,25.13,0,0,1,1.38-4.63c.11-.27.21-.55.32-.8l.12-.28a22.88,22.88,0,0,1,3.25-3.83c.43-.44.87-.89,1.29-1.34a.58.58,0,0,0,.12-.65.66.66,0,0,0-.57-.4.51.51,0,0,0-.4.19c-.41.44-.83.87-1.24,1.29h0c-.62.65-1.26,1.31-1.86,2h-.52a5.2,5.2,0,0,1-.88-.14,4.55,4.55,0,0,1-1.95-.82,3,3,0,0,1-1-.78,2.11,2.11,0,0,1-.49-1.17,1.22,1.22,0,0,1,0-.27,2.33,2.33,0,0,1,.18-1.33,2.06,2.06,0,0,1,.12-.35,2.32,2.32,0,0,1,.7-.88h0l0,0,.07-.08.17-.13a8.75,8.75,0,0,1-.55-1,4.36,4.36,0,0,1-.31-1.23l0-.51a2,2,0,0,0,0-.23,4.2,4.2,0,0,1,.26-1.79.59.59,0,0,1,0-.08l0,0c0-.13.09-.26.14-.38A3.47,3.47,0,0,1,203.81,9a3.55,3.55,0,0,1,.71-.57A3,3,0,0,1,205,8.2a2.9,2.9,0,0,1,1.08-.34h.12a7.23,7.23,0,0,1,.49-2.6,3.45,3.45,0,0,1,.38-.8,2.67,2.67,0,0,1,.57-.64,2.42,2.42,0,0,1,1-.64l.07,0h0a2.59,2.59,0,0,1,1.14-.24h.16a2.49,2.49,0,0,1,1.2.28l.27.16a2.46,2.46,0,0,1,.22-.39A5.49,5.49,0,0,1,212.8,1.7l.1-.08,0-.05a5.91,5.91,0,0,1,.63-.49,5.13,5.13,0,0,1,1.53-.73A5.13,5.13,0,0,1,216.88,0h.4a6.33,6.33,0,0,1,1.92.45,6,6,0,0,1,1.69,1.07,2.61,2.61,0,0,1,.42-.46L221.4,1l0,0a1.14,1.14,0,0,1,.11-.11,3.88,3.88,0,0,1,.58-.42,3,3,0,0,1,.75-.29,3.39,3.39,0,0,1,.84-.17h.37a2.7,2.7,0,0,1,.41,0,3.34,3.34,0,0,1,1.82,1l0,0v0a4.27,4.27,0,0,1,.63.57l0,0h0l.07-.06.31-.25A4.12,4.12,0,0,1,229,.52l.08,0h0a3.86,3.86,0,0,1,1.26-.2h.14a3.71,3.71,0,0,1,1.4.27,4.3,4.3,0,0,1,1.49,1.07,6.73,6.73,0,0,1,.77.74,5.59,5.59,0,0,1,1.2,1.94,2.26,2.26,0,0,1,.1.31c.67-.08,1.31-.13,1.93-.15s1,0,1.47,0h.7a20.33,20.33,0,0,1,5.83,1.06,8.1,8.1,0,0,1,1.1.43,8.28,8.28,0,0,1,1.58.85l.42.25.63.38a13,13,0,0,1,1.39,1,16.61,16.61,0,0,1,1.32,1.2l.33.35a11.45,11.45,0,0,1,2.61,2,18.35,18.35,0,0,1,4.26-1.8,14.49,14.49,0,0,1,2-.4c.27,0,.56-.09.9-.13h0l.64-.06h0l.23,0,.22,0h0c.07,0,.16.15.17.21V9.8a.76.76,0,0,1,.08.11l0,.05h.13c.09,0,.2.14.27.23l0,.05.07.08a.54.54,0,0,1,.15.29c.08.65.15,1.29.22,1.89a6.77,6.77,0,0,1-.08,1.42c-.06.47-.13.95-.18,1.36s-.19.63-.28.93v0l-.09.28,0,.09a21.7,21.7,0,0,1-.86,2.33q.36.41.69.84v0l.14.14a.12.12,0,0,1,0-.05h.05a.13.13,0,0,1,.12.08,4,4,0,0,1,1,1.59l.14.32.06.16a9.89,9.89,0,0,1,.41,1.41,9.16,9.16,0,0,1,.22,1.14c.34,1.15.6,2.33.83,3.34a.81.81,0,0,1,0,.46l.14.14.25.23a8,8,0,0,1,1.13,1.33,12.83,12.83,0,0,1,.64,1.22c.05.12.11.24.16.35l.06.12.11.22a6.76,6.76,0,0,1,.29.69,5.79,5.79,0,0,1,.32,1.54,6.74,6.74,0,0,1,0,1.19,3.27,3.27,0,0,1-.3,1.14v0a3.1,3.1,0,0,1-.39,1,2.65,2.65,0,0,1-.72.77,1.9,1.9,0,0,1-.4.3,1.18,1.18,0,0,1-.63.18,1.75,1.75,0,0,1-.4-.05h-.05l-.13,0a.12.12,0,0,1,.06.09s0,0-.06.06a.61.61,0,0,1-.24.07.08.08,0,0,1,0,.07.12.12,0,0,1-.05.05.55.55,0,0,1-.3.09h-.09l0,.22c.08.69.17,1.13.25,1.57a20,20,0,0,1,.28,2c.1,1.76.27,3.52.49,5.24l.08.64c.24,1.92.52,4,1,6,.21.85.4,1.73.56,2.6a10.37,10.37,0,0,1,.46,2,19.25,19.25,0,0,1,.27,2.14,3.9,3.9,0,0,1,.25,1.4,13.56,13.56,0,0,1-.07,1.91,13,13,0,0,1-.27,2,11,11,0,0,1-.7,2.58,26,26,0,0,1-1,2.73,30.31,30.31,0,0,1-4.57,7.32,23.13,23.13,0,0,1-4,3.69,21.61,21.61,0,0,1-6.23,3.15,17.06,17.06,0,0,1-2.36.5A14.87,14.87,0,0,1,248.11,87ZM220.39,41.5a.81.81,0,0,1,.29.12.17.17,0,0,1,.09.11.12.12,0,0,1-.05.1l0,.05A1.18,1.18,0,0,1,221,42a1.12,1.12,0,0,1,.61.36s0,0,0,0l-.43.46a.42.42,0,0,1,.18.18s0,0,0,0a18.24,18.24,0,0,0-1.63,2,13.15,13.15,0,0,0-1,1.63,20.63,20.63,0,0,0-1.19,2.46l-.14.39a19.74,19.74,0,0,0-.65,2.15,16.34,16.34,0,0,0-.39,2.2V54c0,.2,0,.52,0,.85h0c0,.58,0,1.24-.06,1.46a8.69,8.69,0,0,0,1,.42l.21,0,.12,0a4.1,4.1,0,0,1,1-.28,3.69,3.69,0,0,1,.58,0h.24l.31,0s0-.08,0-.12v-.06a.16.16,0,0,1-.06-.08,10,10,0,0,1,0-2.05c0-.33.09-.68.16-1.06s.12-.55.2-.87a17.45,17.45,0,0,1,.77-2.35,36.28,36.28,0,0,1,3.51-6.11c.36-.54.71-1.09,1.06-1.62.57-.88,1.16-1.8,1.78-2.68.94-1.34,1.81-2.48,2.66-3.5a36.25,36.25,0,0,1,3-3.19l.53-.47a25.5,25.5,0,0,1,3.26-2.39h0a.26.26,0,0,1,.15.07l.18-.11.1-.06h0a.13.13,0,0,1,.06.05l.19-.1,0,0,.1-.08h0l.07-.06c-.83,0-1.69-.1-2.55-.19-.94.11-1.86.2-2.73.29l-1.74.18c-.43,0-.82.05-1.19.05a9.82,9.82,0,0,1-1.43-.1c-.3,0-.61-.1-.91-.17q-.28.21-.63.42L224,31.91a42.83,42.83,0,0,0-4.62,4.1,28.06,28.06,0,0,0-3.33,4.2A25.24,25.24,0,0,0,213.57,45a.51.51,0,0,0-.23.37,12,12,0,0,1-.57,2,15.16,15.16,0,0,0-.55,2,4.31,4.31,0,0,0,.06,1.89,4.42,4.42,0,0,0,.87,1.68.47.47,0,0,0,.4.17.67.67,0,0,0,.38-.11A.09.09,0,0,0,214,53c.09,0,.21-.11.27-.42a4.66,4.66,0,0,0,.92-1.36.52.52,0,0,0,0-.44.64.64,0,0,0-.43-.28c.14-.49.29-1,.46-1.45a20.5,20.5,0,0,1,2-4.08,23.58,23.58,0,0,1,2.45-3.09.06.06,0,0,1,.05,0l.19-.21a.07.07,0,0,1,.06,0H220l.06-.07h0l.1-.11.08,0a.14.14,0,0,1,.08,0ZM241,20h0a5.29,5.29,0,0,0-.5.32,5.12,5.12,0,0,0-.59.55,5.35,5.35,0,0,0-1,1.6,5.42,5.42,0,0,0-.21,1l0,.23a6.92,6.92,0,0,0,.19,2.31,8.79,8.79,0,0,0,.88,2.13h0a15.21,15.21,0,0,1,2.15-.94A20,20,0,0,1,248,24.46l.17,0c.33-.09.68-.17,1-.24l.21,0h0l0-.23a6.72,6.72,0,0,0-2.32-4.1h0a5.17,5.17,0,0,0-.8-.36l-.11,0-.48-.11a5.93,5.93,0,0,0-1.19-.12,6.4,6.4,0,0,0-.88.06l-.87.16a5.56,5.56,0,0,1,1.52,2.13.59.59,0,0,1,0,.59.84.84,0,0,1-1.18.13.77.77,0,0,1-.24-.32A3.74,3.74,0,0,0,241,20Zm-14,7.6h0a5,5,0,0,0,.91.27l.44.07h.19a7.09,7.09,0,0,0,.81,0,15.2,15.2,0,0,0,2.6-.28l2.82-.29h0l2-.21h0a0,0,0,0,1,0,0h.11a.31.31,0,0,1,.22.18.11.11,0,0,1,0,.13,1.45,1.45,0,0,1,.23.19h0a6.47,6.47,0,0,1-.51-1.35l-.15-.78a7,7,0,0,1-.08-.91c0-.17,0-.29,0-.39V24a9.07,9.07,0,0,0-.92-.32l-.68-.09h0L233,23.35c-.54,0-1.08.06-1.6.12s-1.19.12-1.79.2h0a.34.34,0,0,1-.21-.16l-.26,0h0c-.08,0-.15-.1-.16-.18a.11.11,0,0,1,.08-.13l.19-.07.09,0h-.16l-.38,0h0a.08.08,0,0,1-.1-.07.21.21,0,0,1,.11-.2l.06,0a.23.23,0,0,1-.13-.21.1.1,0,0,1,.06-.09h0l.11,0,.07,0a.06.06,0,0,1,0-.06l-.25,0h0a.47.47,0,0,1,.15-.19h0l.12,0a.65.65,0,0,1,.15-.18c.42-.13.84-.26,1.28-.36a.18.18,0,0,1,.07-.05,7.38,7.38,0,0,1,.81-.15s0-.05.05-.05a9.61,9.61,0,0,1,1.31-.09c.23,0,.47,0,.7,0l.39,0c.27,0,.51.07.74.11a11.39,11.39,0,0,1,1.8.48l.13.05.44.18a5.41,5.41,0,0,1,.27-.77,1.21,1.21,0,0,1,.05-.14l-.14-.09a.16.16,0,0,1-.12.09s0,0,0,0a18.41,18.41,0,0,0-3.34-1.77,16.29,16.29,0,0,0-2-.74c-.3-.1-.64-.2-1-.31l-.53-.1a14.34,14.34,0,0,0-2.77-.48c-.68-.06-1.39-.1-2.11-.1s-1.43,0-2.18.1c-.92.09-1.86.22-2.78.38a14.67,14.67,0,0,0-1.85.45l.35.69a37.7,37.7,0,0,0,1.86,3.42,17,17,0,0,0,1.17,1.61,8.47,8.47,0,0,0,1,1,3.82,3.82,0,0,0,.29.32,6,6,0,0,0,1,.7,8.91,8.91,0,0,0,.93.57l.13.06,1.13.44.19.05.09,0,.17,0,.13-.07.07,0s0,0,0,0,0,0,.05.05,0,0,0,0Zm34.06-3.51h0l.11.07a7.9,7.9,0,0,1,2.35,1.06v-.14a5,5,0,0,0,0-.55,12.09,12.09,0,0,0-.94-3.12.06.06,0,0,1,0-.07,10.18,10.18,0,0,0-.71-1c-.14.24-.27.45-.4.65a15.32,15.32,0,0,1-2.44,2.89h0c.25,0,.49,0,.71,0a8.28,8.28,0,0,1,1.21.21.09.09,0,0,1,.06,0Zm-8-.32a20,20,0,0,1,2.44.15,16.46,16.46,0,0,0,1.37-.93l.4-.32a15,15,0,0,0,2.11-2.26A14.58,14.58,0,0,0,260.86,18a14.68,14.68,0,0,0,.92-2.5,11.88,11.88,0,0,0,.34-2.37c0-.14,0-.28.05-.4v-.09c0-.3-.05-.6-.08-.86-.32.06-.63.14-.94.23a7.72,7.72,0,0,0-1.71.46c-.66.24-1.34.52-2.21.91a18.47,18.47,0,0,0-4,2.43L253,16c-.29.25-.55.5-.78.74L252,17h0l-.51.56-.37.36a6.15,6.15,0,0,0-.61.64,1.43,1.43,0,0,0-.16.24l.17.06a.16.16,0,0,1,.1.18c0,.05,0,.1-.09.1h0l-.14,0a.16.16,0,0,1,0,.07.17.17,0,0,1,0,.12.09.09,0,0,1-.07,0h0l-.12,0a.59.59,0,0,0,0,.14h0a.67.67,0,0,1,.32.3.11.11,0,0,1,0,.11.12.12,0,0,1-.08,0h0l-.2-.08a.2.2,0,0,1,.08.12.17.17,0,0,1,0,.12.09.09,0,0,1-.07,0h0a1.23,1.23,0,0,1-.38-.19.16.16,0,0,1-.08.06h0l-.05,0,0,.05,0,0a7.55,7.55,0,0,1,1.08,1.49.12.12,0,0,1,0,0l.42-.33,0,0,0,0-.31.1h0l0,0L251,21h0a7.08,7.08,0,0,1,1.42-1,6.84,6.84,0,0,1,1-.54,21.46,21.46,0,0,1,2.67-1l.16-.05h0l.25-.08h0v0l.07,0h0a.31.31,0,0,1,.23.17.13.13,0,0,1,0,.12,1.85,1.85,0,0,1,.14.14l0,0h.06c.09,0,.21.08.38.26l.09.09s.12.13.11.2a.12.12,0,0,1-.07.07l-.2.06c0,.05,0,.08-.07.1l-.2.07.12.11.05.05h0c.06.06.15.15.14.22a.11.11,0,0,1-.06.07h0l-.18.07a.11.11,0,0,1,0,.08.11.11,0,0,1-.07.06A30.22,30.22,0,0,0,254,21.56a10,10,0,0,1-2.46,1h0a.43.43,0,0,1-.27-.2l-.13,0-.07,0h0a6.39,6.39,0,0,1,.35,1.35s0,.09,0,.13l.51,0c.36,0,.72,0,1.09,0Zm-2-1.87-.11,0,.06.14h0l.14-.11-.1-.07ZM224.26,66a.56.56,0,0,1-.28-.1l-.27-.18-.14-.08h0a19.26,19.26,0,0,0-4.34-2s0,0,0,0a2.22,2.22,0,0,1,.37-.63c.22-.3.41-.48.5-.48h0a1.93,1.93,0,0,1,.52-.11s1.44.52,2.13.86l0,0a11.69,11.69,0,0,1,1.78,1.1l.13.1s.1.08.1.14a3.11,3.11,0,0,1-.11.91Q224.55,66,224.26,66ZM261.88,9.64h0a1.23,1.23,0,0,1,.42-.1.58.58,0,0,1,.19,0l-.61.06Z"/></g><g id="Smile-3"><path id="_Ink-11" data-name=" Ink-11" d="M255,75.08a5.67,5.67,0,0,1-2.19-.44,6.14,6.14,0,0,1-2.59-2,1.16,1.16,0,0,1-.24-.93,1.3,1.3,0,0,1,.52-.84,1.33,1.33,0,0,1,.76-.27h.17a1.16,1.16,0,0,1,.79.53l0,.06a4.07,4.07,0,0,0,1.5,1.26,3.45,3.45,0,0,0,1.48.34,2.3,2.3,0,0,0,.37,0,3.79,3.79,0,0,0,1.63-.57,7.65,7.65,0,0,0,1.38-1.16l.34-.35a.58.58,0,0,1,.29-.22.52.52,0,0,1,.18,0,.63.63,0,0,1,.51.27.55.55,0,0,1,.1.37,3.67,3.67,0,0,1-.41,1.34,4.36,4.36,0,0,1-.88,1.12A5.78,5.78,0,0,1,256,75,5.31,5.31,0,0,1,255,75.08Zm1.54-8.72h0a5.31,5.31,0,0,1-1.89-.38,9.56,9.56,0,0,1-2.22-1.26.87.87,0,0,1-.3-.49.94.94,0,0,1,0-.55,1.19,1.19,0,0,1,.37-.54,1,1,0,0,1,.58-.23.8.8,0,0,1,.45.14l.16.11h0a11,11,0,0,0,1.38,1,3.43,3.43,0,0,0,1.67.53,1.82,1.82,0,0,0,1.35-.6,2,2,0,0,0,.38-1.62,3,3,0,0,0-.81-1.43,5.82,5.82,0,0,0-1.22-1,.37.37,0,0,1-.1-.44.61.61,0,0,1,.18-.27.63.63,0,0,1,.37-.12h.13a4.08,4.08,0,0,1,1.44.52,3.37,3.37,0,0,1,1,.9,3.6,3.6,0,0,1,.62,2.38,4.19,4.19,0,0,1-.32,1.25,3.73,3.73,0,0,1-.72,1.07A3.43,3.43,0,0,1,256.56,66.36Zm-12.27-8.52a1.18,1.18,0,0,1-.8-.31,1.24,1.24,0,0,1-.42-.81,9,9,0,0,1,.05-2.37c0-.23,0-.47.07-.72a1.46,1.46,0,0,1,.54-1,1.64,1.64,0,0,1,1-.35,1.18,1.18,0,0,1,.77.24,1.13,1.13,0,0,1,.43.75,6.34,6.34,0,0,1-.67,3.92,1.31,1.31,0,0,1-.44.52A1.08,1.08,0,0,1,244.29,57.84Zm18-.53a1.09,1.09,0,0,1-.85-.37,3.24,3.24,0,0,1-.52-.88,3.44,3.44,0,0,1-.26-1.05,2.22,2.22,0,0,1,.61-1.93,1.3,1.3,0,0,1,.1-.15,1.38,1.38,0,0,1,1.06-.61,1.13,1.13,0,0,1,.32,0,1.58,1.58,0,0,1,1.05.9,3.21,3.21,0,0,1,.12,1.76,5.65,5.65,0,0,1-.53,1.66,1,1,0,0,1-.46.45,1.34,1.34,0,0,1-.65.17Zm-23.44-5.65a.21.21,0,0,1-.17-.1.24.24,0,0,1,0-.22,7.46,7.46,0,0,1,1.67-2.12,10.7,10.7,0,0,1,2.24-1.53,9.74,9.74,0,0,1,2.67-.93l.28,0a7.48,7.48,0,0,1,1.16-.12,1.8,1.8,0,0,1,1.44.53,1.23,1.23,0,0,1,.28.87.76.76,0,0,1-.28.56,2.26,2.26,0,0,1-1.52.45h-1.06a10.92,10.92,0,0,0-2.26.39A15.35,15.35,0,0,0,239,51.63.19.19,0,0,1,238.86,51.66Zm27.41-1.15h0l-.12,0a6.14,6.14,0,0,1-1.31-.51l-.43-.21a12,12,0,0,0-1.52-.65,18,18,0,0,0-3.48-.77,1.33,1.33,0,0,1-.69-.26,1,1,0,0,1-.39-.6,1,1,0,0,1,.12-.89,1.15,1.15,0,0,1,.55-.47,1.18,1.18,0,0,1,.46-.09,1.27,1.27,0,0,1,.28,0l.21,0a15.83,15.83,0,0,1,3.75,1.22,7.61,7.61,0,0,1,1.65,1.09,4.87,4.87,0,0,1,1.17,1.5c0,.32,0,.4,0,.45h0v0a.3.3,0,0,1-.19.12Z"/></g><g id="Moustache_5-3" data-name="Moustache 5-3"><path id="_Ink-12" data-name=" Ink-12" d="M269.76,66.13c-.2-.6-1.24-.55-1.18.16a2.06,2.06,0,0,1-1,2.11,1.75,1.75,0,0,1-2.22-.67,12.69,12.69,0,0,0-1.28-1.82,4.62,4.62,0,0,0-1.79-1.11,3.57,3.57,0,0,0-1.59-.16,3.83,3.83,0,0,0-3.64,1.4,1,1,0,0,0-.15.2l-.26-.33a.73.73,0,0,0-.78-.26,4.74,4.74,0,0,0-5.22-.25c-1.35.79-2.46,2-4.12,2.06a2.52,2.52,0,0,1-2.83-2.12c-.05-.75-1.07-1.38-1.64-.68a5.15,5.15,0,0,0-.79,5.17,7,7,0,0,0,4,4,15.5,15.5,0,0,0,6.39,1.06A6.63,6.63,0,0,0,257,72.24a7.49,7.49,0,0,0,.41-.63,6.6,6.6,0,0,0,5.16,2.29c2.07,0,4.52-.32,6-1.93a6,6,0,0,0,1.23-5.84"/></g><g id="_None-3" data-name=" None-3"><rect id="accessories_None_background-3" data-name="accessories None background-3" class="cls-2" x="213.67" y="46.49" width="59.36" height="20.9"/></g><g id="Turtleneck-5"><path id="_Background-8" data-name=" Background-8" class="cls-1" d="M117.79,132c7.54-1.66,12-1.66,14.54-4.23s3-7,4-10.4c.58-1.88,6.24-3.59,11.74-3.32,4.48.22,9,2.11,9.34,3.32.78,2.69,2,14.21,6.13,16s12.87.16,15.38,4.39,10.74,21.46,10.74,25.48S109.22,166,109.22,166,110.25,133.66,117.79,132Z"/><path id="_Ink-17" data-name=" Ink-17" d="M84.46,228.81h0a3,3,0,0,1-1.9-.61,2.8,2.8,0,0,1-.74-.83,3.3,3.3,0,0,1-.37-1,10,10,0,0,1-.12-2.19v0s0-.1,0-.14l0-2.34c0-.78,0-1.56,0-2.33.06-2.65.11-5.35.15-7.95h0c.08-4.83.16-9.83.34-14.74.21-5.5.53-10.31,1-14.69.33-3.1.7-5.89,1.15-8.51.48-2.83,1.1-5.64,1.86-8.41.39-1.41.83-2.79,1.28-4.11s1-2.71,1.57-4,1.21-2.63,1.88-3.86,1.43-2.52,2.22-3.69a49,49,0,0,1,10-10.88,54.21,54.21,0,0,1,6.06-4.27,57.71,57.71,0,0,1,6.57-3.43,65,65,0,0,1,7.12-2.68c1.2-.36,2.44-.66,3.64-.95h0c1-.24,2.07-.49,3.1-.79a7.3,7.3,0,0,0,2.63-1.16h0l.06-.06.14-.12.2-.2.13-.13c.06-.08.11-.17.16-.25a3.8,3.8,0,0,0,.41-1.26h0l0-.11a7,7,0,0,1,.32-1.13,2.85,2.85,0,0,1,.65-1,3.82,3.82,0,0,1,1.33-.88,1.63,1.63,0,0,1,.69-.13,2.31,2.31,0,0,1,.52.06,2.23,2.23,0,0,1,.94-1h0s0,0,0,0a2.62,2.62,0,0,1,.32,1.48h0v.21c0,.35,0,.72,0,1.09a8.31,8.31,0,0,0,3.32,1.06l.45.08c2.35.43,4.17.7,5.9.87a45.29,45.29,0,0,0,4.55.23q.78,0,1.56,0c1,0,2-.09,3-.19.26,0,.56-.08.87-.14a9,9,0,0,1,1.46-.18,2.94,2.94,0,0,1,.51,0h0l.12,0c0-.12-.08-.25-.11-.37a2.77,2.77,0,0,1,0-1.11,1.22,1.22,0,0,1,.6-.89.6.6,0,0,1,.29-.08.63.63,0,0,1,.41.17,2.06,2.06,0,0,1,.47.69,2.42,2.42,0,0,0,.21.39,2,2,0,0,0,.32.38,10.81,10.81,0,0,1,1-.27,1.17,1.17,0,0,1,.32,0,1.3,1.3,0,0,1,1.1.61,10.21,10.21,0,0,1,1.49,3.93l.06.32h0a9.79,9.79,0,0,0,.36,1.49A3.36,3.36,0,0,0,167,130a1.48,1.48,0,0,1,.46,1,1.54,1.54,0,0,1-.36,1,34.38,34.38,0,0,1,5.34.69,29.71,29.71,0,0,1,5.12,1.58,14.89,14.89,0,0,1,2.71,1.49,15.82,15.82,0,0,1,2.34,2,16.36,16.36,0,0,1,1.91,2.4,17.45,17.45,0,0,1,1.48,2.72,36.23,36.23,0,0,1,1.66,4.76c.46,1.62.85,3.29,1.23,4.91.15.66.31,1.34.47,2,.47,2,1,3.95,1.47,5.88h0c.62,2.47,1.27,5,1.86,7.56q1.45,6.19,2.9,12.39l.07.31v0c1.05,4.52,2.15,9.19,3.22,13.78l1.76,7.53,0,.19c.46,1.95.91,3.89,1.37,5.84.25,1.08.51,2.18.75,3.24s.51,2.16.76,3.24l.41,1.77.42,1.77q.09.39.21.81h0a8.16,8.16,0,0,1,.41,2.34,2.39,2.39,0,0,1-1.55,2.27,9.76,9.76,0,0,1-3,.61l-.87.1-1.82.27h0c-1.53.23-3.12.47-4.68.57-.28,0-.57,0-.85,0a8.5,8.5,0,0,1-4.63-1.21l0,.29-.11.66a3.28,3.28,0,0,1-.19,1.24,2,2,0,0,1-.67,1,1.78,1.78,0,0,1-1.56.3,1.66,1.66,0,0,1-.68-.36h0a5.7,5.7,0,0,1-1.3.15l-4.24.11h-.14l-2.46.06-6.3.16c-12.52.32-22.13.49-31.15.53h-.26l-7.8,0c-2.86,0-5.37,0-7.66,0-3,0-5.48-.1-7.71-.17-1.4-.05-2.66-.1-3.94-.25l-.53-.05h0a4.91,4.91,0,0,1-1.92-.42,1,1,0,0,1-.59.2.72.72,0,0,1-.73-.61c-.31-1.33-.61-2.66-.91-4l-.3-1.31-.16.35h0c-.19.44-.39.9-.59,1.34l0,.09c-.28.65-.58,1.31-.82,2a4.06,4.06,0,0,1-.91,1.52,2.9,2.9,0,0,1-2.12.74,12.52,12.52,0,0,1-1.62-.16c-.3,0-.57-.08-.84-.1C98.23,227,97.11,227,96,227a31.15,31.15,0,0,0-5.1.42,36.16,36.16,0,0,0-4.35,1A7.43,7.43,0,0,1,84.46,228.81Zm.47-3.27a.06.06,0,0,0,0,.06h0S85,225.57,84.93,225.54Zm-.51-.37h0a.12.12,0,0,0,.1,0h0Z"/></g><g id="Bun_2" data-name="Bun 2"><path id="_Background-9" data-name=" Background-9" class="cls-1" d="M173.47,86.28c-.36-4.66.2-9.54-1.6-14C168.74,65,160,62.53,153.16,59.73c-2.72-.8-11.9-.92-15.09-2-7.22-2.42-8.95-5.29-14.69-.7a6.25,6.25,0,0,0-2,2.8h0a1.53,1.53,0,0,0,.29,1.34,9.35,9.35,0,0,0-2.25,9.74c4.16,8.82,4,13.58,2.62,23-1.75,8.85,2.26,12.08,8.89,16.89a1.63,1.63,0,0,0,0,1.68c7.67,10.78,22.14,15.93,34.53,10.46,5-2.24,7.28-7.6,8.56-12.44A34.69,34.69,0,0,0,174.8,94,69.1,69.1,0,0,1,173.47,86.28Z"/><path id="_Ink-18" data-name=" Ink-18" d="M156.37,126.24a22.39,22.39,0,0,1-5.47-.68,28.2,28.2,0,0,1-3.71-1.21,2.16,2.16,0,0,1-.95-.65.83.83,0,0,1-.2-.69.8.8,0,0,1,.85-.6,1.33,1.33,0,0,1,.45.07,34,34,0,0,0,3.68,1,23.5,23.5,0,0,0,4.65.53,15.51,15.51,0,0,0,1.93-.12,22.09,22.09,0,0,0,6.28-1.66,14.34,14.34,0,0,0,2.75-1.63,13.13,13.13,0,0,0,2.38-2.33,15.36,15.36,0,0,0,1.93-3.17,21.7,21.7,0,0,0,1.4-4.14,35.88,35.88,0,0,0,.78-5.26,58.53,58.53,0,0,0,.09-6.49c-.06-1.25-.16-2.52-.25-3.75-.12-1.43-.23-2.91-.27-4.37,0-1.06,0-2.14-.06-3.18,0-1.56,0-3.17-.1-4.75l0-.91c-.05-1.06-.1-2.1-.18-3.16,0-.13-.05-.26-.08-.38-.06-.28-.12-.57-.21-.85a17.87,17.87,0,0,0-1.24-3.16,1,1,0,0,1-.38.17,6.57,6.57,0,0,1-1.08.1,4.65,4.65,0,0,1-3.16-1.2,1.75,1.75,0,0,1-.39-.47h0a2.19,2.19,0,0,1-.67-.11,1.34,1.34,0,0,1-.54-.37,1.26,1.26,0,0,1-.31-.58,1.15,1.15,0,0,1,0-.58v0l0,0a5.78,5.78,0,0,1-2.07,2.56,6.38,6.38,0,0,1-2.28,1,11.6,11.6,0,0,1-2.49.29h-.24a35.15,35.15,0,0,1-5.32-.55c-.57-.09-1-.17-1.42-.27l0,0,0,0a5.28,5.28,0,0,1-1.68,1.09,5,5,0,0,1-1.9.37,5.25,5.25,0,0,1-2.11-.44,7.81,7.81,0,0,1-1.58-.93,10.69,10.69,0,0,1-1.35-1.25c0,.51,0,1-.08,1.41l0,.19a3.65,3.65,0,0,1-.9,2.42,2.21,2.21,0,0,1-1.6.62A4.06,4.06,0,0,1,138,78a7.18,7.18,0,0,1-1.1-.48v.1c.31,1,.62,2.1.92,3.12v0l.07.24.07.24.08.25h0a11,11,0,0,1,.5,2.2,2.82,2.82,0,0,1-.65,2.14,1.84,1.84,0,0,1-1.37.61,2.25,2.25,0,0,1-.68-.11,5.71,5.71,0,0,1-2.06-1.38h0l-.35-.31-.45-.39a52.77,52.77,0,0,1,1.44,5.83,38.23,38.23,0,0,1,.62,6,.41.41,0,0,1-.39.39h-.13a3.69,3.69,0,0,1-1.35-.27h-.09a5.66,5.66,0,0,1-2.27-.86,4.27,4.27,0,0,1,.19,1.59.14.14,0,0,1-.15.12.12.12,0,0,1-.11-.09,3.7,3.7,0,0,0-1.44-2.18,4.8,4.8,0,0,0-1.2-.65,3.88,3.88,0,0,0-1.31-.23,2.56,2.56,0,0,0-.62,0,4.82,4.82,0,0,0-2.64,1.5,5.73,5.73,0,0,0-.86,1.26,5.46,5.46,0,0,0-.49,1.46,7.46,7.46,0,0,0,.21,3.39,9.41,9.41,0,0,0,.64,1.62,7.79,7.79,0,0,0,.94,1.4,4.4,4.4,0,0,0,2.55,1.59,3,3,0,0,0,.52,0A3.35,3.35,0,0,0,128,106a3.8,3.8,0,0,0,.47-.18l.1,0a2.62,2.62,0,0,1,.4-.11,2.23,2.23,0,0,0,.44-.13.73.73,0,0,1,.3-.06.62.62,0,0,1,.64.6.73.73,0,0,1-.08.33,2.46,2.46,0,0,1-.91,1.13,7.7,7.7,0,0,1,.6.89c.08.12.13.21.17.26a27,27,0,0,0,1.86,2.27,19.34,19.34,0,0,0,2.21,2l.33.26a8.14,8.14,0,0,1,2,2,1,1,0,0,1,0,1,1.06,1.06,0,0,1-.37.39.92.92,0,0,1-.53.16h0a4.28,4.28,0,0,1-1.72-.39,5.84,5.84,0,0,1-1.49-1,14,14,0,0,1-2.33-2.75c-.17-.26-.35-.55-.51-.85a1.57,1.57,0,0,1-.19.26l.14.38a.84.84,0,0,1-.09.81,1.07,1.07,0,0,1-.43.36,1.17,1.17,0,0,1-.55.13.9.9,0,0,1-.48-.12.88.88,0,0,1-.36-.38,14.36,14.36,0,0,0-1.31-2.15,1.1,1.1,0,0,1-.73-.44l-.39-.57c-.28-.39-.57-.79-.83-1.21-.19-.18-.41-.37-.64-.57l0,0h0l-.15.14a8.1,8.1,0,0,1-1,1.74l-.09.11a8.74,8.74,0,0,1-1.4,1.45,4.09,4.09,0,0,1-1.77.87H119a.52.52,0,0,1-.46-.32.39.39,0,0,1,.11-.43c.39-.33.79-.64,1.21-.93a8.87,8.87,0,0,0,2.75-2.83l.08-.12c0-.08.1-.17.17-.27l-1.15-.78a9.52,9.52,0,0,1-2.1,1.26,13.63,13.63,0,0,0-1.46.78l-.11.08a1.12,1.12,0,0,1-.55.18,1,1,0,0,1-.58-.21,1.23,1.23,0,0,1-.39-.51,1,1,0,0,1,.21-1.16,23.25,23.25,0,0,0,1.86-2.24h0c.21-.28.43-.57.65-.84a6.25,6.25,0,0,1-.64-2.4c0-.24,0-.49-.06-.72h0a2.92,2.92,0,0,1-1.64-.54l-.19-.13a5.57,5.57,0,0,1-1.72.27h-.14a1.56,1.56,0,0,1-.88-.28,1.47,1.47,0,0,1-.53-.65,1.63,1.63,0,0,1-.12-.9,1.74,1.74,0,0,1,.41-.89,3.18,3.18,0,0,1,2.42-1,3.6,3.6,0,0,1,1.37.27l.12-.07a1.36,1.36,0,0,1,0-.75l0-.14a3.46,3.46,0,0,1-.49-2.66c0-.09.06-.18.1-.27a.78.78,0,0,0,0-.14,2.83,2.83,0,0,1-.19-.8.76.76,0,0,0-.08-.11,2.14,2.14,0,0,1-.41-1.4,2.2,2.2,0,0,1,.51-1.27.66.66,0,0,1,0-.14c0-.07-.07-.15-.1-.24a2.68,2.68,0,0,1-.93-2.18,2.18,2.18,0,0,1,.58-1.33.74.74,0,0,1,0-.53,6.48,6.48,0,0,1-.38-2.22,10.28,10.28,0,0,1,.3-2.34,1.91,1.91,0,0,1-.12-.75,2.33,2.33,0,0,1,.67-1.51,2.47,2.47,0,0,1,.68-.48,2,2,0,0,1,.82-.18h0a1.74,1.74,0,0,1,.39,0v0a3.09,3.09,0,0,1,.28-.94.42.42,0,0,1-.18-.11,10.68,10.68,0,0,1-2.37.92l-.18,0a.87.87,0,0,1-.71-.44.66.66,0,0,1,0-.69,5.08,5.08,0,0,1,.58-.72,6.8,6.8,0,0,0-.9.06h-.14a1.33,1.33,0,0,1-.75-.23,2,2,0,0,1-.62-.58l-1.33,1.28h0a1.71,1.71,0,0,1-1.2.51,1.76,1.76,0,0,1-1.18-.46,1.9,1.9,0,0,1-.62-1.19,2.57,2.57,0,0,1-.92-.46,15.75,15.75,0,0,1-2.75.89,15.57,15.57,0,0,1-2.88.38h-.07a1.62,1.62,0,0,1-.86-.24,1.87,1.87,0,0,1-.6-.62,2,2,0,0,1-.26-.92,1.71,1.71,0,0,1,.23-.94,8.73,8.73,0,0,1,1.61-2.07,18.36,18.36,0,0,1-3,.65h-.12a1.68,1.68,0,0,1-.85-.27,1.58,1.58,0,0,1-.6-.63,6.76,6.76,0,0,1,.2-5.92,1.62,1.62,0,0,0,.1-.18h0l0,0q.15-.39.33-.75a3.85,3.85,0,0,1-1-2.23,4.93,4.93,0,0,1,.37-2.46,1.58,1.58,0,0,1-.19-1.4,12.78,12.78,0,0,1,.92-1.9,11.41,11.41,0,0,1,1.23-1.69,3.74,3.74,0,0,1-.41-1.77,4.31,4.31,0,0,1,.18-1.23,4.64,4.64,0,0,1,1.29-2.1,6.28,6.28,0,0,1,2.56-1.36,7.39,7.39,0,0,1,1.49-1.85h0a1,1,0,0,1,.07-.15,5.28,5.28,0,0,1,1.85-2,5.49,5.49,0,0,1,1.2-.57,7.52,7.52,0,0,1,1.31-.3,2,2,0,0,1,.37-.93,1.67,1.67,0,0,1,.82-.59,5.66,5.66,0,0,1,.82-1.65,2.49,2.49,0,0,1,.72-.65,1.73,1.73,0,0,1,1.76,0,12.6,12.6,0,0,1,1.44,1,1.8,1.8,0,0,1,.69-.17h.06l1.5-.07,1.18-.54.69-.32a5,5,0,0,1,2.83-1.14c.43-.14.87-.26,1.31-.36a14.46,14.46,0,0,1,3.08-.34h.12a8.19,8.19,0,0,0,0-.85v-.14a1.69,1.69,0,0,1,.46-1.19,1.84,1.84,0,0,1,1.11-.59,1.32,1.32,0,0,1,.28,0,1.56,1.56,0,0,1,1,.36,2.14,2.14,0,0,1,.66.91l0,0a8.06,8.06,0,0,0,.36.81,6.55,6.55,0,0,1,1.37-.48,6.71,6.71,0,0,1,1.48-.16,5.63,5.63,0,0,1,2.42.51,4.3,4.3,0,0,1,1,.66,4.38,4.38,0,0,1,.83.94,3.62,3.62,0,0,1,.47,1.15,4.83,4.83,0,0,1,.1,1.2,13.52,13.52,0,0,1-.43,2.45c0,.19-.09.38-.13.57l-.26,1.16a1.93,1.93,0,0,1,.63.64,1.49,1.49,0,0,1,.23.85v0l-.1,1.61a8.71,8.71,0,0,0,.91-1.1c.2-.36.4-.7.62-1a1.77,1.77,0,0,1,1.5-.86,1.92,1.92,0,0,1,1.6.9,1.75,1.75,0,0,1,0,1.78,10.21,10.21,0,0,1-.68,1.15,10.08,10.08,0,0,0-.68,1.67,1.58,1.58,0,0,1,.93,1.44,4.17,4.17,0,0,1-.55,2.33,4.49,4.49,0,0,1-.72,1,5.13,5.13,0,0,1-1,.77,1.63,1.63,0,0,1-.88.27,1.65,1.65,0,0,1-.38,0l-.2.29A8.81,8.81,0,0,1,141.25,58a27.1,27.1,0,0,1,4-.3,7.49,7.49,0,0,1,3.26-.68,13.46,13.46,0,0,1,2.11.19,21.15,21.15,0,0,1,2.12.52h0l1.23.33a17.08,17.08,0,0,0,2.13.31c.47.05,1,.1,1.43.17a6.64,6.64,0,0,1,2.08.7,4.85,4.85,0,0,1,1.57,1.35,5.39,5.39,0,0,1,2.66.9l3.56,2.29h0l2,1.26a1.88,1.88,0,0,1,.84,2v.06l-.06.33.15.21.12.18a12.3,12.3,0,0,1,1.42,2.33,26.68,26.68,0,0,1,1.82,3,22.1,22.1,0,0,1,1.74,4.45,12.09,12.09,0,0,1,.27,1.18,3,3,0,0,1-.07,1.15h0l-.06.38c-.05.32-.08.66-.12,1s-.07.72-.12,1.07A.74.74,0,0,1,175,83a1,1,0,0,1-.55.18c.15,1.15.26,2.29.36,3.46.16,1.79.26,3.58.34,5a3.89,3.89,0,0,0,2,1.33,2.76,2.76,0,0,0,.75.1,6,6,0,0,0,2-.43l.19,0a.61.61,0,0,1,.51.33.65.65,0,0,1,0,.65,2.36,2.36,0,0,1-1,.92,2.71,2.71,0,0,1-1.25.27,4,4,0,0,1-1.73-.4,3.78,3.78,0,0,1-1.44-1.16c0,.46.05.92.07,1.36h0v.07l0,.43c0,.85.1,1.71.15,2.55.13,2.11.27,4.29.28,6.43,0,1.16,0,2.21-.11,3.21a28.36,28.36,0,0,1-.42,3.17,19.76,19.76,0,0,1-2.22,6.08,19.45,19.45,0,0,1-3.93,4.92,18.75,18.75,0,0,1-5.27,3.38,18.42,18.42,0,0,1-6.24,1.47C157.17,126.23,156.77,126.24,156.37,126.24ZM128.17,108h0l-.45.07v0a3.05,3.05,0,0,1,.13.32l.37.19a2.43,2.43,0,0,1-.05-.6Zm-7.68-2,.39,0v0h0l-.07,0a3.38,3.38,0,0,1-.41-.24l-.1.19-.05.08h.25Zm-2-27.38c-.16,0-.21.08-.21.13s0,0,0,0h0s.06,0,.12-.11l0-.06Zm17.32-20.82a11.1,11.1,0,0,0-4.47,1.19,20.7,20.7,0,0,0-3.9,2.5A26,26,0,0,0,124.69,64a35.66,35.66,0,0,0-2.43,2.91c-.39,1-.72,2-1,3.07-.12.44-.21.89-.3,1.33h0c0,.24-.1.49-.16.74l0,.21a2.82,2.82,0,0,0-.28.73,2.16,2.16,0,0,0,1,.57.6.6,0,0,1,.32.18,6.88,6.88,0,0,0,.76-1.68v0c.62-1,1.28-2,2-2.9a39,39,0,0,1,3.11-3.68,29.6,29.6,0,0,1,3.6-3.21,23.39,23.39,0,0,1,3.11-2,21.93,21.93,0,0,1,3.39-1.43A7.07,7.07,0,0,0,135.84,57.75Zm-5.49,44.13h0a3.46,3.46,0,0,1-2.19-1.47c-.22-.24-.42-.48-.64-.68a14.33,14.33,0,0,0-3-2.17.17.17,0,0,1-.08-.19.17.17,0,0,1,.15-.14h0a11.91,11.91,0,0,1,1.89.24,8.26,8.26,0,0,1,1.81.63l.1.05a8.12,8.12,0,0,1,1.81,1.14,2.87,2.87,0,0,1,.69.82,1.66,1.66,0,0,1,.21,1,1,1,0,0,1-.23.54A.67.67,0,0,1,130.35,101.88Z"/></g><g id="Smile-5"><path id="_Ink-19" data-name=" Ink-19" d="M161.74,114.45a5.67,5.67,0,0,1-2.19-.44,6.14,6.14,0,0,1-2.59-2,1.2,1.2,0,0,1-.24-.93,1.3,1.3,0,0,1,.52-.84A1.33,1.33,0,0,1,158,110l.18,0a1.16,1.16,0,0,1,.79.52l0,.06a4.06,4.06,0,0,0,1.5,1.26,3.45,3.45,0,0,0,1.48.34,2.3,2.3,0,0,0,.37,0,3.79,3.79,0,0,0,1.63-.57,7.32,7.32,0,0,0,1.38-1.16l.34-.35a.58.58,0,0,1,.29-.22.57.57,0,0,1,.18,0,.61.61,0,0,1,.51.27.55.55,0,0,1,.1.37,3.32,3.32,0,0,1-.41,1.34,4.32,4.32,0,0,1-.87,1.12,5.54,5.54,0,0,1-1.33.92,5.46,5.46,0,0,1-1.47.51A5.31,5.31,0,0,1,161.74,114.45Zm1.54-8.72h0a5.31,5.31,0,0,1-1.89-.38,9.49,9.49,0,0,1-2.21-1.26.8.8,0,0,1-.31-.49,1,1,0,0,1,0-.55,1.28,1.28,0,0,1,.37-.54,1,1,0,0,1,.59-.23.82.82,0,0,1,.45.14l.15.12h0a13.08,13.08,0,0,0,1.38,1,3.43,3.43,0,0,0,1.67.53,1.82,1.82,0,0,0,1.35-.6,2,2,0,0,0,.39-1.62,3.14,3.14,0,0,0-.81-1.43,6.14,6.14,0,0,0-1.23-1,.37.37,0,0,1-.1-.44.56.56,0,0,1,.19-.27.58.58,0,0,1,.36-.12h.13a3.91,3.91,0,0,1,1.44.53,3.22,3.22,0,0,1,1,.89,3.6,3.6,0,0,1,.62,2.38,4.11,4.11,0,0,1-.32,1.25,3.54,3.54,0,0,1-.72,1.07A3.41,3.41,0,0,1,163.28,105.73ZM151,97.21a1.2,1.2,0,0,1-.8-.31,1.22,1.22,0,0,1-.42-.81,9,9,0,0,1,.05-2.37c0-.23.06-.47.08-.72a1.41,1.41,0,0,1,.53-1,1.64,1.64,0,0,1,1-.35,1.24,1.24,0,0,1,.77.24,1.13,1.13,0,0,1,.43.76,6.32,6.32,0,0,1-.67,3.91,1.23,1.23,0,0,1-.44.52A1,1,0,0,1,151,97.21Zm18-.53a1.05,1.05,0,0,1-.85-.37,3.35,3.35,0,0,1-.52-.87,3.58,3.58,0,0,1-.26-1.06,2.23,2.23,0,0,1,.61-1.93l.1-.15a1.38,1.38,0,0,1,1.06-.61,1.26,1.26,0,0,1,.33,0,1.55,1.55,0,0,1,1,.91,3.26,3.26,0,0,1,.13,1.75,6,6,0,0,1-.54,1.66,1,1,0,0,1-.46.46,1.44,1.44,0,0,1-.64.16ZM145.58,91a.21.21,0,0,1-.17-.1.22.22,0,0,1,0-.21,7.23,7.23,0,0,1,1.68-2.12,10.14,10.14,0,0,1,2.24-1.54,9.54,9.54,0,0,1,2.66-.92l.28,0a6.44,6.44,0,0,1,1.16-.13,1.8,1.8,0,0,1,1.44.53,1.24,1.24,0,0,1,.29.87.81.81,0,0,1-.29.56,2.24,2.24,0,0,1-1.52.45h-1.06a10.09,10.09,0,0,0-2.25.38A15.27,15.27,0,0,0,145.68,91,.19.19,0,0,1,145.58,91ZM173,89.88h0l-.12,0a6.35,6.35,0,0,1-1.31-.51l-.43-.21a12,12,0,0,0-1.52-.65,18,18,0,0,0-3.48-.77,1.33,1.33,0,0,1-.69-.26,1.15,1.15,0,0,1-.27-1.48,1.12,1.12,0,0,1,.55-.48,1.27,1.27,0,0,1,.47-.09,1.24,1.24,0,0,1,.27,0l.21,0a15.36,15.36,0,0,1,3.75,1.21,7.61,7.61,0,0,1,1.65,1.09,4.66,4.66,0,0,1,1.17,1.51c0,.31,0,.39,0,.44v0h0a.28.28,0,0,1-.19.12Z"/></g><g id="Moustache_5-5" data-name="Moustache 5-5"><path id="_Ink-20" data-name=" Ink-20" d="M176.48,105.5c-.2-.6-1.24-.55-1.18.16a2.06,2.06,0,0,1-1,2.11,1.75,1.75,0,0,1-2.22-.67,12.63,12.63,0,0,0-1.27-1.82,4.77,4.77,0,0,0-1.79-1.11,3.75,3.75,0,0,0-1.59-.16,3.87,3.87,0,0,0-3.65,1.4l-.15.2-.26-.33a.72.72,0,0,0-.77-.26,4.76,4.76,0,0,0-5.23-.25c-1.35.79-2.46,2-4.11,2.06a2.52,2.52,0,0,1-2.84-2.12c0-.75-1.07-1.38-1.64-.68a5.15,5.15,0,0,0-.78,5.17,7,7,0,0,0,4,4,15.5,15.5,0,0,0,6.39,1.06,6.63,6.63,0,0,0,5.32-2.61,6.16,6.16,0,0,0,.41-.63,6.57,6.57,0,0,0,5.16,2.29c2.07,0,4.52-.32,6-1.93a6,6,0,0,0,1.23-5.84"/></g><g id="_None-5" data-name=" None-5"><rect id="accessories_None_background-5" data-name="accessories None background-5" class="cls-2" x="120.39" y="85.86" width="59.36" height="20.9"/></g></g></g></svg>