<svg xmlns="http://www.w3.org/2000/svg" viewBox="0 0 166.75 251.79"><defs><style>.cls-1{fill:#fff;}.cls-2{fill:none;}</style></defs><g id="Livello_2" data-name="Livello 2"><g id="Livello_1-2" data-name="Livello 1"><g id="bust-53"><g id="Tee_2-2" data-name="Tee 2-2"><path id="_Background-101" data-name=" Background-101" class="cls-1" d="M4.22,249.73l-1.9-38.39,2.11-37.45,151.37,12,.16,1c1.26,8.22,2.22,15.22,2.86,20.8a128.12,128.12,0,0,1,1,12.83v.18a44.57,44.57,0,0,0,.34,5c.22,1.89.56,4,1,6.33.89,4.63,2.25,10.2,4,16.54l.23.79Zm82.12-85.28c-13.16,0-28.54-.14-45.73-.4.23-7.49.66-14.19,1.27-19.9.3-2.86.65-5.53,1-7.94s.84-4.64,1.33-6.6a45.78,45.78,0,0,1,1.61-5.27,22.82,22.82,0,0,1,1.89-3.92,10.8,10.8,0,0,1,2.17-2.59,6,6,0,0,1,2.45-1.25l.62-.13c2.6-.57,4.94-1,7-1.38,5.92-1.08,9.83-1.8,12.35-4.4A11.24,11.24,0,0,0,74,108.41a18.33,18.33,0,0,0,1.23-2.66,51,51,0,0,0,1.66-5.83h0c.32-1.32.62-2.57,1-3.76a3.61,3.61,0,0,1,1.6-1.76,15,15,0,0,1,3.32-1.49,28.77,28.77,0,0,1,4.5-1,36.68,36.68,0,0,1,5.13-.39c.53,0,1.07,0,1.59,0a29.17,29.17,0,0,1,8.54,1.8,16.11,16.11,0,0,1,3,1.44,3.05,3.05,0,0,1,1.34,1.39c.22.78.47,2.06.78,3.69a88.21,88.21,0,0,0,2.58,10.88,23.51,23.51,0,0,0,2.15,4.87,9.25,9.25,0,0,0,1.35,1.76,5.12,5.12,0,0,0,1.57,1.12c2.1.92,5.06,1.18,8.19,1.46a43.49,43.49,0,0,1,7.62,1.11,11.44,11.44,0,0,1,3.12,1.32,7.32,7.32,0,0,1,1.24,1,6.43,6.43,0,0,1,1,1.24c.86,1.48,2.23,4.12,3.76,7.26,1.65,3.39,3.4,7.17,4.91,10.63,1.79,4.1,3.23,7.66,4.27,10.58,1.2,3.4,1.82,5.79,1.82,7.09,0,.36-.34.7-1,1a14.66,14.66,0,0,1-3,.87A101.16,101.16,0,0,1,135,163.37c-5.38.36-12.2.63-20.27.8S97.09,164.45,86.34,164.45Z"/><path id="_Ink-191" data-name=" Ink-191" d="M34.51,251.79a1.09,1.09,0,0,1-.9-.51,9.08,9.08,0,0,1-1.22-3.05,25.55,25.55,0,0,1-.5-3.35l-.08-.78c-.27-2.7-.47-5.08-.62-7.28-.28-4.38-.47-8.72-.56-12.91-.09-4.37-.07-8.72.05-12.93.14-4.69.59-9.27,1-13.13.16-1.51.32-2.85.47-4.08v-.92l-.05-1.31c0-1-.06-2.16-.08-3.28v-1.88a14.12,14.12,0,0,1-2-.39c-.37-.08-.71-.17-1-.23-1.4-.26-2.87-.55-4.36-.87-2.75-.59-5.58-1.31-8.64-2.19l-.61-.17a56.67,56.67,0,0,1-7.8-2.71,14.42,14.42,0,0,1-2.8-1.61c0,.33,0,.66-.08,1s-.07.74-.1,1.1c0,.64-.09,1.29-.13,1.92h0c-.06.7-.11,1.43-.16,2.15l-.09,1.29c-.13,2-.27,4.26-.32,6.47-.3,11.07-.24,20.06.2,28.31.26,5.08.62,9.7,1.1,14.13.23,2.07.5,4.52.84,6.92.13.93.31,1.86.48,2.77a42.26,42.26,0,0,1,.65,4.33,1.72,1.72,0,0,1-.42,1.32,2.07,2.07,0,0,1-1.53.61,2.15,2.15,0,0,1-1.2-.35,1.82,1.82,0,0,1-.77-1,40.32,40.32,0,0,1-1-5.68c-.09-.7-.18-1.44-.28-2.15L2,241c-.36-2.51-.7-5.22-1-8.29-.48-4.77-.79-9.6-.9-14.34S0,208.75.26,204c.21-4,.68-8.33,1.5-13.7l.08-.52c.07-.49.15-1,.22-1.47.23-1.52.47-3.08.74-4.62l.14-.76c.08-.44.15-.89.23-1.33a33,33,0,0,1,.85-4l-.16-.14A6,6,0,0,1,3,176.5a1.63,1.63,0,0,1-1-.5,1.52,1.52,0,0,1-.36-1.18A25.17,25.17,0,0,1,2.59,170c.44-1.59,1-3.16,1.51-4.67l0-.07.14-.4a91.54,91.54,0,0,1,3.81-9.35,86.68,86.68,0,0,1,9.2-15.19,85.57,85.57,0,0,1,12.09-13,75.57,75.57,0,0,1,7.45-5.77c1.33-.9,2.68-1.73,4-2.48s2.8-1.51,4.2-2.15a36.44,36.44,0,0,1,8.82-2.82,32.07,32.07,0,0,1,4.59-.51A3,3,0,0,1,60,113.2a4.31,4.31,0,0,1,2.4.8l.07,0h0l.31.06a.08.08,0,0,1,0,.08.09.09,0,0,1,0,.08h0a4.44,4.44,0,0,1,.56.5,1.54,1.54,0,0,1,.47.94,1.62,1.62,0,0,1-.19.94,13.94,13.94,0,0,1,2.17,2.62c.63.95,1.19,2,1.74,3v0l.16.27a20.37,20.37,0,0,0,2.17,3.19,20.64,20.64,0,0,0,2.73,2.72,29,29,0,0,0,4.32,3,31.35,31.35,0,0,0,10,3.61,30.15,30.15,0,0,0,5.28.49,26,26,0,0,0,7.78-1.16,21.19,21.19,0,0,0,4.84-2.22,22,22,0,0,0,4.17-3.35,21,21,0,0,0,3.2-4.24,18.87,18.87,0,0,0,1.93-4.91,1.9,1.9,0,0,1-.63.11,1.52,1.52,0,0,1-.55-.1,3.86,3.86,0,0,1-1.92-1.6,14.36,14.36,0,0,1-1.14-2.33c0-.13-.1-.26-.16-.38l0-.08a36.32,36.32,0,0,1-1.71-5,27,27,0,0,1-.83-5.28,16.35,16.35,0,0,1,0-2.1l0-.58v-.08a1.57,1.57,0,0,1,.45-1.3l0,0h0a1.43,1.43,0,0,1,.69,1h0l.06.16c.15.44.32.89.49,1.32h0c.09.25.19.5.28.76l.31.84h0c.4,1.09.81,2.22,1.27,3.32s1.12,2.65,1.89,4.16c.36.7.74,1.38,1.06,2,.09.15.17.31.26.5h0a4.74,4.74,0,0,0,.57,1,1.7,1.7,0,0,1,.1-.37l-.13.07h0a.11.11,0,0,1-.09,0,.17.17,0,0,1,0-.1,1.77,1.77,0,0,1,.69-.64.93.93,0,0,1,.57-.11,22.73,22.73,0,0,1,4,.63c1.93.43,4.12,1,6.18,1.7,3.07,1,8.58,3,11,5.37a64.47,64.47,0,0,1,5.64,6.38,70,70,0,0,1,4.71,7,77.22,77.22,0,0,1,3.86,7.45c1.13,2.49,2.16,5.12,3.09,7.82,1.43,4.2,2.81,8.5,4.14,12.66v0c.52,1.62,1.06,3.31,1.6,5,1,3.21,2.11,6.46,3.16,9.6h0c1,3,2,6,3,9a2.09,2.09,0,0,1,.09,1,2.35,2.35,0,0,1-.33.88,3.06,3.06,0,0,1-1.49,1.19c-2.33.86-4.63,1.65-6.86,2.35a103.76,103.76,0,0,1,2.46,13.07c.44,3.42.74,6.91,1,10.29h0c.23,2.8.48,5.7.81,8.54.36,3.18.79,6,1.3,8.45.44,2.2,1,4.33,1.51,6.12l.13.46c.07.27.15.54.21.78h0c.25.92.51,1.86.83,2.77.11.32.24.64.36.95a17.09,17.09,0,0,1,.7,2.09,3.16,3.16,0,0,1-.1,1.8,2.6,2.6,0,0,1-1.17,1.36,2.08,2.08,0,0,1-1.06.26,2,2,0,0,1-1-.22,1.76,1.76,0,0,1-.74-.69,1.42,1.42,0,0,1-.2-.61c-.09-.18-.16-.36-.23-.54l-.07-.22-.07-.22c-.16-.52-.31-1.06-.45-1.58-.24-.85-.48-1.69-.75-2.53l-.14-.42c-.67-2-1.27-4.11-1.77-6.12-.42-1.64-.77-3.33-1.07-5.17-.28-1.63-.51-3.34-.72-5.22-.39-3.5-.63-7.07-.85-10.52h0l-.12-1.72,0-.39c-.28-4.08-.43-7.22-.47-10.18a96.74,96.74,0,0,1,.3-10.17l-.08,0-.08,0-2.2.65h0l-.05,0-1.45.41-.3.08-.21,0-.22.07-.2,0a6.39,6.39,0,0,1-1.84.36h-.1a23,23,0,0,1-3.62.31c.4,6.48.83,12.4,1.31,18.13.53,6.33,1.26,12.69,1.89,18.16.37,3.21.74,6.13,1.13,8.94.23,1.68.44,3.09.7,4.5.06.3.12.62.19.93a9.89,9.89,0,0,1,.29,3.79h0a1.73,1.73,0,0,1-.84,1.12,1.78,1.78,0,0,1-.93.25,1.93,1.93,0,0,1-.94-.24,1.7,1.7,0,0,1-.7-.68l-.12-.23a4.37,4.37,0,0,1-1.75.31l-9.28.09-12.66.15-12.59.19h0c-8.9.14-18.11.28-27.16.39l-5,.06-7.31.09h0c-4.89.07-9.93.14-14.9.14h-.15c-4.16,0-7.65,0-11.18-.1-1.7,0-3.4-.1-5.41-.19h-.32l-.49,0c-.58,0-1.17-.06-1.75-.06a9.59,9.59,0,0,0-2.14.21A1.14,1.14,0,0,1,34.51,251.79ZM67.9,116.58a1.8,1.8,0,0,1-1.3-.61,2.7,2.7,0,0,1-.66-1.38,2,2,0,0,1,.18-1.25,1.82,1.82,0,0,1,1.09-.85,14.68,14.68,0,0,0,3.87-2.91A20.47,20.47,0,0,0,74,105.71a28.08,28.08,0,0,0,2.25-4.61c.27-.75.5-1.51.71-2.25h0c.26-.87.52-1.76.86-2.62a.13.13,0,0,1,.1-.07s0,0,.07,0a8.17,8.17,0,0,1,.74,2.69,12.32,12.32,0,0,1,0,2.91A18.5,18.5,0,0,1,77,107.29a19.49,19.49,0,0,1-3,4.45,27.1,27.1,0,0,1-3.9,3.59c-.38.29-.78.58-1.2.88A1.89,1.89,0,0,1,67.9,116.58Z"/></g><g id="Mohawk"><path id="_Background-102" data-name=" Background-102" class="cls-1" d="M124.89,54c.1-5.3-.39-10.74-3-15.48a51,51,0,0,0-9-11.9c-1.41-1.49-3.31-3-3.14-5.27s1.62-7.55,1.84-9.95c.44-4.73-2.94-6-6.9-8.28C100,.43,94.3.74,89.13,2,79.49,4.26,68,8.08,64.39,18.29c-.87,2.52-.65,5.18-.83,7.79a22.33,22.33,0,0,1-2.08,7c-5,11-4.92,23.25-4,35.11a7.64,7.64,0,0,0-5.8,5.44c-1,4.81,4.07,7,7,9.63C62.35,86.44,65,90.55,68.29,94,89.72,117.67,137,106.79,127.18,70,125.85,64.74,124.69,59.45,124.89,54Z"/><path id="_Ink-192" data-name=" Ink-192" d="M100,109.16h-.42a26.89,26.89,0,0,1-5.94-.72,16.35,16.35,0,0,1-5.48-2.34,2.16,2.16,0,0,1-.86-1.07,1.81,1.81,0,0,1,0-1.15,2.05,2.05,0,0,1,2-1.43,2.29,2.29,0,0,1,.93.2l.63.26a26.41,26.41,0,0,0,5,1.67,21.77,21.77,0,0,0,4.27.42c.53,0,1.08,0,1.64-.06a24.46,24.46,0,0,0,10.77-3.43,33.38,33.38,0,0,0,4.24-2.94,41.89,41.89,0,0,0,3.78-3.52l.26-.28A42.39,42.39,0,0,0,124,91a20.65,20.65,0,0,0,2.51-4.31,10.49,10.49,0,0,0,.71-2.44,7.67,7.67,0,0,0,0-2.53,21.52,21.52,0,0,0-1-3.42c-.25-.73-.52-1.49-.72-2.25a37.76,37.76,0,0,1-1-5.5c-.19-1.66-.32-3.49-.38-5.58v-.29c0-1.47,0-3-.06-4.41,0-3,0-6.18-.33-9.23a43.35,43.35,0,0,0-.66-4.55A31.61,31.61,0,0,0,121.85,42a26.8,26.8,0,0,0-1.62-3.53,34.56,34.56,0,0,0-2-3.3c-1.45-2.13-3.1-4.19-4.7-6.18-1.1-1.37-2.24-2.78-3.29-4.21l-.1.47c-.17.75-.34,1.53-.51,2.29l-.24,1.1c-.16.72-.32,1.47-.5,2.2l0,.08a.57.57,0,0,1-.16.67l0,0,0,0a1.92,1.92,0,0,1-.44.65,1.63,1.63,0,0,1-.77.4,2,2,0,0,1-.35,0,1.22,1.22,0,0,1-1-.61l-3.24,0-1.59,0c-.6,0-1.21,0-1.82,0A13.7,13.7,0,0,1,96.45,32a.26.26,0,0,1-.22-.26.33.33,0,0,1,.22-.33,20.16,20.16,0,0,1,4.58-.65c.54,0,1-.07,1.55-.12l3.13-.29.42-.05.21,0,1.09-4.85c.11-.5.23-1,.34-1.5.32-1.4.65-2.84.94-4.27.7-3.45,1.49-6.95,2.25-10.32h0l0-.09a26.49,26.49,0,0,0-6.39-.78c-.36,0-.73,0-1.09,0h-.29a10.61,10.61,0,0,0-1.49.16,3.68,3.68,0,0,0-1.36.55,3.91,3.91,0,0,0-1.22,2.72c0,.2-.06.39-.1.57-.68,3.38-1.13,6.75-1.45,9.31-.12,1-.22,2-.33,3h0c-.05.51-.1,1.05-.16,1.57,0,.24,0,.48-.07.72,0,.44-.09.9-.16,1.34a10.3,10.3,0,0,1-.25,1.1,7.54,7.54,0,0,0-.2.82,1.08,1.08,0,0,1-.23.9,1.21,1.21,0,0,1-.93.48,1,1,0,0,1-.73-.35c-.29-.33-.57-.68-.85-1a23.36,23.36,0,0,0-1.94-2.16,20.58,20.58,0,0,0-3.43-2.59,24.87,24.87,0,0,0-3.85-1.87,38.68,38.68,0,0,0-4.07-1.33.26.26,0,0,1-.17-.15,39.08,39.08,0,0,0-8.06,3.25,25.81,25.81,0,0,0-7.68,6.38A24.64,24.64,0,0,0,61.73,36a23.11,23.11,0,0,0-1.83,4.67,37,37,0,0,0-1.07,6.18c-.18,1.85-.26,3.84-.27,6.27a35.15,35.15,0,0,0,.34,5.8,26.88,26.88,0,0,0,1.19,4.39c.18.55.37,1.12.54,1.69a2,2,0,0,1-.05,1.41l.16,0a10.94,10.94,0,0,1,2.39.63c1,.4,1.51.91,1.6,1.52a.59.59,0,0,1-.11.5.6.6,0,0,1-.44.23h-.12a2,2,0,0,1-1.2-.54l-.4-.28-.28-.16,0,0,0,0-.05,0a4.61,4.61,0,0,0-2.27-.6A5.85,5.85,0,0,0,56,69.21a6.76,6.76,0,0,0-1.37,1.6,6,6,0,0,0-.79,1.9,8,8,0,0,0-.17,2.43,7.7,7.7,0,0,0,.53,2.36,6.67,6.67,0,0,0,1.24,2,5.84,5.84,0,0,0,2,1.42c.5.23,1,.44,1.54.64A15,15,0,0,1,62,83a15.45,15.45,0,0,1,3.16,2.88,46.52,46.52,0,0,1,3.31,4.72c.54.85,1.1,1.72,1.69,2.56a15.93,15.93,0,0,0,2.52,2.92,8.6,8.6,0,0,0,1.11.79,3.72,3.72,0,0,1,1.88,2,1.27,1.27,0,0,1-.05.88,1.48,1.48,0,0,1-.58.68,2.42,2.42,0,0,1-1.21.31,3.06,3.06,0,0,1-1.15-.23,5.34,5.34,0,0,1-1.11-.58,13.31,13.31,0,0,1-1.88-1.56A24,24,0,0,1,66.19,94c-.38-.58-.75-1.2-1.12-1.79a21.19,21.19,0,0,0-4.53-5.82,12.85,12.85,0,0,0-3.28-1.72c-.59-.24-1.2-.48-1.77-.77A8.41,8.41,0,0,1,53,82a9.1,9.1,0,0,1-1.64-2.66,11.55,11.55,0,0,1-.77-5.9,9.3,9.3,0,0,1,2.52-5.33,6,6,0,0,1,1.55-1.16,6.59,6.59,0,0,1,1.79-.64,20.33,20.33,0,0,1-2.07-7.52,42.22,42.22,0,0,1-.22-7.54l0-.49a44,44,0,0,1,2.38-13.31,27.48,27.48,0,0,1,2.58-5.07A24.88,24.88,0,0,1,62.77,28c.27-.26.56-.52.88-.8a1.5,1.5,0,0,1-.23-.2,2.31,2.31,0,0,1-.57-1.35,7.53,7.53,0,0,1,0-1.5h0c0-.06,0-.12,0-.17a25.22,25.22,0,0,1,.57-3.46,23.77,23.77,0,0,1,2.17-5.63A24.43,24.43,0,0,1,79.07,3.46a34.39,34.39,0,0,1,3.43-1A36,36,0,0,1,88.77.64,33.5,33.5,0,0,1,95.25,0a31.64,31.64,0,0,1,4,.26,29.79,29.79,0,0,1,8.83,2.52A25.18,25.18,0,0,1,112,5l.11.08a6.76,6.76,0,0,1,1.32,1.18,2.08,2.08,0,0,1,.51,1.53,1.44,1.44,0,0,1,0,.77c-.74,3.31-1.52,6.67-2.27,9.92h0c-.22.93-.44,1.88-.65,2.82s-.43,1.89-.6,2.69a58,58,0,0,1,4.88,4.11,47.25,47.25,0,0,1,4.4,4.76,32.49,32.49,0,0,1,6.06,11.23,36.71,36.71,0,0,1,.89,3.9c.21,1.23.37,2.52.5,3.95.22,2.65.28,5.36.33,8,.06,2.89.12,5.88.42,8.79a35,35,0,0,0,1,5.75c.25.91.58,1.81.9,2.68a26.44,26.44,0,0,1,1.06,3.3,12.09,12.09,0,0,1,.3,3.06,13.74,13.74,0,0,1-.43,3,19.91,19.91,0,0,1-2.46,5.58,39.23,39.23,0,0,1-7.44,8.75,36.06,36.06,0,0,1-4.63,3.44,33.68,33.68,0,0,1-5.1,2.63A29.49,29.49,0,0,1,100,109.16ZM79,20.77a17.26,17.26,0,0,1,3.73.41.19.19,0,0,1,.13.25.21.21,0,0,1-.13.13l-.76.18-.15,0a16.92,16.92,0,0,1,7.51,2.08A24.49,24.49,0,0,1,92.63,26a16.41,16.41,0,0,1,2.88,2.83,7.16,7.16,0,0,1-.09-.92c0-.91,0-1.8,0-2.47.06-1.6.17-3.3.34-5.35l.06-.78A79.45,79.45,0,0,1,97.07,10a5.18,5.18,0,0,1,1-2.18A4.91,4.91,0,0,1,99.73,6.5a12.37,12.37,0,0,0-4.15-1.61,23.24,23.24,0,0,0-4.4-.48h-.74a30.23,30.23,0,0,0-4.75.38A28.19,28.19,0,0,0,81,5.94a25.2,25.2,0,0,0-4.37,2,20,20,0,0,0-6.74,6.25,33,33,0,0,0-2.25,3.91,17,17,0,0,0-1.38,4.16,16.9,16.9,0,0,0-.37,2.35,1,1,0,0,1,0,.17,2.64,2.64,0,0,1,0,.29c0,.1,0,.16-.06.16h0a.94.94,0,0,0,.12.18A26.21,26.21,0,0,1,72.12,22,20,20,0,0,1,79,20.77ZM94.73,2.16h-.54A13,13,0,0,1,97.37,3.4a9.16,9.16,0,0,1,3,2.82,9.43,9.43,0,0,1,2.52-.47c.6,0,1.22-.07,1.83-.07a27.14,27.14,0,0,1,4.41.36c-.39-.24-.78-.47-1.17-.68a25.45,25.45,0,0,0-4.8-2A29.46,29.46,0,0,0,94.73,2.16ZM63.67,77.35a1.38,1.38,0,0,1-1.14-.53c-.21-.27-.4-.54-.58-.8a9.93,9.93,0,0,0-.71-1,.93.93,0,0,0-.16.18l0,0a1.13,1.13,0,0,1-.84.54H60a1,1,0,0,1-.9-.65V75.1l0-.07a1.42,1.42,0,0,1,0-.68,1,1,0,0,1,.44-.52l.06,0h0a9.48,9.48,0,0,0-1.93-.7c-.35-.1-.71-.2-1.08-.33a.13.13,0,0,1-.09-.11.14.14,0,0,1,.06-.13A3.55,3.55,0,0,1,58.55,72a7.26,7.26,0,0,1,2.52.51,8.37,8.37,0,0,1,2.22,1.29,4.93,4.93,0,0,1,1.53,2,1,1,0,0,1-.07,1A1.3,1.3,0,0,1,63.67,77.35Z"/></g><g id="Suspicious"><path id="_Ink-193" data-name=" Ink-193" d="M109.8,98.18a11.27,11.27,0,0,1-1.42-.08l-.23,0a12.23,12.23,0,0,1-2.38-.54,6.49,6.49,0,0,1-2.11-1.19.42.42,0,0,1-.11-.43.43.43,0,0,1,.32-.33,21.3,21.3,0,0,1,2.65-.32c.6,0,1.23-.09,1.83-.18a11.6,11.6,0,0,0,1.42-.31,8.79,8.79,0,0,1,2.11-.36,3,3,0,0,1,1.31.28,1.49,1.49,0,0,1,.75,1,1.4,1.4,0,0,1-.18,1.16,2.69,2.69,0,0,1-1.17,1,4.93,4.93,0,0,1-1.52.29C110.63,98.16,110.21,98.18,109.8,98.18ZM107.25,94h0a5.35,5.35,0,0,1-.77-2.55h0a5.2,5.2,0,0,0,.77,2.54h0Zm4.34-12.55h0a7.66,7.66,0,0,1-2.63-.53,13.28,13.28,0,0,1-3.09-1.76,1.19,1.19,0,0,1-.44-.69,1.45,1.45,0,0,1,.06-.77,1.81,1.81,0,0,1,.53-.75,1.27,1.27,0,0,1,.81-.32,1.07,1.07,0,0,1,.62.2l.22.16a18.52,18.52,0,0,0,1.93,1.35,4.92,4.92,0,0,0,2.32.74,2.61,2.61,0,0,0,1-.2,2.89,2.89,0,0,0,.91-.64,2.82,2.82,0,0,0,.53-2.26,4.3,4.3,0,0,0-1.13-2,8.41,8.41,0,0,0-1.71-1.38.51.51,0,0,1-.14-.61.77.77,0,0,1,.26-.38.82.82,0,0,1,.5-.17l.18,0a5.64,5.64,0,0,1,2,.73,4.63,4.63,0,0,1,1.36,1.25,5,5,0,0,1,.86,3.32,5.63,5.63,0,0,1-.44,1.75,5.18,5.18,0,0,1-1,1.5A4.85,4.85,0,0,1,111.59,81.42Zm8.08-10.76a1.79,1.79,0,0,1-1.06-.37,3,3,0,0,1-.85-1,6.84,6.84,0,0,1,0-6.23,3,3,0,0,1,.85-1,1.71,1.71,0,0,1,2.12,0,3,3,0,0,1,.85,1,6.28,6.28,0,0,1,.75,3.12,6.35,6.35,0,0,1-.75,3.11,3,3,0,0,1-.85,1A1.79,1.79,0,0,1,119.67,70.66Zm-23.83,0a2,2,0,0,1-1.7-1.29,4.87,4.87,0,0,1-.2-2.48,2.71,2.71,0,0,1,.34-.91l0-.07v-.19c-1.28-.08-2.61-.21-4.08-.39l-.45-.06-.64-.07A6.41,6.41,0,0,1,86,64.28s0,0,0,0a.05.05,0,0,1,0,0,3.12,3.12,0,0,1,1.41-.28h.28l1.88-.08.63,0c1.67,0,3.37-.13,4.8-.21l.73,0h.11a2.51,2.51,0,0,1,.9-.2h.1a1.93,1.93,0,0,1,.63.1l1.75-.15.59-.06.67,0a16.31,16.31,0,0,0,1.83-.22l.14,0a3.72,3.72,0,0,1,.66-.08,2,2,0,0,1,1.3.54.91.91,0,0,1,.34.65,1.46,1.46,0,0,1-.34,1,2,2,0,0,1-1.84.66h-.47l-2.29.06h-.63a4.75,4.75,0,0,1-.72,2.57,7.31,7.31,0,0,1-1.84,2A1.29,1.29,0,0,1,95.84,70.63Zm14.67-13.82h0a2,2,0,0,1-1.37-1.74,6.15,6.15,0,0,1,0-2.38,6.39,6.39,0,0,1,1.18-2.48,6.15,6.15,0,0,1,2.12-1.77,7,7,0,0,1,3-.68,7.53,7.53,0,0,1,2.7.51l.12,0a7.57,7.57,0,0,1,2.65,1.82,3.91,3.91,0,0,1,.81,1.34,2.73,2.73,0,0,1,.1,1.55,1.64,1.64,0,0,1-.66,1,1.94,1.94,0,0,1-1.12.33,2.14,2.14,0,0,1-1.29-.42,1.58,1.58,0,0,1-.67-1.17,3.16,3.16,0,0,0-1.24-1,4,4,0,0,0-1.6-.33,3.5,3.5,0,0,0-1.87.5,5.13,5.13,0,0,0-1.87,2.37,6.2,6.2,0,0,0-.31.95,4.27,4.27,0,0,1-.63,1.49A.06.06,0,0,1,110.51,56.81Z"/></g><g id="_None-61" data-name=" None-61"><rect id="facial-hair_None_background-29" data-name="facial-hair None background-29" class="cls-2" x="67.81" y="74.18" width="59.15" height="48.61"/></g><g id="_None-62" data-name=" None-62"><rect id="accessories_None_background-33" data-name="accessories None background-33" class="cls-2" x="51.76" y="53.68" width="82.82" height="29.17"/></g></g></g></g></svg>