<svg xmlns="http://www.w3.org/2000/svg" viewBox="0 0 309.08 191.56"><defs><style>.cls-1{fill:#f7e828;stroke:#010101;stroke-miterlimit:10;stroke-width:4px;}.cls-2{fill:#fff;}.cls-3{fill:#010101;}</style></defs><g id="Livello_2" data-name="Livello 2"><g id="Livello_1-2" data-name="Livello 1"><rect class="cls-1" x="2" y="15.34" width="284.15" height="147.43"/><g id="peeps"><g id="bust"><g id="Sweater_Dots" data-name="Sweater Dots"><path id="_Background" data-name=" Background" class="cls-2" d="M141.1,188.61c5,0,10,.19,15,.2,20.56.07,41.32,0,62-.86,5.83-.24,7.29-.23,13.09-.6,3.43,0,13.74-.29,13.22-5-.23-8.7-2.38-17.37-3.06-26-1.3-16.32-2.41-33.15-8.95-48.41-1.51-3.64-4.76-6-8-8.17-3.23-2.31-4-4.88-7-7.49-.63-.55-4.2-.78-6.13-2.18-2.8-2-4.19-5.38-5.23-5.94-.77-.42-.76-3.31-2.3-4.33-2.06-1.37-8.65-2.39-11-2.58a23.47,23.47,0,0,0-8.46,1.05c-3.6,1.4-5,4.08-6.63,7.54-20.94,6.47-40.09,17.44-46,39.56-5.12,18.55-5.31,38.44-3.33,57.47.4,1.39.12,3.57,1.32,4.49C125.36,187.59,140.53,188.45,141.1,188.61Z"/><path id="_Ink" data-name=" Ink" class="cls-3" d="M194.16,190.18h0c-5.16,0-10.2-.2-15.79-.45-2.44-.1-4.47-.26-6.37-.5a27,27,0,0,0-3.36-.26,12.05,12.05,0,0,0-2.48.23l-.45.1a19.34,19.34,0,0,1-2.83.43h-.42a16.61,16.61,0,0,1-2.22-.18l-.29,0c-1-.13-2.2-.24-3.61-.33a45.7,45.7,0,0,1-1.48-5.66c-.35-1.8-.63-3.69-.84-5.79-.4-3.88-.53-7.88-.64-11.74h0c-.06-1.94-.12-3.95-.22-5.91a.58.58,0,0,0-.21-.44.66.66,0,0,0-.43-.15.58.58,0,0,0-.43.18.56.56,0,0,0-.14.41c.1,2,.16,4,.22,6,.24,7.7.48,15.66,2.87,23.06l-1.23-.08-5.45-.28h0c-2.35-.12-4.79-.24-7.18-.39l-1.23-.08h0c-1.69-.1-3.44-.2-5.15-.36-.41,0-.85-.06-1.39-.06l-1,0h-1.23a3.82,3.82,0,0,1-.25.6,1.45,1.45,0,0,1-1.24.67,1.19,1.19,0,0,1-1.13-.67c-.52-1.15-1-2.23-1.37-3.29a42.34,42.34,0,0,1-1.94-6.9,40.68,40.68,0,0,1-.74-7.13c0-1.94.09-3.91.19-5.82h0c0-.52.06-1.06.08-1.58l0-.31c.12-2.36.24-4.79.39-7.18.15-2.23.24-4.5.33-6.69.11-2.72.22-5.54.44-8.3.19-2.42.48-4.81.89-7.09a63.84,63.84,0,0,1,1.62-7,66.1,66.1,0,0,1,2.45-6.83c.8-1.94,1.76-4,3-6.62l.22-.45h0c.93-1.92,1.89-3.91,3-5.78a29.94,29.94,0,0,1,1.78-2.7,21.61,21.61,0,0,1,2.11-2.48,23.63,23.63,0,0,1,5.13-3.86,9.4,9.4,0,0,0,1.14-.7,3.82,3.82,0,0,0,.94-.94l.42-.65a8.62,8.62,0,0,1,1.17-1.58,3.77,3.77,0,0,1,1.28-.85,6.06,6.06,0,0,1,1.51-.37,3.24,3.24,0,0,0,1.1-.32,3.46,3.46,0,0,0,.91-.7l.33-.34h0a9.89,9.89,0,0,1,1.67-1.49,7.9,7.9,0,0,1,3.16-1C164,89,168,87.2,172,85.48l1.17-.51a6.58,6.58,0,0,1,1.73-.55,2.13,2.13,0,0,1,.44,0h.62l.39,0c.54-.07.83-.67,1.09-1.19a4.44,4.44,0,0,1,.28-.53,2.67,2.67,0,0,1,.74-.72,2.51,2.51,0,0,1,1.29-.92,4.92,4.92,0,0,1,1.81-.37,2.15,2.15,0,0,1,1.94.93.83.83,0,0,1,.07.13c1.05.23,2.11.48,3.14.72,2.34.54,4.76,1.11,7.19,1.43a44.9,44.9,0,0,0,5.91.4h.14c1,0,1.94,0,2.88-.09l.62-.06a6.84,6.84,0,0,1,.9-.08h0a2.91,2.91,0,0,1,1-1.19,2.66,2.66,0,0,1,1.47-.48,2.18,2.18,0,0,1,1.21.37,2.53,2.53,0,0,1,1,1.55,4.27,4.27,0,0,1,.87,1.36c.22.53.38,1.09.55,1.63.06.21.12.42.19.63s.06.22.1.34a3.22,3.22,0,0,0,.73,1.53,2.5,2.5,0,0,0,1.54.44,5.4,5.4,0,0,1,1,.15,10.55,10.55,0,0,1,2.33,1.22l.1.06a8.84,8.84,0,0,0-1.11.44,4.15,4.15,0,0,0-1,.67.54.54,0,0,0-.15.61.69.69,0,0,0,.6.42.54.54,0,0,0,.4-.17,4.42,4.42,0,0,1,1.69-.85h0l.13,0a.57.57,0,0,0,.4-.46l5.11,3.16a55.86,55.86,0,0,1,4.68,3.19,30.91,30.91,0,0,1,4.17,3.83,26,26,0,0,1,5.54,9.25,17.29,17.29,0,0,1,.64,2.74c0,.29.08.59.11.88a10.57,10.57,0,0,0,.28,1.76,8,8,0,0,0,.7,1.55c.16.29.32.59.46.9a8.14,8.14,0,0,1,.63,2.67c.11,1.35.16,2.74.21,4.08l.09,2.18,0,.67a9.21,9.21,0,0,0,.29,2.46,7.76,7.76,0,0,0,.6,1.31,8.59,8.59,0,0,1,.48,1,5.07,5.07,0,0,1,.31,1.14,5.46,5.46,0,0,1,.07,1.14,14.86,14.86,0,0,1-.27,2.31c0,.24-.08.48-.11.72a7.11,7.11,0,0,0-.09,1.3,4.24,4.24,0,0,0,.22,1.27c.12.37.28.72.43,1.07a10.46,10.46,0,0,1,.49,1.25,5.61,5.61,0,0,1,.21,1.91,16.67,16.67,0,0,1-.26,1.88,15.87,15.87,0,0,0-.28,2,23.53,23.53,0,0,0,.52,5h0c0,.3.11.61.16.92.72,4.27,1.33,8.14,1.61,12.17.13,1.93.2,3.86.2,5.76s-.07,3.86-.21,5.75a.58.58,0,0,0-.41-.17,5,5,0,0,0-2.14.35.49.49,0,0,0-.26.32.65.65,0,0,0,.05.51.58.58,0,0,0,.51.29.68.68,0,0,0,.31-.08,3,3,0,0,1,1.18-.18H244a.56.56,0,0,0,.51-.31.36.36,0,0,1,0,.11h0c.06.14.12.28.19.42s.23.4.35.6h0a5.5,5.5,0,0,1,.68,1.4,2.89,2.89,0,0,1,.09,1.17,2.69,2.69,0,0,1-.42,1.09,3.7,3.7,0,0,1-2.62,1.39c-3.63.66-7.41,1.11-10.75,1.49-.39-2.67-.74-5.59-1.07-8.93-.3-3.09-.55-6.21-.77-9a.63.63,0,0,0-.22-.44.74.74,0,0,0-.43-.14.57.57,0,0,0-.43.17.51.51,0,0,0-.13.41c.25,3.07.49,6.08.78,9,.33,3.36.68,6.3,1.07,9l-2,.24-1.49.2h0a28.91,28.91,0,0,1-4,.38c-.27,0-.54,0-.79,0a19.23,19.23,0,0,1-2.28-.31,17.64,17.64,0,0,0-2.83-.32,7.42,7.42,0,0,0-.94.06c-1.08.13-2.18.32-3.24.5h0c-1,.17-2,.35-3.06.48-2,.26-4,.46-6.17.6C200.94,190.08,197.72,190.18,194.16,190.18Zm-23.57-8.47a.65.65,0,0,0-.31.08l-.13.06a5.19,5.19,0,0,0-1.3.82.54.54,0,0,0-.15.6.67.67,0,0,0,.6.42.54.54,0,0,0,.4-.17,4,4,0,0,1,1-.57h0l.23-.12a.55.55,0,0,0,.27-.33.64.64,0,0,0,0-.49A.6.6,0,0,0,170.59,181.71Zm15.63-.54a.55.55,0,0,0-.36.15.7.7,0,0,0-.11.77.58.58,0,0,0,.35.28,8.36,8.36,0,0,0,2.51.55h0a.55.55,0,0,0,.56-.55s0,0,0,0a.6.6,0,0,0-.14-.42.57.57,0,0,0-.44-.2,7.67,7.67,0,0,1-2.13-.48l-.06,0a.45.45,0,0,0-.2,0Zm-50.1-4.69h0a.61.61,0,0,0-.6.53.64.64,0,0,0-.38.2.54.54,0,0,0-.15.4.74.74,0,0,0,.17.42.59.59,0,0,0,.41.18h0a1.16,1.16,0,0,0,1.13-1.13.6.6,0,0,0-.58-.6Zm70.79-1.83h0a14,14,0,0,0-1.44.13,11.34,11.34,0,0,1-1.43.13.56.56,0,0,0-.44.2.66.66,0,0,0-.15.42.56.56,0,0,0,.53.59H204a11.34,11.34,0,0,0,1.43-.13,14,14,0,0,1,1.44-.13.57.57,0,0,0,.44-.2.6.6,0,0,0,.14-.42.56.56,0,0,0-.53-.59Zm28.18-6a.53.53,0,0,0-.42.18.62.62,0,0,0-.14.39.71.71,0,0,0,.14.43.58.58,0,0,0,.44.21,2.9,2.9,0,0,1,1.17.39l.1,0a.53.53,0,0,0,.28.07.66.66,0,0,0,.62-.52.51.51,0,0,0-.29-.59,4.52,4.52,0,0,0-1.88-.61Zm-41.79-2.09a.55.55,0,0,0-.57.54v0a.65.65,0,0,0,.14.43.57.57,0,0,0,.44.2.85.85,0,0,1,.79.48.5.5,0,0,0,.47.3.68.68,0,0,0,.57-.32.59.59,0,0,0,0-.59,2.1,2.1,0,0,0-1.83-1.08Zm-25.23,1a.68.68,0,0,0,.44.16.58.58,0,0,0,.41-.17.6.6,0,0,0,.17-.46.52.52,0,0,0-.17-.39,2.45,2.45,0,0,0-1.73-.44.6.6,0,0,0-.59.62.61.61,0,0,0,.59.59h.25a2.23,2.23,0,0,1,.37,0,.41.41,0,0,1,.16,0l.06,0,0,0Zm56.05-8.85a.6.6,0,0,0-.5.27,3.35,3.35,0,0,1-2,1.29.55.55,0,0,0-.42.64.59.59,0,0,0,.57.55.47.47,0,0,0,.17,0,4.6,4.6,0,0,0,2.71-1.84.51.51,0,0,0,.06-.54.7.7,0,0,0-.6-.34Zm-80.17,1h0a1.17,1.17,0,0,0-1.12,1.13.61.61,0,0,0,.58.61h0a.63.63,0,0,0,.6-.54.72.72,0,0,0,.38-.19.59.59,0,0,0,.15-.4.67.67,0,0,0-.18-.42.53.53,0,0,0-.41-.19Zm39.2-4.7a.65.65,0,0,0-.36.12.76.76,0,0,0-.23.3.52.52,0,0,0,.14.61,2.92,2.92,0,0,0,2,1h0a.56.56,0,0,0,.57-.54.08.08,0,0,0,0,0,.6.6,0,0,0-.14-.42.58.58,0,0,0-.44-.21,1.75,1.75,0,0,1-1.14-.6A.57.57,0,0,0,183.15,155.05Zm26.38-.52h0a.6.6,0,0,0-.42.18.56.56,0,0,0-.18.42v0h0a.56.56,0,0,0-.26.49.61.61,0,0,0,.58.61h0a.84.84,0,0,0,.77-.5,1.7,1.7,0,0,0,.1-.63.69.69,0,0,0-.18-.42.56.56,0,0,0-.41-.18Zm-52.27-3.4h0a.57.57,0,0,0-.44.2.54.54,0,0,0-.17.4.69.69,0,0,0,.18.43.64.64,0,0,0,.43.18h0a.56.56,0,0,0,.47.26h0a.69.69,0,0,0,.43-.18.56.56,0,0,0,.18-.42.83.83,0,0,0-.51-.77,1.47,1.47,0,0,0-.62-.1Zm71.66-5.74a.7.7,0,0,0-.53.24.61.61,0,0,0-.13.52,8.1,8.1,0,0,1,0,3.33.58.58,0,0,0,.11.51.67.67,0,0,0,.53.25.53.53,0,0,0,.53-.44,9.85,9.85,0,0,0,0-4,.49.49,0,0,0-.51-.43Zm-93.87,3.13h0a.6.6,0,0,0-.58.62.61.61,0,0,0,.58.59h0a2.92,2.92,0,0,1,1.21.17.89.89,0,0,0,.32.08.58.58,0,0,0,.51-.29.7.7,0,0,0,.05-.51.51.51,0,0,0-.27-.32,3.31,3.31,0,0,0-.91-.28,6.2,6.2,0,0,0-1-.07ZM168,145.4a.56.56,0,0,0-.6.54s0,0,0,0a2,2,0,0,1-.18,1,.61.61,0,0,0,.21.82.58.58,0,0,0,.31.08.56.56,0,0,0,.52-.29,3.5,3.5,0,0,0,.34-1.62.55.55,0,0,0-.18-.43.66.66,0,0,0-.42-.15ZM210,142a.6.6,0,0,0-.51.29.7.7,0,0,0,0,.51.51.51,0,0,0,.27.32,2.89,2.89,0,0,0,2.44,0,.49.49,0,0,0,.26-.32.61.61,0,0,0-.05-.51.57.57,0,0,0-.5-.29.88.88,0,0,0-.32.07,1.52,1.52,0,0,1-1.22,0A.88.88,0,0,0,210,142Zm-17.24-1.83a.59.59,0,0,0-.42.17l-.78.78a.64.64,0,0,0-.18.45.58.58,0,0,0,.18.41.64.64,0,0,0,.44.17.58.58,0,0,0,.41-.17l.79-.78a.66.66,0,0,0,.17-.46.54.54,0,0,0-.17-.4A.66.66,0,0,0,192.78,140.16Zm43-2.62a.67.67,0,0,0,.42.16.59.59,0,0,0,.42-.17.66.66,0,0,0,.17-.46.54.54,0,0,0-.17-.4,2.08,2.08,0,0,0-1.47-.44.61.61,0,0,0-.6.62.6.6,0,0,0,.6.59h.36l.19,0h0l.06,0h0l0,0Zm-12.11-3.65a.68.68,0,0,0-.62.52.52.52,0,0,0,.29.6l.79.39.78.39a.58.58,0,0,0,.28.07.65.65,0,0,0,.62-.51.5.5,0,0,0-.29-.6l-1.57-.79A.64.64,0,0,0,223.64,133.89Zm-71.87-3.39a.57.57,0,0,0-.6.54v.05a7.22,7.22,0,0,1-.24,2.19.51.51,0,0,0,.07.49.63.63,0,0,0,.52.25.56.56,0,0,0,.57-.42,8.4,8.4,0,0,0,.29-2.51.6.6,0,0,0-.19-.44A.66.66,0,0,0,151.77,130.5Zm19.34-2.37a.61.61,0,0,0,0,1.21h1.3a.59.59,0,0,0,.58-.63.6.6,0,0,0-.58-.58ZM139.79,125a.48.48,0,0,0-.2,0,6,6,0,0,0-2.35,1.2.51.51,0,0,0-.15.6.66.66,0,0,0,.6.42.56.56,0,0,0,.4-.17,4.4,4.4,0,0,1,1.69-.84l.13,0a.58.58,0,0,0,.35-.28.68.68,0,0,0-.11-.77A.51.51,0,0,0,139.79,125Zm46.71-1.79a.57.57,0,0,0-.44.17.61.61,0,0,0-.15.41,2.7,2.7,0,0,0,.7,1.73.55.55,0,0,0,.41.19.66.66,0,0,0,.57-.4.57.57,0,0,0-.12-.64,1.45,1.45,0,0,1-.35-.88.57.57,0,0,0-.2-.44.65.65,0,0,0-.42-.14Zm25.36.24a.57.57,0,0,0-.43.17.68.68,0,0,0-.17.43.63.63,0,0,0,.17.43l0,0a.41.41,0,0,1,.05.09.61.61,0,0,1,.07.14l0,0a1.94,1.94,0,0,0,.34.47.58.58,0,0,0,.43.18.56.56,0,0,0,.42-.18.61.61,0,0,0,.17-.43.59.59,0,0,0-.17-.42l0,0a.35.35,0,0,1-.05-.08l-.08-.14h0l0-.05a1.9,1.9,0,0,0-.33-.47A.57.57,0,0,0,211.86,123.43Zm-48.29-6a.45.45,0,0,0-.2,0,9.91,9.91,0,0,0-2.24,1.1.66.66,0,0,0-.25.32.77.77,0,0,0,0,.37.62.62,0,0,0,.55.46.57.57,0,0,0,.31-.1,9,9,0,0,1,1.95-1,.59.59,0,0,0,.35-.29.71.71,0,0,0,.06-.41.62.62,0,0,0-.18-.35A.47.47,0,0,0,163.57,117.4Zm56.11-2.08a.56.56,0,0,0-.56.55v0a.6.6,0,0,0,.14.42.54.54,0,0,0,.44.2.86.86,0,0,1,.78.49.55.55,0,0,0,.48.3.68.68,0,0,0,.56-.33.57.57,0,0,0,0-.58,2.1,2.1,0,0,0-1.83-1.09Zm-19.6-4.7a.49.49,0,0,0-.41.18.58.58,0,0,0-.15.39.71.71,0,0,0,.14.43.59.59,0,0,0,.45.21,2.9,2.9,0,0,1,1.16.39h0l.09,0a.64.64,0,0,0,.28.07.67.67,0,0,0,.62-.52.5.5,0,0,0-.29-.59,4.52,4.52,0,0,0-1.87-.61Zm-42.79-1.84a.63.63,0,0,0-.19,0l-1.31.39h0c-.43.13-.87.25-1.31.4a.55.55,0,0,0-.34.28.65.65,0,0,0,.11.76.44.44,0,0,0,.36.15.69.69,0,0,0,.2,0c.43-.14.87-.27,1.3-.39s.88-.25,1.31-.39a.63.63,0,0,0,.35-.29.68.68,0,0,0,.06-.4.67.67,0,0,0-.17-.36.51.51,0,0,0-.37-.15Zm17.7,1h.07l.09,0,.17,0h0l.17.05a3.34,3.34,0,0,0,.83.13h0a.54.54,0,0,0,.56-.54v0a.6.6,0,0,0-.14-.42.55.55,0,0,0-.44-.21,3.05,3.05,0,0,1-.67-.13,2.8,2.8,0,0,0-.64-.13h0a.61.61,0,0,0-.58.6.59.59,0,0,0,.17.42.65.65,0,0,0,.42.19Zm50.2-4.87h0a.61.61,0,0,0-.59.63.62.62,0,0,0,.59.58,11.62,11.62,0,0,1,2.71.24l.15,0a.52.52,0,0,0,.41-.18.68.68,0,0,0,.19-.39.63.63,0,0,0-.08-.38.58.58,0,0,0-.35-.24,12.91,12.91,0,0,0-3-.28ZM202.43,97.3a.56.56,0,0,0-.4.17,4.44,4.44,0,0,1-1.28.75h0l-.43.2A.51.51,0,0,0,200,99a.66.66,0,0,0,.62.52.53.53,0,0,0,.28-.07l.38-.18h0a5.39,5.39,0,0,0,1.57-1,.51.51,0,0,0,.15-.6A.66.66,0,0,0,202.43,97.3ZM159.63,97h0a5.28,5.28,0,0,0-2.13.6.5.5,0,0,0-.3.59.68.68,0,0,0,.63.53.72.72,0,0,0,.28-.07,3.86,3.86,0,0,1,1.52-.44.58.58,0,0,0,.44-.21.6.6,0,0,0,.14-.42.63.63,0,0,0-.14-.4.53.53,0,0,0-.42-.18Zm17.5-2.09a.61.61,0,0,0-.39.15.7.7,0,0,0-.21.35.55.55,0,0,0,.28.63,3,3,0,0,1,1.09,1.35.51.51,0,0,0,.47.3.7.7,0,0,0,.56-.32.59.59,0,0,0,0-.59,5.52,5.52,0,0,0-.63-1,3,3,0,0,0-.89-.78A.6.6,0,0,0,177.13,94.94Z"/></g><g id="Short_4" data-name="Short 4"><path id="_Background-2" data-name=" Background-2" class="cls-2" d="M202.73,55.85a69,69,0,0,1,.12-9.2c.18-2.3-.89-11.37-2.93-10.53-3.41-2.7-7.95-3.3-12.2-3.58-8.83-.59-18.21.76-25,6.7-3.37,3.09-6.65,7.58-6.39,12.25-3.06,4.43-7.37,10.5-3.56,15.68,1.3,1.66,3.36,2.27,5,3.52,3.27,2.65,5.33,6.44,8.64,9.07,8.76,7.88,23.64,9.52,32.25.56,6.66-6.49,5.58-16.19,4.41-24.47C202.24,50.29,203.36,61.43,202.73,55.85Z"/><path id="_Ink-2" data-name=" Ink-2" class="cls-3" d="M186.52,86.75a19.83,19.83,0,0,1-2.88-.21,15.73,15.73,0,0,1-3.25-.79,6.69,6.69,0,0,1-1.52-.8,7.36,7.36,0,0,1-1.24-1.19,1,1,0,0,1-.1-1,.59.59,0,0,1,.55-.36h.09a18.06,18.06,0,0,1,3.18.62l.15.05a15.79,15.79,0,0,0,3.26.7c.56.05,1.12.08,1.68.08a17,17,0,0,0,5.05-.77A15.88,15.88,0,0,0,200,76.38c2.4-3.85,2.57-8.32,2.54-12.2,0-4.52-.18-9.25-.44-14.06l0-.78c-.11-2-.25-4.59-.37-7.23,0-.88-.1-1.6-.18-2.27a6,6,0,0,1-2.17-2.09,20.56,20.56,0,0,1-3.09,1,18.68,18.68,0,0,1-4.41.54,17.41,17.41,0,0,1-2.6-.2q-.94.39-1.92.69l-.53.23A32,32,0,0,1,182,41.65l-.41.1a17.06,17.06,0,0,1-2.75.5,4.13,4.13,0,0,1-.5.15,8.12,8.12,0,0,1-1.91.23l-.68,0a1.32,1.32,0,0,1-1-.67,1.06,1.06,0,0,1,0-1.06l1-1.75a32.5,32.5,0,0,1-3.71,1.28c-1.11.31-2.33.61-3.83.93l-1,.21h0l-1,.22-.36.06a3,3,0,0,0-1.29.42,2.51,2.51,0,0,0-.62,1.31c0,.14-.07.27-.11.38-.24.71-.44,1.37-.62,2a40.94,40.94,0,0,0-.92,4.09,39.17,39.17,0,0,0-.49,4.17c0,.58-.05,1.17-.07,1.74,0,.81,0,1.64-.12,2.46a1,1,0,0,1-.3.61.79.79,0,0,1-.57.23.87.87,0,0,1-.59-.24l-.21-.18-.1-.09a10.17,10.17,0,0,1-1.38-1.48,2.11,2.11,0,0,1-.21-.31h0l-.11-.08a5.41,5.41,0,0,0-3-1.31,1.82,1.82,0,0,0-1.47.72,4.8,4.8,0,0,0-.74,1.69L152.57,59a19,19,0,0,0-.46,2.09,5.9,5.9,0,0,0,1,4.68,2.75,2.75,0,0,0,1.71,1l.29,0a3.91,3.91,0,0,0,.68-.06h0l.14,0h1.18a.6.6,0,0,1,.52.3.86.86,0,0,1,0,.81,2.66,2.66,0,0,1-.42.63,4.17,4.17,0,0,1,.37.36,1.87,1.87,0,0,1,.91.68,1.6,1.6,0,0,1,.31.84c0,.07,0,.14,0,.23l.33.52c.08.13.15.24.21.35a16.66,16.66,0,0,0,2.88,3.44c.41.36.83.73,1.24,1.07.73.6,1.42,1.23,2.08,1.89l.12.12a8.26,8.26,0,0,1,1.3,1.69,2.72,2.72,0,0,1,.29,2,.71.71,0,0,1-.66.5.54.54,0,0,1-.3-.1,7.35,7.35,0,0,1-1.6-1.83,12.57,12.57,0,0,0-1-1.3c-.49-.52-1-1-1.53-1.51h0c-.49-.47-1-1-1.48-1.46a11.69,11.69,0,0,1-2.19-3.28,1.72,1.72,0,0,1-1.21.5,1.69,1.69,0,0,1-.92-.28,1.82,1.82,0,0,1-.63-.72c-.21.09-.43.17-.65.24a1.21,1.21,0,0,1-.38.06,1.12,1.12,0,0,1-1-.54,1.45,1.45,0,0,1-.23-.67,1.35,1.35,0,0,1,.13-.71,4.66,4.66,0,0,1,.87-1.32,5.47,5.47,0,0,1-3-1.45,6.14,6.14,0,0,1-1.7-3.26,9.67,9.67,0,0,1-.16-1.86,11.7,11.7,0,0,1,.17-1.86A18.76,18.76,0,0,1,151,57c.09-.23.18-.43.28-.63a.17.17,0,0,1-.15-.07l-.36-.45a4.23,4.23,0,0,1-.63-.89l-.16-.31c-.19-.37-.36-.74-.51-1.12a14.58,14.58,0,0,1-.67-3.19,24.1,24.1,0,0,1,.18-6.46,25.22,25.22,0,0,1,1.43-5.34,26.38,26.38,0,0,1,2.5-4.91,2.11,2.11,0,0,1-.31-.21l-.05,0-.07-.07a1.29,1.29,0,0,1-.42-.94,1.46,1.46,0,0,1,.42-1.07l.16-.17a4.24,4.24,0,0,1,.73-.6l.15-.09a1.44,1.44,0,0,1-.11-1.13,1.49,1.49,0,0,1,.75-.93,2.73,2.73,0,0,1,1.26-.28,4.52,4.52,0,0,1,1.87.43,24,24,0,0,1,4.91-3.4,46.26,46.26,0,0,1,6.69-2.83,56.87,56.87,0,0,1,7-1.87,31.31,31.31,0,0,1,6.33-.7h1.05a20.59,20.59,0,0,1,2.93.27A7.14,7.14,0,0,1,189,21a.34.34,0,0,1,.24-.11.28.28,0,0,1,.13,0,45.75,45.75,0,0,0,5.49,2l.44.14a26.8,26.8,0,0,0,6.08,1.24,1.22,1.22,0,0,1,.6.22,1.19,1.19,0,0,1,.42.47,1,1,0,0,1-.07,1l-.35.54.18,0h0l.39,0h.09a1.16,1.16,0,0,1,.79.38,1.2,1.2,0,0,1,.34.84c0,.38-.07.76-.13,1.14h0a1.65,1.65,0,0,1,.66.12,1.6,1.6,0,0,1,1,1.25,5.48,5.48,0,0,1,0,1.67A7,7,0,0,1,203.66,36a6.81,6.81,0,0,1,1,1.29,8,8,0,0,1,.64,1.54,7.44,7.44,0,0,1,.29,2.53l0,.25a4.08,4.08,0,0,1-.89,2.59,1.39,1.39,0,0,1-1,.43h-.15c.25,2.13.4,4.31.54,6.36l.07,1c.29,4.34.57,9.49.5,14.73a26.71,26.71,0,0,1-.85,6.7,19.34,19.34,0,0,1-1.15,3.14,16.71,16.71,0,0,1-1.77,2.92,19.74,19.74,0,0,1-2.12,2.36,18,18,0,0,1-2.48,2,17.3,17.3,0,0,1-9.71,2.94ZM158.2,63.69h0a1.63,1.63,0,0,1-1-.42,5.41,5.41,0,0,1-.76-.89l-.23-.31a1.26,1.26,0,0,1-.25.31l-.07,0a1.22,1.22,0,0,1-.76.31H155a1.51,1.51,0,0,1-.62-.17,1.08,1.08,0,0,1-.51-.6,1.28,1.28,0,0,1,.46-1.53l-.09-.07a1.7,1.7,0,0,1-.51-.49l0-.05h0a.48.48,0,0,1,.17-.67l.11,0a1.43,1.43,0,0,1,.46-.07,4.89,4.89,0,0,1,1.92.6l.18.08A10.35,10.35,0,0,1,159,61.39a1.39,1.39,0,0,1,.35,1.31v0a.36.36,0,0,0,0,.11,1.06,1.06,0,0,1-.41.6A1.18,1.18,0,0,1,158.2,63.69Z"/></g><g id="Calm"><path id="_Ink-3" data-name=" Ink-3" class="cls-3" d="M169.28,74.58a5.7,5.7,0,0,1-3.19-.94,5.77,5.77,0,0,1-1.32-1.14,4.17,4.17,0,0,1-1.1-2.75.43.43,0,0,1,.11-.28.48.48,0,0,1,.27-.17h.12a.43.43,0,0,1,.19,0,.45.45,0,0,1,.21.2c.09.13.22.3.34.45a5.81,5.81,0,0,0,3.26,2.34,3.84,3.84,0,0,0,.83.09,4.13,4.13,0,0,0,1.39-.26,4.75,4.75,0,0,0,2-1.37,1.06,1.06,0,0,1,.8-.4h0a1.24,1.24,0,0,1,.85.38,1.31,1.31,0,0,1,.4.86,1.19,1.19,0,0,1-.33.86,6.88,6.88,0,0,1-1.39,1.13,7,7,0,0,1-1.63.72A6.33,6.33,0,0,1,169.28,74.58Zm1.8-8.41h0a5.25,5.25,0,0,1-1.88-.38A9.52,9.52,0,0,1,167,64.54a1,1,0,0,1-.31-.49,1.07,1.07,0,0,1,.05-.56,1.25,1.25,0,0,1,.37-.54.89.89,0,0,1,.58-.22.87.87,0,0,1,.45.13l.15.12h0a5.69,5.69,0,0,0,3,1.5,1.78,1.78,0,0,0,1.35-.61,1.94,1.94,0,0,0,.38-1.61,4.39,4.39,0,0,0-2-2.42.38.38,0,0,1-.1-.44.58.58,0,0,1,.55-.39h.13a4.1,4.1,0,0,1,1.44.53,3.3,3.3,0,0,1,1,.89,3.49,3.49,0,0,1,.62,2.38,3.75,3.75,0,0,1-1,2.32,3.4,3.4,0,0,1-2.52,1Zm-14.47-5.81a.71.71,0,0,1-.21,0,.43.43,0,0,1-.29-.25,3.57,3.57,0,0,1,.18-2.65A5.36,5.36,0,0,1,158.22,55a3.31,3.31,0,0,1,1.6-.41,3.18,3.18,0,0,1,1.53.4,3.85,3.85,0,0,1,1.06.87,12.52,12.52,0,0,1,.83,1.09c.1.16.22.33.33.48a1,1,0,0,1,.16.9,1.14,1.14,0,0,1-.66.68,1.12,1.12,0,0,1-.48.1,1.22,1.22,0,0,1-.43-.08,1.2,1.2,0,0,1-.63-.66,3.4,3.4,0,0,0-1.19-1.58,1.28,1.28,0,0,0-1.28-.1,4.19,4.19,0,0,0-1.48,1.48,2.88,2.88,0,0,0-.49,1.73.4.4,0,0,1-.13.33.45.45,0,0,1-.27.12Zm21.91-2.14a.84.84,0,0,1-.27,0,1,1,0,0,1-.42-.25.84.84,0,0,1-.24-.43,1.76,1.76,0,0,0-.62-1,1.23,1.23,0,0,0-1-.26,1.89,1.89,0,0,0-1.06.64,3.62,3.62,0,0,0-.22.32h0a2.24,2.24,0,0,1-.43.58.48.48,0,0,1-.28.1l-.12,0a1.25,1.25,0,0,1-.47-1,1.93,1.93,0,0,1,.35-.95,3.78,3.78,0,0,1,2-1.42,3.05,3.05,0,0,1,.6-.06,3,3,0,0,1,1.74.57A3.28,3.28,0,0,1,179.43,57a1.16,1.16,0,0,1-.05.61.86.86,0,0,1-.4.44A.84.84,0,0,1,178.52,58.22Zm-24.64-4h0a.3.3,0,0,1-.16-.08,1.15,1.15,0,0,1-.33-1,4,4,0,0,1,.42-1.6A8.54,8.54,0,0,1,155.63,49a9,9,0,0,1,2.9-1.78,6.46,6.46,0,0,1,2.08-.45h.12a2.45,2.45,0,0,1,.77.15,2,2,0,0,1,.69.42,1.28,1.28,0,0,1,.38.93,1.33,1.33,0,0,1-.38,1,2,2,0,0,1-.81.47,4.49,4.49,0,0,1-.89.16,8.7,8.7,0,0,0-.87.13,7.75,7.75,0,0,0-2.08.76,7.6,7.6,0,0,0-2,1.39c-.13.13-.25.28-.37.42h0c-.11.13-.21.26-.32.38s-.24.26-.37.43a1,1,0,0,0-.1.18,1.19,1.19,0,0,0-.08.16l-.14.24c-.09.14-.13.18-.17.19A.28.28,0,0,1,153.88,54.19Zm25.88-.33h0a.26.26,0,0,1-.15-.07.29.29,0,0,1-.08-.14,4.41,4.41,0,0,0-2.37-3.26,10,10,0,0,0-2.2-.75c-.21-.05-.44-.08-.66-.11h0a2.78,2.78,0,0,1-1.91-.81,1.61,1.61,0,0,1-.3-.58,1.45,1.45,0,0,1,0-.62,1.25,1.25,0,0,1,.69-.95,2.07,2.07,0,0,1,1-.23A6.24,6.24,0,0,1,176,47l.05,0h0l.17.07a7.57,7.57,0,0,1,2.67,1.79,5.8,5.8,0,0,1,1.38,2.54,3,3,0,0,1-.28,2.31.24.24,0,0,1-.13.11A.2.2,0,0,1,179.76,53.86Z"/></g><g id="Full_3" data-name="Full 3"><path id="_Ink-4" data-name=" Ink-4" class="cls-3" d="M180.26,98.37h0a37.92,37.92,0,0,1-13.2-2.45A30.65,30.65,0,0,1,161.31,93a21.61,21.61,0,0,1-4.54-3.83,10.46,10.46,0,0,1-2.1-1.83,11.29,11.29,0,0,1-1.51-2.24,14.63,14.63,0,0,1-1-2.57,22,22,0,0,1-.6-2.79,49.22,49.22,0,0,1,.11-11.46c.08-.76.15-1.55.21-2.31.23-2.79.47-5.66,1.71-8.14a.75.75,0,0,1,.19-.64.81.81,0,0,1,.61-.31.59.59,0,0,1,.56.4c1.7,3.84,3.46,7.81,6.23,11.1a14.37,14.37,0,0,0,3.63,3.34,9,9,0,0,0,4.6,1.65c1.91,0,3.2-1.21,3.71-3.5a5.86,5.86,0,0,1,1.75-2.17,9.84,9.84,0,0,1,2.65-1.43,16.79,16.79,0,0,1,3.12-.79,21.08,21.08,0,0,1,3.18-.24,18.4,18.4,0,0,1,2.87.22,5.2,5.2,0,0,1,2.7,1.57,8.37,8.37,0,0,1,1.28,2.15c.65,1.43,1.22,2.67,3.38,2.67.23,0,.46,0,.7,0l.15,0h0a5,5,0,0,0,.56-1.1l.2-.44s0-.07,0-.11a1.7,1.7,0,0,1,0-.22,1.27,1.27,0,0,1,.4-.4,1.08,1.08,0,0,1,.55-.15,1.27,1.27,0,0,1,.47.09,1.09,1.09,0,0,1,.05.17,50.94,50.94,0,0,1,1.22,12,34.45,34.45,0,0,1-.68,6,25.66,25.66,0,0,1-1.84,5.66,18.61,18.61,0,0,1-7,3.83,25.87,25.87,0,0,1-4.15.92A32.42,32.42,0,0,1,180.26,98.37Zm3.21-28.18c-1.9,0-4.32.55-5.45,2.08a3.45,3.45,0,0,0-.4,3.22,3.16,3.16,0,0,0,.78,1.09,1.88,1.88,0,0,0,1.21.55,1.21,1.21,0,0,0,.38-.06c.48-.16.74-.71,1-1.24a3.51,3.51,0,0,1,.48-.84,2.19,2.19,0,0,1,1.53-.74,2.41,2.41,0,0,1,1.42.56A10.31,10.31,0,0,1,185.69,76c.27.28.53.55.78.77a1,1,0,0,0,.59.2,1,1,0,0,0,.71-.33,2.13,2.13,0,0,0,.53-1.48,6.9,6.9,0,0,0-.86-2.66,4.63,4.63,0,0,0-2-2.11A9,9,0,0,0,183.47,70.19Z"/></g><g id="Sunglasses"><path id="_Ink-5" data-name=" Ink-5" class="cls-3" d="M176,64.93c-.3,0-.61,0-.91,0a9,9,0,0,1-3.07-.82,9.84,9.84,0,0,1-2.34-1.53,11,11,0,0,1-1.59-1.76,6.9,6.9,0,0,1-.84-1.47l0-.09-.17-.45c-.37-1.05-.8-2.24-2-2.46l-.29-.05a3.59,3.59,0,0,1-.9-.27,1.6,1.6,0,0,1-.7-.64,1.81,1.81,0,0,1-.26-.88l-.66.05c-.91.19-4.19.37-6.78.47-2.9.13-5.7.21-6.11.21a5,5,0,0,1-1.54.34,1.15,1.15,0,0,1-.72-.19,1.29,1.29,0,0,1-.45-.63,1.12,1.12,0,0,1,.09-.76A2.42,2.42,0,0,1,148,53a9,9,0,0,1,1.63-.48s3.89,0,7.46,0c3.77,0,5.86,0,6.21-.1a2.79,2.79,0,0,1,1.88-.56l.55,0a8.2,8.2,0,0,1,2.47-1.06l.46-.17a18,18,0,0,1,4.41-.92,15.75,15.75,0,0,1,1.7-.08,20.55,20.55,0,0,1,2.94.21,17.5,17.5,0,0,1,1.93.35,28.53,28.53,0,0,1,3.43.69l.23.06a11,11,0,0,0,2.76.45,5.82,5.82,0,0,0,.93-.07,12.23,12.23,0,0,0,2.92-1l.12-.06a20.9,20.9,0,0,1,7.59-1.65,23.11,23.11,0,0,1,5.43.65,6.68,6.68,0,0,0,.89.18h0a2.68,2.68,0,0,1,.88.16,1.44,1.44,0,0,1,.94,1,1.3,1.3,0,0,1,0,.65,1.36,1.36,0,0,1-.32.59c0,.45,0,.92,0,1.41h0a13.77,13.77,0,0,1-.19,3.23,13.67,13.67,0,0,1-.71,3.74,6.89,6.89,0,0,1-1.3,2.24,5.48,5.48,0,0,1-3,1.63,6.94,6.94,0,0,1-1.57.18,5.19,5.19,0,0,1-1.12-.12,8.34,8.34,0,0,1-2.22-.39,8.52,8.52,0,0,1-4.3-3.09,7.31,7.31,0,0,1-1.26-2.85,9.94,9.94,0,0,1-.18-3v-.14a4.66,4.66,0,0,0-1.93-.35l-.64,0h-.32a8.09,8.09,0,0,0-.92.14,2.32,2.32,0,0,0-.94.53l0,.38a19.63,19.63,0,0,1-.37,2.86,9.92,9.92,0,0,1-.6,2,5.71,5.71,0,0,1-1.12,1.7,5.76,5.76,0,0,1-1.24,1.32,8,8,0,0,1-2.65,1.32A10.19,10.19,0,0,1,176,64.93ZM179.38,52a.64.64,0,0,0-.6.59.52.52,0,0,0,.43.6,2,2,0,0,1,1.3.85l0,.05a.56.56,0,0,0,.49.29.67.67,0,0,0,.58-.34.52.52,0,0,0,0-.56A3.22,3.22,0,0,0,179.53,52Zm22.1-.79a.63.63,0,0,0-.54.3.62.62,0,0,0,.19.81l0,0a1.18,1.18,0,0,1,.48.75v0a.61.61,0,0,0,.61.59h0a.62.62,0,0,0,.44-.18.56.56,0,0,0,.14-.41,2.39,2.39,0,0,0-1.08-1.84A.6.6,0,0,0,201.48,51.22Z"/></g></g><g id="bust-2"><g id="Paper"><path id="_Background-3" data-name=" Background-3" class="cls-2" d="M294.36,113.82c-1.31-5.11-2.53-7.28-4.87-9s-5.38-3.06-10.05-4.08c-4.86-.85-5-3.38-6.21-7.44a1.76,1.76,0,0,0-2.88-.66,3.34,3.34,0,0,0-.33-.32c.1-.58-.75-2.25-.72-2.8.3-5.81-1.6-8.73-6.34-9.82a53.67,53.67,0,0,0-9-.09c-4.39,1.21-8.72,5.07-8.06,9.72A8.57,8.57,0,0,1,241,92.77q-7.11.9-14.21,1.59a39.35,39.35,0,0,0-23.92,13.53,1.85,1.85,0,0,0-.22,2.26c-.38,1.63-2.52,5.57-.84,6.68-2.76,6.6-9.11,19.37-9.12,23-.05,15.32,1.6,35.26,16.72,43.74a4.3,4.3,0,0,1,.95,2.14,5.77,5.77,0,0,0,5.72,4.62c13,.28,25.62-1.3,38.63-1.38a158.64,158.64,0,0,1,17.63,1.39,36.34,36.34,0,0,0,14.8-1.39,2,2,0,0,0,2.05.82c5-1,9-4,12.46-7.38,1.07-1.94,5.24-7.48,3.58-9.4,1.5-6.35,1.42-13.18-1.24-19.23.37-1.11-.32-2.32,0-3.47.22-.83.8-1.17,1.09-2a6.1,6.1,0,0,0-.5-3.88c-.19-.59.35-1.22.5-1.82.7-2.82-.91-2.58-2.08-4.47,0,0,.32-1.35.32-1.34a5.41,5.41,0,0,0-.66-3,1.39,1.39,0,0,0-1.39-.82,52,52,0,0,1,2.05-5.37,55.83,55.83,0,0,1,5-9.32,1.8,1.8,0,0,0-1.57-2.69A77.81,77.81,0,0,1,294.36,113.82Z"/><path id="_Ink-6" data-name=" Ink-6" class="cls-3" d="M284.18,191.56h0a33.43,33.43,0,0,1-3.46-.19c-1.3-.13-2.61-.31-3.88-.48h0c-1.47-.19-3-.4-4.49-.54s-3.16-.26-4.94-.35l.36-.69h0l.27-.53a.57.57,0,0,0,0-.59.68.68,0,0,0-.56-.33.5.5,0,0,0-.46.31l-.3.57c-.2.39-.41.79-.6,1.2-2.31-.1-4.76-.15-7.48-.15-4,0-8.05.11-12,.21l-5,.12-4.86.09h0c-3.54.06-7.2.13-10.8.25l-4.49.17h0l-2.89.11c-.14-.45-.29-.9-.44-1.34-.07-.17-.14-.37-.2-.57a.59.59,0,0,0-.59-.41.63.63,0,0,0-.52.25.51.51,0,0,0-.06.48c.07.2.14.4.2.59h0c.12.34.24.7.36,1-2.58.08-4.56.12-6.43.12h-.47a.57.57,0,0,1-.18,0V191h0v-.16a.68.68,0,0,1-.39-.44,4.58,4.58,0,0,1-.07-1.88,2.28,2.28,0,0,0-.62-.85,5.24,5.24,0,0,0-1.78-.85,9.79,9.79,0,0,1-1.17-.46,13.26,13.26,0,0,1-2.06-1.3,17,17,0,0,1-3.48-3.56,25.65,25.65,0,0,1-1.53-2.31q-.67-1.16-1.29-2.46a43.14,43.14,0,0,1-2-5.17c-.55-1.74-1.05-3.57-1.48-5.45s-.76-3.67-1-5.58a91.12,91.12,0,0,1-.95-11.3,75.62,75.62,0,0,1,.37-9.4c.72-.47,1.47-.9,2.24-1.3a.51.51,0,0,0,.29-.6.68.68,0,0,0-.22-.36.58.58,0,0,0-.39-.15.59.59,0,0,0-.29.07c-.48.24-.95.51-1.46.81a73.13,73.13,0,0,1,2.07-10.57,71.71,71.71,0,0,1,3.6-10.16c.86-2,1.67-3.63,2.48-5.13a42,42,0,0,1,3-4.86,10.59,10.59,0,0,1,2.44.44.63.63,0,0,0,.19,0,.59.59,0,0,0,.55-.52.61.61,0,0,0-.07-.4.55.55,0,0,0-.35-.28,10.26,10.26,0,0,0-1.89-.4,26.2,26.2,0,0,1,2.1-2.36,25.8,25.8,0,0,1,2.64-2.26,27.59,27.59,0,0,1,2.89-1.89c1-.57,2-1.09,3.1-1.56s2.1-.88,3.23-1.27A88.14,88.14,0,0,1,233,93.89l1.31-.22c3.82-.6,7.43-1.17,9.77-4.87a.64.64,0,0,1,.53-.29.46.46,0,0,1,.28.08l.35.24v0a15,15,0,0,0,.47-2.09c.08-.46.16-1,.28-1.42a.15.15,0,0,1,.15-.12.2.2,0,0,1,.18.12,5.42,5.42,0,0,1,.28,2,8.62,8.62,0,0,1-.4,2.2l.55.39A35.12,35.12,0,0,0,250,92.05c2,1.12,5.39,1.71,7.65,2.11h.1a32.08,32.08,0,0,0,5.7.54c.39,0,.78,0,1.16,0a9.2,9.2,0,0,0,2.6-.44,5,5,0,0,0,1.25-.6,2.2,2.2,0,0,0,.25-.17,16.12,16.12,0,0,1-.13-2.86,5.92,5.92,0,0,1,.6-2.86s0,0,0,0a.1.1,0,0,1,.05,0,10.29,10.29,0,0,1,.59,3.16l.06.68a3,3,0,0,1,3.32,1.13,5.65,5.65,0,0,1,.72,1.61,9.94,9.94,0,0,0,.35,1,2.59,2.59,0,0,0,.25.39,1.83,1.83,0,0,1,.35.62l.09.1a0,0,0,0,1,0,0l-.12,0-.11,0,.1,0h0a.34.34,0,0,0,.12.06h0a2.74,2.74,0,0,1,.59.36,1.33,1.33,0,0,1,.35.55A1.59,1.59,0,0,1,276,98l.59.28c.4.2.82.4,1.23.57l.15.06c1.06.44,2.15.88,3.21,1.37,2.37,1.09,4.72,2.31,7,3.61l.35.2,1.5.87a12.13,12.13,0,0,0-1.5,1.27.54.54,0,0,0-.14.62.67.67,0,0,0,.59.41.54.54,0,0,0,.4-.17,11.84,11.84,0,0,1,1.73-1.43,9.62,9.62,0,0,1,2.65,2.58A14.15,14.15,0,0,1,295,111h0l.09.23a14.47,14.47,0,0,0,1.53,3h0l0,.05H297c2,.12,4,.27,5.93.46l.91.08a42,42,0,0,1,4.86.64.58.58,0,0,1,.34.29.46.46,0,0,1,0,.38c-.07.15-.14.34-.22.52-2,5-4.41,10.07-7.23,15.6a1.66,1.66,0,0,1,.81.21,1.25,1.25,0,0,1,.55.71,9.47,9.47,0,0,1,.5,2,4.74,4.74,0,0,1-.17,2,.06.06,0,0,1-.06.05h0a2.78,2.78,0,0,0,.76,2,6,6,0,0,0,.61.52,3.62,3.62,0,0,1,.84.77c.63.88.2,1.59-.26,2.34-.09.14-.18.28-.26.43a.74.74,0,0,0-.08.71,1.87,1.87,0,0,0,.46.51,3.33,3.33,0,0,1,.42.42,2,2,0,0,1,.37.8,2.48,2.48,0,0,1,0,.9,6,6,0,0,1-.72,1.95c-.09.18-.18.35-.26.53a8.89,8.89,0,0,1-1,1.71l-.06.05h0c.08,0,.18.13.21.2s0,.07,0,.11a.47.47,0,0,1,.05.1h0a.11.11,0,0,1,0-.08.17.17,0,0,1,.12-.07h0c.09,0,.24.18.27.26a35.29,35.29,0,0,1,1.43,3.83l.16.63,0,.12.29,1.13c.21.92.34,1.87.47,2.78h0c.1.65.18,1.29.22,1.91.1.93.16,1.88.18,2.82a34.94,34.94,0,0,1-.4,4.57q-.11.95-.3,1.86a24,24,0,0,1-.65,2.76l-.32,1.35-.09.35v0c-.06.15-.11.31-.17.46a7.86,7.86,0,0,1-.38,1.06c-.05.16-.1.32-.17.5a14.12,14.12,0,0,0-3.86-.71h0a.55.55,0,0,0-.57.55v0a.65.65,0,0,0,.14.42.57.57,0,0,0,.44.2,12.71,12.71,0,0,1,3.38.61c-.18.34-.37.68-.56,1l0,0c-.55,1.07-1.11,2.18-1.76,3.22a17.79,17.79,0,0,1-1.22,1.76,13.78,13.78,0,0,1-2.61,2.62,6.87,6.87,0,0,1-1.56,1,11.5,11.5,0,0,1-2,.66,11.08,11.08,0,0,1-1.15.21l-.62.06-.77.07a5.77,5.77,0,0,0-1.24.31,3.25,3.25,0,0,0-.56.28,4.37,4.37,0,0,0-.42.44h0a1.14,1.14,0,0,1-.93.78A31,31,0,0,1,284.18,191.56Zm-49-9.27-.16,0a.71.71,0,0,0-.4.34.53.53,0,0,0,0,.41,8.18,8.18,0,0,0,1.72,2.7.56.56,0,0,0,.4.19.67.67,0,0,0,.58-.41.54.54,0,0,0-.13-.63,7,7,0,0,1-1.41-2.18A.63.63,0,0,0,235.2,182.29ZM243.42,169h-.14a2.66,2.66,0,0,1-.39.07,2.35,2.35,0,0,0-.57.13l-.54.25-.21.11-1.75.83L236.6,172c-2,.95-4,1.95-5.9,2.92h0l-.89.44c-2,1-4.33,2.17-6.63,3.34-1.18.59-2.33,1.2-3.3,1.71l-.3.16c-.42.22-.85.45-1.27.69l-.35.18a4,4,0,0,0-1.15.8s0,0,0,.06,0,0,0,0h0a6.64,6.64,0,0,0,2.35-.86c.26-.13.51-.26.74-.36l.71-.32h0l2.54-1.16c2.67-1.25,4.86-2.27,6.9-3.19.92-.43,1.86-.85,2.76-1.26,1.32-.59,2.68-1.21,4-1.83l3.38-1.55,1.62-.75.27-.12h0l.53-.25a3.1,3.1,0,0,0,.65-.44l.32-.25a.54.54,0,0,0,.2-.6A.45.45,0,0,0,243.42,169ZM281.9,179.5a.66.66,0,0,0-.58.41.57.57,0,0,0,.13.63c.17.17.33.34.49.52a7.63,7.63,0,0,0,1.2,1.14.47.47,0,0,0,.28.09A.67.67,0,0,0,284,182a.59.59,0,0,0,.06-.45.72.72,0,0,0-.28-.38,5.56,5.56,0,0,1-1-1l-.46-.51a.58.58,0,0,0-.41-.18Zm-26.35-3.83a.55.55,0,0,0-.4.18,21.77,21.77,0,0,0-1.84,2.21.49.49,0,0,0-.07.39.67.67,0,0,0,.29.44.6.6,0,0,0,.29.08.68.68,0,0,0,.54-.3,18.12,18.12,0,0,1,1.65-2,.55.55,0,0,0,.13-.62A.67.67,0,0,0,255.55,175.67Zm-48.94-4.51a.67.67,0,0,0-.28.06c-.38.19-.77.36-1.15.52a17.76,17.76,0,0,0-1.81.88.53.53,0,0,0-.27.64.63.63,0,0,0,.58.49.55.55,0,0,0,.3-.09,17.68,17.68,0,0,1,1.81-.87l1.15-.52a.5.5,0,0,0,.29-.59A.65.65,0,0,0,206.61,171.16Zm92-9.59-.05,0s0,0,0,0a5.23,5.23,0,0,0,.35,1.4c.07.19.13.38.19.56a24,24,0,0,1,.59,2.38,17.29,17.29,0,0,1,.24,2,13.55,13.55,0,0,0,.39,2.67.48.48,0,0,0,.49.39.61.61,0,0,0,.57-.39,4.53,4.53,0,0,0,.32-1.24,6.37,6.37,0,0,0,0-1.31,12.31,12.31,0,0,0-.58-2.54,11.82,11.82,0,0,0-1-2.27,9.9,9.9,0,0,0-.63-1,2.87,2.87,0,0,0-.82-.77Zm-31.22,2a.61.61,0,0,0-.53.25.47.47,0,0,0,0,.47c.16.41.35.82.52,1.22s.36.81.52,1.22a.68.68,0,0,0,.88.35.73.73,0,0,0,.26-.2.49.49,0,0,0,0-.47c-.17-.41-.35-.83-.52-1.22h0c-.18-.4-.36-.81-.52-1.22a.64.64,0,0,0-.61-.4Zm15.9-.4a.58.58,0,0,0-.19,0,25.23,25.23,0,0,0-2.92,1.14l-.71.31a.57.57,0,0,0-.27.24.5.5,0,0,0,0,.32.69.69,0,0,0,.65.54.75.75,0,0,0,.26,0l.59-.26h0a23.77,23.77,0,0,1,2.73-1.07.58.58,0,0,0,.42-.66.65.65,0,0,0-.18-.37A.51.51,0,0,0,283.3,163.12Zm-54.17-.52a.67.67,0,0,0-.59.41.55.55,0,0,0,.14.63l1.56,1.56a.54.54,0,0,0,.41.18.66.66,0,0,0,.58-.41.55.55,0,0,0-.13-.62l-1.57-1.57a.55.55,0,0,0-.4-.18Zm-9.36-25.71a.15.15,0,0,0-.1,0,.1.1,0,0,0,0,.1c0,.75.11,1.52.17,2.26h0c.09,1,.18,2,.21,3,.06,1.67,0,3.41,0,5.34-.05,1.57-.15,3.22-.32,5.2,0,.52-.11,1-.18,1.57h0a16,16,0,0,0-.21,3.44c-1.6.42-3,.84-4.23,1.3l-.81.28a19.22,19.22,0,0,0-2.85,1.17,4.73,4.73,0,0,0-2.1,2,.11.11,0,0,0,0,0l0,0h0a3.41,3.41,0,0,1,1.32-1,11.33,11.33,0,0,1,1.58-.54l.31-.09c1.2-.35,2.4-.67,3.73-1,2.5-.65,5.07-1.18,7.55-1.7h0l.28-.06,1.23-.25c2.17-.45,4.43-.92,6.62-1.46l.34-.08h0c1.12-.28,2.28-.56,3.38-.94a15,15,0,0,0,3.66-1.66.5.5,0,0,0,.17-.55.34.34,0,0,0-.33-.25h0a21.54,21.54,0,0,0-3.22.7h0l-.66.17-1.62.44h0c-.78.22-1.58.44-2.38.64-1.86.45-3.76.87-5.6,1.28h0l-2.64.58c-1,.23-1.83.42-2.59.61a12.86,12.86,0,0,0,.18-1.52c0-.15,0-.29,0-.44s0-.49.06-.72v0c.05-.6.11-1.23.15-1.85.17-2.05.26-3.85.28-5.5a39.55,39.55,0,0,0-.24-5.33c-.08-.78-.19-1.7-.37-2.62a15.2,15.2,0,0,0-.67-2.55A.15.15,0,0,0,219.77,136.89Zm59.39-5.39c-.72,0-1.44.06-2.14.12h0l-.56,0a30,30,0,0,0-4.7.71,6.44,6.44,0,0,0-1.79.71,5.85,5.85,0,0,0-1.48,1.23,18.19,18.19,0,0,0-1.86,2.75l-.24.42a20.91,20.91,0,0,1-2.68,3.6,19.18,19.18,0,0,1-3.37,2.86,1,1,0,0,1-.42.46h0l-.16.07h0l-.29.13a45.6,45.6,0,0,0-4.72,2.3l0,.2h0c0,.12,0,.23,0,.34,0,.33-.07.68-.1,1s-.08.67-.11,1a34.44,34.44,0,0,0-.15,4.06,20.69,20.69,0,0,0,.56,4.22c.14.55.31,1.09.49,1.62l0,.1a16.09,16.09,0,0,1,3-1.7,12.63,12.63,0,0,1,3.4-1.09,8.47,8.47,0,0,1,1.23-.08,16.76,16.76,0,0,1,2.45.21l.24,0h0a12.58,12.58,0,0,0,1.83.17,4.21,4.21,0,0,0,1.32-.18,5.21,5.21,0,0,0,2.53-2.36,9.35,9.35,0,0,1,1.25-1.58,3.75,3.75,0,0,1,2.22-1.07l.37,0h.6a2.21,2.21,0,0,0,.92-.16,1.94,1.94,0,0,0,1.07-1.32.75.75,0,0,1,.41-.49,2.16,2.16,0,0,1-.72-.48l-.22-.19c-.43-.34-.86-.66-1.28-1l-.81-.55-.41-.27-.25-.2c-.29-.23-.64-.52-.9-.52h-.07a.05.05,0,0,1-.05,0s0,0,0,0,.21-.24.45-.24a3.41,3.41,0,0,1,1.26.36,12.93,12.93,0,0,1,1.56.83,7.35,7.35,0,0,1,2.08,1.67.46.46,0,0,1-.09.55,1.36,1.36,0,0,0,.29,0,1.31,1.31,0,0,0,.95-.46,2.33,2.33,0,0,0,.52-1,7.32,7.32,0,0,0-.1-2.87l0-.22a.16.16,0,0,1,0-.12.15.15,0,0,1,.11-.06h0l0-.08c-.73-.32-1.51-.57-2.27-.82h0l-1-.34-.61-.21,0,0-1.45-.5-.21-.07a2.52,2.52,0,0,1-1.24-.7.66.66,0,0,1-.12-.6.51.51,0,0,1,.36-.32,1.75,1.75,0,0,1,.4,0,3.8,3.8,0,0,1,1.3.31l.33.12,1.75.6.23.08.92.3h0a24.38,24.38,0,0,1,2.55.93,4.87,4.87,0,0,1,1.28.81,3.52,3.52,0,0,1,.91,1.22,2.32,2.32,0,0,1,.12.35c.15.43.34,1,.7,1.1h.08c.21,0,.38-.2.51-.61a5.38,5.38,0,0,0,.17-.89,6.54,6.54,0,0,0-3.32-6.35,18.75,18.75,0,0,0-3.51-1.16l-.13,0a31.81,31.81,0,0,0-3.12-.65c-.4-.07-.83-.13-1.33-.19a.08.08,0,0,1-.07-.08.09.09,0,0,1,.07-.06h0l1.13,0h.52a13.24,13.24,0,0,1,5-1.48h.16a2.93,2.93,0,0,1,2,.79,3.78,3.78,0,0,1,.69.85,3.55,3.55,0,0,1,.4,1,.6.6,0,0,1-.33.71,7.25,7.25,0,0,1,2.76,3.9l.09.26a3.66,3.66,0,0,1,.73-1.13,5.72,5.72,0,0,1,1-.87,18.76,18.76,0,0,1,2.56-1.42.94.94,0,0,1-.22-.12,1.64,1.64,0,0,1-.44-1.16s0-.11,0-.16a4.89,4.89,0,0,1,0-1.79,2.65,2.65,0,0,1,.31-.78,3.12,3.12,0,0,1,.51-.64,5.09,5.09,0,0,1,1.38-.91,20.6,20.6,0,0,1,3.88-1.38,21.72,21.72,0,0,1,4.08-.6,1,1,0,0,1,.07-.15c1.36-2.45,2.71-5,4-7.73,1.21-2.51,2.41-5.19,3.57-7.93-1-.07-1.93-.19-2.86-.3h0c-.69-.09-1.41-.18-2.12-.24-1.87-.18-3.77-.33-5.64-.44l-1.15-.07h0c-1.27-.07-2.58-.12-3.88-.15l-.47,0h0c-.61,0-1.23,0-1.85,0h-.29a1.75,1.75,0,0,0-.56.06,1,1,0,0,0-.46.31,1.48,1.48,0,0,0-.16.27,1.12,1.12,0,0,1-.34.41l0,0-.08.05a.08.08,0,0,0,0,0h0a.6.6,0,0,0-.08.08,6.54,6.54,0,0,0-.48.73c-.43.73-.81,1.5-1.19,2.24h0c-.28.55-.55,1.12-.81,1.67-.37.77-.76,1.58-1.17,2.35-.72,1.34-1.39,2.52-2.05,3.6-.17.28-1.47,2.26-2.21,3.26a7.26,7.26,0,0,1,1.74.27c.12-.28.26-.55.4-.82h0c.12-.23.24-.46.35-.7s.15-.36.22-.55a5.36,5.36,0,0,1,.47-1,.33.33,0,0,1,.27-.15.34.34,0,0,1,.26.12.35.35,0,0,1,.07.28,4.32,4.32,0,0,1-.75,1.52h0l0,.07a7.55,7.55,0,0,1-1,1.3.08.08,0,0,1,.06,0,4.26,4.26,0,0,1,1.52,1.06,14.22,14.22,0,0,1,1.2,1.49l.42.56a27,27,0,0,1,1.84,2.76,10.79,10.79,0,0,1,.87,1.89,2.09,2.09,0,0,1,.08,1.48,1,1,0,0,1-.92.52h0a.52.52,0,0,1-.52-.53v0a.56.56,0,0,1,.14-.41.52.52,0,0,1,.42-.2c-.13,0-.14-.08-.14-.19a.66.66,0,0,0,0-.14c0-.13-.09-.26-.14-.38l-.05-.11a9.88,9.88,0,0,0-.61-1.27,18.51,18.51,0,0,0-1.27-2c-.49-.66-1-1.3-1.53-2l-.07-.09a3.78,3.78,0,0,0-1.85-1.48,7.49,7.49,0,0,0-1.88-.22Zm7.77,22.22h0l0,.66c0,.62,0,1.24,0,1.85h0c0,.17,0,.35,0,.52a2.26,2.26,0,0,1,0,.25,2.29,2.29,0,0,0,0,.69c1,0,2,0,3,0h.57c.75,0,1.43,0,2.06-.05a.58.58,0,0,1,.53-.3h.11a4.26,4.26,0,0,0,1.41-.24,4.78,4.78,0,0,0,1.18-.63,12.55,12.55,0,0,0,2-1.92h0l.64-.71a19.23,19.23,0,0,1,4.92-3.9,10,10,0,0,1,.62-1.17c.13-.22.27-.45.39-.68l0,0a2.92,2.92,0,0,0,.51-2.27,2,2,0,0,0-.59-.71,2.2,2.2,0,0,1-.6-.72,1.39,1.39,0,0,1-.09-.7A1.83,1.83,0,0,1,304,143a4.29,4.29,0,0,1,.36-.48,1.8,1.8,0,0,0,.54-1c0-.52-.48-.91-.92-1.26a4.35,4.35,0,0,1-.41-.34,2.56,2.56,0,0,1-.53-3,.07.07,0,0,1,.06-.05,15.36,15.36,0,0,0-.33-1.64,7,7,0,0,0-.57-1.55.86.86,0,0,0-.88-.49h-.51c-.53,0-1,.05-1.53.1a21.65,21.65,0,0,0-3.29.61,19.68,19.68,0,0,0-3.15,1.12,5.19,5.19,0,0,0-1.26.75,2,2,0,0,0-.71,1.24,5.1,5.1,0,0,0,.05,1.46v.05c0,.14.05.32.1.35h0a3.82,3.82,0,0,0,.67-.15l.16,0,.31-.07h0l3-.66.89-.21h0a10.9,10.9,0,0,1,2.3-.41h0a.46.46,0,0,1,.41.39.35.35,0,0,1-.2.42,14.6,14.6,0,0,1-3.14.8c-.44.08-.89.16-1.31.26l-.37.08-.38.08-1.18.53a33.12,33.12,0,0,0-3,1.47l0,0a5.28,5.28,0,0,0-2.07,1.73,2,2,0,0,0-.24.75,1.56,1.56,0,0,0,.11.77,1,1,0,0,0,.72.61,1.63,1.63,0,0,0,.49.05l.48,0a9.82,9.82,0,0,0,1.3-.31l.7-.18,2.92-.67,1.15-.26,4.83-1.09h.11a.38.38,0,0,1,.28.12.45.45,0,0,1,.12.27.31.31,0,0,1-.05.25.34.34,0,0,1-.24.16l-7.88,1.8-1,.24h0a21.79,21.79,0,0,1-2.24.48h0a11.3,11.3,0,0,0-2.65,2.11l-.16.21a.86.86,0,0,0-.19.89.68.68,0,0,0,.65.35h.08a3.49,3.49,0,0,0,.9-.17l.28-.07c.79-.2,1.61-.38,2.42-.54a94.28,94.28,0,0,1,9.4-1.18l.44,0H300a.39.39,0,0,1,.28.11.45.45,0,0,1,.1.27.48.48,0,0,1-.1.33.45.45,0,0,1-.33.19h-.11c-2.21.21-4.5.42-6.75.74-1.22.18-2.3.36-3.31.55-.38.07-.77.17-1.15.26l-.57.14a0,0,0,0,1,0,0c-.66,1-1.11,2.46-.18,3.33a1.45,1.45,0,0,0,1,.34c.22,0,.43,0,.65,0h.05c.67-.07,1.35-.17,2-.26,1.12-.16,2.29-.34,3.56-.57l1.85-.33.23-.05h0a2.26,2.26,0,0,1,.51-.08,1.14,1.14,0,0,1,.51.13.23.23,0,0,1,.13.17.31.31,0,0,1-.08.26,2.42,2.42,0,0,1-1.57.56l-.48.06c-.9.16-1.69.29-2.43.4l-.55.09c-1.34.2-2.73.41-4.09.49H289a2.52,2.52,0,0,1-1.21-.27,2,2,0,0,1-.85-.82Zm.9-3.41a8.45,8.45,0,0,1-1.12.19h0c.05.4.09.81.13,1.25a4.17,4.17,0,0,1,1-1.44ZM202.48,148a.68.68,0,0,0-.6.42.52.52,0,0,0,.15.61,7.62,7.62,0,0,0,2.63,1.45h0l.25.1a.49.49,0,0,0,.21,0,.53.53,0,0,0,.5-.46.66.66,0,0,0-.39-.75l-.29-.11a6,6,0,0,1-2.06-1.13.66.66,0,0,0-.4-.17Zm84.16-2.41a6.22,6.22,0,0,1-.05,1.14,6.43,6.43,0,0,1,1-.61,1.88,1.88,0,0,1-1-.53Zm-42.4-4a.56.56,0,0,0-.57.55v0a.66.66,0,0,0,.15.42.57.57,0,0,0,.44.2,6.55,6.55,0,0,1,1.52.27h0l.23.06.16,0a.62.62,0,0,0,.59-.56.59.59,0,0,0-.08-.39.55.55,0,0,0-.35-.24l-.11,0h0a8.68,8.68,0,0,0-1.94-.34Zm36.06-4.67-.5,0c-1,.09-1.95.25-2.94.42a18.84,18.84,0,0,1,5.29,1.16l.23.1c-.06-.11-.12-.22-.17-.33a3.17,3.17,0,0,0-.57-.88A1.73,1.73,0,0,0,280.3,136.85Zm-52.91-4.72a.66.66,0,0,0-.63.52.5.5,0,0,0,.3.59,10.6,10.6,0,0,0,2.58.93l.14,0a.65.65,0,0,0,.61-.59.54.54,0,0,0-.08-.37A.56.56,0,0,0,230,133a9.57,9.57,0,0,1-2.29-.8.58.58,0,0,0-.28-.07Zm21.19-7.49a.55.55,0,0,0-.55.42,27.64,27.64,0,0,0-.7,3.49.6.6,0,0,0,.15.51.69.69,0,0,0,.53.25.48.48,0,0,0,.49-.44,27.46,27.46,0,0,1,.69-3.48.53.53,0,0,0-.08-.5A.67.67,0,0,0,248.58,124.64Zm-39.8,1.7a.57.57,0,0,0-.22,0,20.84,20.84,0,0,0-2.75,1.28.58.58,0,0,0-.26.3.56.56,0,0,0,0,.36.59.59,0,0,0,.21.33.55.55,0,0,0,.36.15.69.69,0,0,0,.31-.09,17.25,17.25,0,0,1,2.46-1.16.64.64,0,0,0,.39-.75A.52.52,0,0,0,208.78,126.34Zm61.37-10.09a.5.5,0,0,0-.46.31,9.11,9.11,0,0,0-.54,1.24,4.33,4.33,0,0,0-.24,1.33.53.53,0,0,0,.15.41.62.62,0,0,0,.44.17.59.59,0,0,0,.62-.55v0a4.59,4.59,0,0,1,.61-2,.61.61,0,0,0,0-.6A.7.7,0,0,0,270.15,116.25Zm-38.94-1.91-.18,0c-.74.21-1.51.36-2.26.5-.57.12-1.17.23-1.74.37a.57.57,0,0,0-.36.24.63.63,0,0,0-.07.38.62.62,0,0,0,.59.57l.16,0c.58-.14,1.17-.26,1.74-.37.75-.15,1.52-.3,2.26-.5a.56.56,0,0,0,.42-.65.64.64,0,0,0-.18-.38A.55.55,0,0,0,231.21,114.34Zm-23.76-1.76a.53.53,0,0,0-.5.47.65.65,0,0,0,.39.74c.41.15.82.3,1.22.43h0c.4.14.82.28,1.22.44a.57.57,0,0,0,.22,0,.53.53,0,0,0,.5-.47.65.65,0,0,0-.4-.74c-.4-.16-.81-.3-1.21-.43s-.82-.28-1.22-.44A.57.57,0,0,0,207.45,112.58Zm37.68-4.34h0a.62.62,0,0,0-.59.63.61.61,0,0,0,.59.58,14.34,14.34,0,0,1,2.45.15l.12,0a.57.57,0,0,0,.44-.2.65.65,0,0,0,.19-.41.5.5,0,0,0-.42-.57h0a15.19,15.19,0,0,0-2.77-.2Zm32.58-6.81a.58.58,0,0,0-.32.1l-1.57,1a.6.6,0,0,0-.24.32.64.64,0,0,0,.54.82.5.5,0,0,0,.31-.1l.32-.21,1.25-.83a.63.63,0,0,0,.25-.33.64.64,0,0,0-.54-.82ZM223,99.72h-.11a14.05,14.05,0,0,0-2.79.69.66.66,0,0,0-.4.74.53.53,0,0,0,.5.47.54.54,0,0,0,.22,0,14.08,14.08,0,0,1,2.79-.7.48.48,0,0,0,.43-.53v0A.66.66,0,0,0,223,99.72Zm29.33-2.11a.64.64,0,0,0-.54.3.61.61,0,0,0,.21.83,8.78,8.78,0,0,1,1.25,1.11l0,0a.57.57,0,0,0,.41.17.65.65,0,0,0,.58-.41.55.55,0,0,0-.13-.62,10.6,10.6,0,0,0-1.52-1.31A.47.47,0,0,0,252.29,97.61Z"/></g><g id="Bun_2" data-name="Bun 2"><path id="_Background-4" data-name=" Background-4" class="cls-2" d="M281.12,51.54c-.36-4.65.2-9.53-1.6-13.95-3.12-7.33-11.88-9.77-18.68-12.57-2.72-.8-11.88-.91-15.06-2-7.22-2.41-8.94-5.28-14.67-.69a6.25,6.25,0,0,0-2,2.8h0a1.57,1.57,0,0,0,.3,1.34,9.34,9.34,0,0,0-2.25,9.74c4.16,8.8,4,13.55,2.62,23C228,68.08,232,71.31,238.66,76.11a1.63,1.63,0,0,0,0,1.68c7.66,10.77,22.11,15.91,34.48,10.45,5-2.24,7.27-7.59,8.55-12.42a34.49,34.49,0,0,0,.73-16.61A71.47,71.47,0,0,1,281.12,51.54Z"/><path id="_Ink-7" data-name=" Ink-7" class="cls-3" d="M264,91.46a22.88,22.88,0,0,1-5.46-.69,26.62,26.62,0,0,1-3.7-1.2,2.16,2.16,0,0,1-.95-.65.86.86,0,0,1-.2-.69.81.81,0,0,1,.85-.61,1.7,1.7,0,0,1,.45.08,27.45,27.45,0,0,0,8.32,1.53,15.47,15.47,0,0,0,1.92-.12c5.29-.69,8.91-2.47,11.4-5.61,3.17-4,4.54-10.22,4.19-19-.06-1.25-.16-2.52-.25-3.75-.12-1.43-.23-2.91-.27-4.36,0-1.06,0-2.14-.06-3.18,0-1.56,0-3.17-.1-4.75l0-.9c-.05-1.06-.1-2.1-.18-3.16,0-.13,0-.25-.08-.38-.06-.28-.13-.57-.21-.85A17.87,17.87,0,0,0,278.43,40a.77.77,0,0,1-.38.17,6.48,6.48,0,0,1-1.08.11,4.71,4.71,0,0,1-3.15-1.21,1.71,1.71,0,0,1-.39-.46h0a1.56,1.56,0,0,1-1.21-.48,1.24,1.24,0,0,1-.3-.58,1,1,0,0,1,0-.58l0,0,0,0a5.81,5.81,0,0,1-2.06,2.56,6.84,6.84,0,0,1-2.28,1,11.5,11.5,0,0,1-2.48.28h-.25a35.14,35.14,0,0,1-5.31-.54c-.57-.09-1-.18-1.41-.28l0,0s0,0,0,0a5.12,5.12,0,0,1-3.57,1.46,5.25,5.25,0,0,1-2.11-.44,7.34,7.34,0,0,1-1.57-.94,10.64,10.64,0,0,1-1.36-1.24c0,.5,0,1-.07,1.41l0,.19a3.76,3.76,0,0,1-.9,2.42,2.2,2.2,0,0,1-1.6.61,3.73,3.73,0,0,1-1.14-.19,5.92,5.92,0,0,1-1.1-.48.38.38,0,0,1,0,.1c.3,1,.61,2.1.92,3.12v0l.07.24.07.24c0,.08,0,.16.08.24h0a10.23,10.23,0,0,1,.5,2.19,2.79,2.79,0,0,1-.65,2.14,1.83,1.83,0,0,1-1.37.61,2.25,2.25,0,0,1-.68-.11,5.55,5.55,0,0,1-2.05-1.38h0l-.35-.31-.45-.39a42.8,42.8,0,0,1,2.06,11.77.4.4,0,0,1-.39.38h-.13a3.91,3.91,0,0,1-1.35-.27h-.09a5.62,5.62,0,0,1-2.26-.86,4.23,4.23,0,0,1,.18,1.58.15.15,0,0,1-.14.13.12.12,0,0,1-.11-.09A3.75,3.75,0,0,0,237,60a5,5,0,0,0-1.2-.65,3.88,3.88,0,0,0-1.31-.23,4.21,4.21,0,0,0-.62.05,5.17,5.17,0,0,0-4,4.22,7.48,7.48,0,0,0,.21,3.39,8.21,8.21,0,0,0,1.58,3,4.35,4.35,0,0,0,2.55,1.59,2.92,2.92,0,0,0,.51,0,3.37,3.37,0,0,0,.9-.12,4.37,4.37,0,0,0,.46-.18l.1,0a2.62,2.62,0,0,1,.4-.11,2.13,2.13,0,0,0,.43-.13,1.08,1.08,0,0,1,.31-.07.64.64,0,0,1,.64.61.73.73,0,0,1-.08.33A2.6,2.6,0,0,1,237,72.8a7.58,7.58,0,0,1,.6.88,2.76,2.76,0,0,0,.17.27,25,25,0,0,0,1.85,2.26,17.67,17.67,0,0,0,2.21,2l.33.26a7.78,7.78,0,0,1,1.94,2,1,1,0,0,1,0,1,1.05,1.05,0,0,1-.9.55h0a4.28,4.28,0,0,1-1.72-.39,6.32,6.32,0,0,1-1.49-1A14,14,0,0,1,237.69,78c-.18-.27-.35-.55-.51-.85a2.35,2.35,0,0,1-.19.25l.14.38a.86.86,0,0,1-.09.81,1.07,1.07,0,0,1-.43.36,1.17,1.17,0,0,1-.55.13.89.89,0,0,1-.48-.11.88.88,0,0,1-.35-.39,16.12,16.12,0,0,0-1.31-2.14,1.11,1.11,0,0,1-.73-.45l-.4-.56c-.28-.39-.57-.79-.82-1.21-.2-.19-.41-.37-.64-.57l0,0h0l-.16.14a8.06,8.06,0,0,1-1,1.74l-.09.11a9.14,9.14,0,0,1-1.4,1.45,4.18,4.18,0,0,1-1.77.86h-.08a.51.51,0,0,1-.46-.32.36.36,0,0,1,.12-.42,12.11,12.11,0,0,1,1.2-.94,9,9,0,0,0,2.75-2.82l.07-.12.17-.27-1.14-.78a9.48,9.48,0,0,1-2.1,1.25,15.78,15.78,0,0,0-1.46.79l-.11.07a.91.91,0,0,1-.55.18,1.1,1.1,0,0,1-1-.71,1,1,0,0,1,.21-1.16,23.25,23.25,0,0,0,1.86-2.24h0l.65-.84a6.07,6.07,0,0,1-.64-2.39c0-.25,0-.5-.06-.72h0a2.92,2.92,0,0,1-1.64-.54l-.19-.14a5.83,5.83,0,0,1-1.71.28h-.14a1.63,1.63,0,0,1-.88-.27,1.59,1.59,0,0,1-.53-.65,1.56,1.56,0,0,1-.12-.9,1.74,1.74,0,0,1,.41-.89,3.16,3.16,0,0,1,2.42-1,3.73,3.73,0,0,1,1.36.26l.13-.06a1.4,1.4,0,0,1,0-.76l0-.13a3.4,3.4,0,0,1-.53-1.44,3.09,3.09,0,0,1,0-1.21,1.31,1.31,0,0,1,.09-.28.78.78,0,0,0,.05-.14,2.66,2.66,0,0,1-.18-.8.44.44,0,0,1-.08-.11,2.16,2.16,0,0,1-.42-1.39,2.2,2.2,0,0,1,.51-1.27s0-.09,0-.14a1.73,1.73,0,0,1-.1-.24,2.69,2.69,0,0,1-.94-2.18,2.28,2.28,0,0,1,.59-1.33.8.8,0,0,1,0-.53,6.41,6.41,0,0,1-.37-2.21,10.27,10.27,0,0,1,.29-2.34,2.1,2.1,0,0,1-.11-.75,2.33,2.33,0,0,1,.67-1.51,2.12,2.12,0,0,1,1.5-.66h0a2.73,2.73,0,0,1,.4.05v0a3.16,3.16,0,0,1,.27-.94.64.64,0,0,1-.18-.1,10.57,10.57,0,0,1-2.36.91l-.18,0a.82.82,0,0,1-.71-.44.66.66,0,0,1,0-.69,5.08,5.08,0,0,1,.58-.72,6.8,6.8,0,0,0-.9.06h-.14a1.48,1.48,0,0,1-.76-.24,2.28,2.28,0,0,1-.62-.58l-1.32,1.28h0a1.7,1.7,0,0,1-1.2.5,1.8,1.8,0,0,1-1.18-.46,2,2,0,0,1-.62-1.19,2.57,2.57,0,0,1-.92-.46A15.49,15.49,0,0,1,211,41.45h-.08a1.56,1.56,0,0,1-.86-.24,1.94,1.94,0,0,1-.59-.62,1.9,1.9,0,0,1,0-1.86,9.46,9.46,0,0,1,1.61-2.06,19.08,19.08,0,0,1-3,.65h-.12a1.74,1.74,0,0,1-1.44-.91,6.71,6.71,0,0,1,.2-5.91l.09-.17h0l0,0c.1-.25.21-.5.33-.74a3.77,3.77,0,0,1-1-2.23,4.94,4.94,0,0,1,.36-2.46,1.59,1.59,0,0,1-.18-1.39,11.8,11.8,0,0,1,2.14-3.59,3.73,3.73,0,0,1-.41-1.76,4.33,4.33,0,0,1,.18-1.24,4.61,4.61,0,0,1,1.29-2.09,6.11,6.11,0,0,1,2.56-1.36,7.35,7.35,0,0,1,1.48-1.85h0l.07-.15a5.28,5.28,0,0,1,1.85-2,5.82,5.82,0,0,1,1.21-.57,6.43,6.43,0,0,1,1.3-.29,2,2,0,0,1,.37-.94,1.71,1.71,0,0,1,.81-.59A5.4,5.4,0,0,1,220,5.41a2,2,0,0,1,1.59-.89,1.71,1.71,0,0,1,.88.24,10.65,10.65,0,0,1,1.43,1,2.14,2.14,0,0,1,.69-.18h.07l1.49-.08c.4-.17.8-.36,1.19-.54l.68-.31a5.16,5.16,0,0,1,1.25-.76,5.07,5.07,0,0,1,1.58-.38c.43-.14.86-.26,1.31-.36a14.37,14.37,0,0,1,3.07-.34h.12a8.19,8.19,0,0,0,0-.85V1.8a1.69,1.69,0,0,1,.46-1.19A2,2,0,0,1,236.93,0l.27,0a1.7,1.7,0,0,1,1,.36,2.3,2.3,0,0,1,.66.91v.05c.11.26.22.53.36.81a6.23,6.23,0,0,1,1.37-.49,6.71,6.71,0,0,1,1.48-.16,5.63,5.63,0,0,1,2.42.51,4.29,4.29,0,0,1,1.85,1.6,3.62,3.62,0,0,1,.47,1.15,4.4,4.4,0,0,1,.1,1.2,13.69,13.69,0,0,1-.42,2.44c0,.19-.09.38-.14.57l-.26,1.16a1.93,1.93,0,0,1,.63.64,1.55,1.55,0,0,1,.24.84v.05l-.1,1.61a8.15,8.15,0,0,0,.91-1.11c.2-.35.4-.69.62-1a1.77,1.77,0,0,1,1.5-.86,1.93,1.93,0,0,1,1.6.9,1.77,1.77,0,0,1,0,1.78,12,12,0,0,1-.68,1.15,10,10,0,0,0-.69,1.66,1.59,1.59,0,0,1,.94,1.44,4.11,4.11,0,0,1-.55,2.33,4.22,4.22,0,0,1-.73.95,5.5,5.5,0,0,1-1,.77,1.72,1.72,0,0,1-.88.27,1.5,1.5,0,0,1-.37-.05l-.21.28A9.52,9.52,0,0,1,249,23.33a28.39,28.39,0,0,1,4-.29,7.31,7.31,0,0,1,3.25-.68,13.57,13.57,0,0,1,2.11.19,21.65,21.65,0,0,1,2.11.52h0l1.22.32a15.2,15.2,0,0,0,2.13.32c.47,0,.95.09,1.43.17a6.42,6.42,0,0,1,2.07.7,4.94,4.94,0,0,1,1.57,1.34,5.47,5.47,0,0,1,2.66.91l3.55,2.28h0l2,1.26a1.89,1.89,0,0,1,.85,2v.05l-.07.34L278,33l.13.17a12.8,12.8,0,0,1,1.41,2.33,28.4,28.4,0,0,1,1.82,3A22.33,22.33,0,0,1,283.06,43c.09.36.2.77.27,1.18a3,3,0,0,1-.07,1.15h0l-.06.38c-.05.32-.09.66-.12,1s-.07.71-.13,1.07a.72.72,0,0,1-.3.51,1,1,0,0,1-.55.18c.15,1.14.26,2.29.36,3.46.16,1.78.26,3.57.33,4.93a4,4,0,0,0,2,1.34,3.22,3.22,0,0,0,.76.09,5.9,5.9,0,0,0,2-.42.43.43,0,0,1,.19,0,.6.6,0,0,1,.51.32.63.63,0,0,1,0,.65,2.19,2.19,0,0,1-1,.92,2.78,2.78,0,0,1-1.24.28,4.15,4.15,0,0,1-1.73-.41,3.76,3.76,0,0,1-1.44-1.15c0,.45.05.91.07,1.36h0v.07l0,.44c0,.84.1,1.7.15,2.54.14,2.11.27,4.29.28,6.43,0,1.15,0,2.2-.11,3.2a30.88,30.88,0,0,1-.41,3.17,20.23,20.23,0,0,1-2.22,6.07,19.41,19.41,0,0,1-3.92,4.91A18.89,18.89,0,0,1,271.47,90a18.31,18.31,0,0,1-6.23,1.47C264.84,91.45,264.44,91.46,264,91.46ZM235.89,73.23h0l-.45.08h0a3.05,3.05,0,0,1,.13.32l.37.2a2.51,2.51,0,0,1-.05-.61Zm-7.67-2a2.55,2.55,0,0,1,.39,0v0h0l-.07,0a3.38,3.38,0,0,1-.41-.24l-.1.19-.05.08h.25Zm-2-27.35c-.15,0-.21.08-.21.13a0,0,0,0,0,0,0h0s.06,0,.12-.11ZM243.55,23c-3.2.09-6.31,2.05-8.36,3.69A29.1,29.1,0,0,0,230,32.2a30.6,30.6,0,0,0-1,3.07c-.12.44-.21.89-.3,1.32h0c-.05.24-.1.49-.16.74l0,.21a2.69,2.69,0,0,0-.28.73,2.1,2.1,0,0,0,1,.56.7.7,0,0,1,.32.19,6.49,6.49,0,0,0,.75-1.68v0a33.7,33.7,0,0,1,2-2.9,41.87,41.87,0,0,1,3.11-3.67A29.51,29.51,0,0,1,239,27.54a22,22,0,0,1,6.49-3.4A7.31,7.31,0,0,0,243.55,23Zm-5.48,44.08h0a3.42,3.42,0,0,1-2.19-1.46c-.22-.25-.42-.48-.64-.69a15.32,15.32,0,0,0-3-2.17.16.16,0,0,1-.08-.19.17.17,0,0,1,.15-.14h0a9.11,9.11,0,0,1,3.68.87l.11,0a9.2,9.2,0,0,1,1.81,1.14,3.17,3.17,0,0,1,.68.82,1.68,1.68,0,0,1,.21,1,1,1,0,0,1-.23.54A.63.63,0,0,1,238.07,67.12Z"/></g><g id="Calm-2"><path id="_Ink-8" data-name=" Ink-8" class="cls-3" d="M269.14,79.38a5.75,5.75,0,0,1-3.19-.94,6.26,6.26,0,0,1-1.32-1.14,4.1,4.1,0,0,1-1.09-2.75.48.48,0,0,1,.1-.29.5.5,0,0,1,.27-.16H264a.44.44,0,0,1,.4.24c.09.13.22.29.35.45A5.7,5.7,0,0,0,268,77.11a3.84,3.84,0,0,0,.83.09,4.17,4.17,0,0,0,1.4-.25,4.84,4.84,0,0,0,2-1.38,1,1,0,0,1,.8-.39h0a1.23,1.23,0,0,1,.85.37,1.31,1.31,0,0,1,.4.87,1.15,1.15,0,0,1-.33.85,6.86,6.86,0,0,1-3,1.86A6.71,6.71,0,0,1,269.14,79.38Zm1.8-8.41h0a5.3,5.3,0,0,1-1.88-.38,9.3,9.3,0,0,1-2.21-1.26.8.8,0,0,1-.31-.49,1,1,0,0,1,0-.55,1.19,1.19,0,0,1,.37-.54,1,1,0,0,1,.58-.23.8.8,0,0,1,.45.14l.15.11h0a5.71,5.71,0,0,0,3,1.49,1.85,1.85,0,0,0,1.36-.6,2,2,0,0,0,.38-1.61,4.36,4.36,0,0,0-2-2.42.4.4,0,0,1-.1-.44.56.56,0,0,1,.55-.39h.13a4.21,4.21,0,0,1,1.45.52,3.33,3.33,0,0,1,1,.9,3.57,3.57,0,0,1,.62,2.38,3.86,3.86,0,0,1-1,2.32,3.44,3.44,0,0,1-2.52,1Zm-14.47-5.81a.52.52,0,0,1-.21,0,.42.42,0,0,1-.29-.24,3.68,3.68,0,0,1,.18-2.65,5.42,5.42,0,0,1,1.93-2.43,3.44,3.44,0,0,1,1.6-.42,3.26,3.26,0,0,1,1.53.4,3.93,3.93,0,0,1,1.07.87,12.56,12.56,0,0,1,.82,1.1l.33.48a1,1,0,0,1,.17.9,1.19,1.19,0,0,1-.66.68,1.38,1.38,0,0,1-.49.1,1.07,1.07,0,0,1-.43-.09,1.14,1.14,0,0,1-.63-.66,3.46,3.46,0,0,0-1.19-1.58,1.26,1.26,0,0,0-1.27-.09A4,4,0,0,0,257.44,63,2.93,2.93,0,0,0,257,64.7a.41.41,0,0,1-.12.33.5.5,0,0,1-.28.12ZM278.39,63a1.26,1.26,0,0,1-.28,0,1,1,0,0,1-.42-.26.83.83,0,0,1-.24-.43,1.8,1.8,0,0,0-.61-1,1.23,1.23,0,0,0-1-.26,1.91,1.91,0,0,0-1.05.63,2.44,2.44,0,0,0-.23.33h0a2.77,2.77,0,0,1-.44.58.45.45,0,0,1-.27.1l-.12,0a1.24,1.24,0,0,1-.47-1,1.76,1.76,0,0,1,.34-.94,3.71,3.71,0,0,1,2-1.42,2.88,2.88,0,0,1,.59-.07,3.09,3.09,0,0,1,1.74.57,3.3,3.3,0,0,1,1.36,2.07,1.1,1.1,0,0,1-.06.62.86.86,0,0,1-.4.44A.9.9,0,0,1,278.39,63Zm-24.65-4h0a.29.29,0,0,1-.16-.07,1.16,1.16,0,0,1-.33-1,4.27,4.27,0,0,1,.42-1.61A8.35,8.35,0,0,1,258.4,52a6.08,6.08,0,0,1,2.07-.46h.13a2.28,2.28,0,0,1,.77.14,2,2,0,0,1,.68.43,1.26,1.26,0,0,1,.38.93,1.29,1.29,0,0,1-.38,1,2,2,0,0,1-.81.48,5.36,5.36,0,0,1-.89.16,8.09,8.09,0,0,0-.86.12,8.2,8.2,0,0,0-2.09.77,7.92,7.92,0,0,0-2,1.38c-.12.14-.25.28-.36.42h0l-.32.37-.37.43a1.14,1.14,0,0,0-.1.19l-.08.15-.14.24c-.09.15-.13.18-.17.2Zm25.88-.34h-.05a.51.51,0,0,1-.15-.07.28.28,0,0,1-.08-.15A4.44,4.44,0,0,0,277,55.17a10.26,10.26,0,0,0-2.21-.74c-.21,0-.44-.08-.66-.12h0a2.82,2.82,0,0,1-1.91-.8,1.61,1.61,0,0,1-.3-.58,1.67,1.67,0,0,1,0-.63,1.27,1.27,0,0,1,.7-.95,2,2,0,0,1,1-.22,6.54,6.54,0,0,1,2.34.65l.05,0h0l.17.07a7.81,7.81,0,0,1,2.68,1.78,5.92,5.92,0,0,1,1.37,2.55,3,3,0,0,1-.28,2.31.25.25,0,0,1-.24.13Z"/></g></g></g><path class="cls-3" d="M39.68,40,36.22,55.15h-5L27.78,40H31.2l2.54,11.83L36.26,40Z"/><path class="cls-3" d="M45,44a2.35,2.35,0,0,1-1.67-.57,2.14,2.14,0,0,1,0-3,2.8,2.8,0,0,1,3.36,0,2.08,2.08,0,0,1,0,3,2.35,2.35,0,0,1-1.67.57Zm-1.66,1.12h3.32v11.2H43.37Z"/><path class="cls-3" d="M59.27,43.36l-3.46,13h-4.2l-3.47-13h3.34l2.23,10,2.22-10Z"/><path class="cls-3" d="M62.32,44a2.34,2.34,0,0,1-1.67-.57,2.11,2.11,0,0,1,0-3,2.8,2.8,0,0,1,3.36,0,2.1,2.1,0,0,1,0,3,2.35,2.35,0,0,1-1.67.57Zm-1.66,1.12H64v11.2H60.66Z"/><path class="cls-3" d="M30.35,68a2.35,2.35,0,0,1-1.67-.57,2.14,2.14,0,0,1,0-3,2.8,2.8,0,0,1,3.36,0,2.08,2.08,0,0,1,0,3,2.34,2.34,0,0,1-1.67.57Zm-1.66,1.12H32v11.2H28.69Z"/><path class="cls-3" d="M34.4,63.75h3.32V80.36H34.4Z"/><path class="cls-3" d="M55.27,67.36l-3.46,13h-4.2l-3.48-13h3.34l2.24,10,2.22-10Z"/><path class="cls-3" d="M58.31,68a2.35,2.35,0,0,1-1.67-.57,2.14,2.14,0,0,1,0-3,2.8,2.8,0,0,1,3.36,0,2.08,2.08,0,0,1,0,3,2.35,2.35,0,0,1-1.67.57Zm-1.66,1.12H60v11.2H56.65Z"/><path class="cls-3" d="M67.11,66.18a5.23,5.23,0,0,1,3.67,1.17,4.41,4.41,0,0,1,1.27,3.42v9.59h-3.3V78.84a5.07,5.07,0,0,1-2.58.59,4.45,4.45,0,0,1-3.1-1.06,3.53,3.53,0,0,1-1.18-2.78,3.45,3.45,0,0,1,1.17-2.79,5,5,0,0,1,3.33-1,5.45,5.45,0,0,1,2.37.48V70.73c0-1.17-.54-1.74-1.62-1.74A1.43,1.43,0,0,0,66,69.4a2.53,2.53,0,0,0-.44,1.42H62.21a5.16,5.16,0,0,1,1.36-3.52,5,5,0,0,1,3.56-1.14Zm1.64,9.33c0-.94-.6-1.4-1.81-1.4s-1.76.46-1.76,1.4.58,1.41,1.76,1.41S68.75,76.45,68.75,75.51Z"/><path class="cls-3" d="M84.3,66.19V79.7A4.81,4.81,0,0,1,83,83.31a5.06,5.06,0,0,1-3.69,1.27,4.89,4.89,0,0,1-3.62-1.21,5.42,5.42,0,0,1-1.35-3.63h3.3a2.47,2.47,0,0,0,.44,1.49,1.5,1.5,0,0,0,1.26.48,1.58,1.58,0,0,0,1.23-.48A1.93,1.93,0,0,0,81,79.86V78.39a4.87,4.87,0,0,1-2.32.54,4.66,4.66,0,0,1-3.59-1.42,5.43,5.43,0,0,1-1.32-3.86v-1a5.47,5.47,0,0,1,1.32-3.87,4.69,4.69,0,0,1,3.6-1.41,4.87,4.87,0,0,1,2.32.53V66.16ZM81,73.61v-.73c0-1.57-.67-2.36-2-2.36s-2,.79-2,2.36v.73c0,1.55.65,2.33,2,2.33S81,75.16,81,73.61Z"/><path class="cls-3" d="M96.75,66.19V79.7a4.81,4.81,0,0,1-1.3,3.61,5.06,5.06,0,0,1-3.69,1.27,4.89,4.89,0,0,1-3.62-1.21,5.47,5.47,0,0,1-1.35-3.63h3.3a2.54,2.54,0,0,0,.44,1.49,1.5,1.5,0,0,0,1.26.48A1.57,1.57,0,0,0,93,81.23a1.93,1.93,0,0,0,.45-1.37V78.39a4.87,4.87,0,0,1-2.32.54,4.66,4.66,0,0,1-3.59-1.42,5.43,5.43,0,0,1-1.32-3.86v-1a5.47,5.47,0,0,1,1.32-3.87,4.69,4.69,0,0,1,3.6-1.41,4.87,4.87,0,0,1,2.32.53V66.16Zm-3.3,7.42v-.73c0-1.57-.67-2.36-2-2.36s-2,.79-2,2.36v.73c0,1.55.65,2.33,2,2.33S93.45,75.16,93.45,73.61Z"/><path class="cls-3" d="M100.76,68a2.35,2.35,0,0,1-1.67-.57,2.14,2.14,0,0,1,0-3,2.8,2.8,0,0,1,3.36,0,2.08,2.08,0,0,1,0,3,2.34,2.34,0,0,1-1.67.57ZM99.1,69.16h3.32v11.2H99.1Z"/><path class="cls-3" d="M105.79,77.75a5.2,5.2,0,0,1-1.43-3.87V72.64a5.2,5.2,0,0,1,1.43-3.87,6,6,0,0,1,7.7,0,5.2,5.2,0,0,1,1.43,3.87v1.24a5.2,5.2,0,0,1-1.43,3.87,6,6,0,0,1-7.7,0Zm3.83-1.59c1.32,0,2-.79,2-2.35v-1a2.64,2.64,0,0,0-.5-1.76,1.85,1.85,0,0,0-1.48-.61c-1.32,0-2,.79-2,2.37v1c0,1.56.66,2.35,2,2.35Z"/><path class="cls-3" d="M118.76,80.37a2.16,2.16,0,0,1-1.55-.57,2.14,2.14,0,0,1,0-3,2.2,2.2,0,0,1,1.57-.58,2.14,2.14,0,0,1,1.54.57,2.15,2.15,0,0,1,0,3,2.12,2.12,0,0,1-1.53.57Z"/><path class="cls-3" d="M28.72,89.15h3.4v15.21h-3.4Z"/><path class="cls-3" d="M40.13,91.37a4,4,0,0,1,3.13,1.22A4.89,4.89,0,0,1,44.38,96v8.32h-3.3v-8c0-1.22-.54-1.84-1.61-1.85a1.61,1.61,0,0,0-1.24.48,2,2,0,0,0-.44,1.36v6.81H34.47v-13h3.32V92a4.48,4.48,0,0,1,2.34-.67Z"/><path class="cls-3" d="M51.34,103.56a4.89,4.89,0,0,1-5.28-5.29v-2A4.89,4.89,0,0,1,51.34,91a5.17,5.17,0,0,1,3.83,1.31,5.87,5.87,0,0,1,1.44,3.94h-3.3a2.78,2.78,0,0,0-.54-1.62,1.78,1.78,0,0,0-1.4-.5c-1.34,0-2,.79-2,2.37V98.2c0,1.57.66,2.35,2,2.35a1.81,1.81,0,0,0,1.4-.5,2.84,2.84,0,0,0,.54-1.6h3.3a5.62,5.62,0,0,1-1.44,3.83,5.2,5.2,0,0,1-3.81,1.27Z"/><path class="cls-3" d="M59.48,101.75a5.2,5.2,0,0,1-1.43-3.87V96.64a5.2,5.2,0,0,1,1.43-3.87,6,6,0,0,1,7.7,0,5.16,5.16,0,0,1,1.43,3.87v1.24a5.16,5.16,0,0,1-1.43,3.87,6,6,0,0,1-7.7,0Zm3.83-1.59c1.32,0,2-.79,2-2.35v-1a2.64,2.64,0,0,0-.5-1.76,1.85,1.85,0,0,0-1.48-.61c-1.32,0-2,.79-2,2.37v1c0,1.56.66,2.35,2,2.35Z"/><path class="cls-3" d="M76.18,91.37a4,4,0,0,1,3.14,1.22A4.93,4.93,0,0,1,80.43,96v8.32h-3.3v-8c0-1.22-.54-1.84-1.6-1.85a1.58,1.58,0,0,0-1.24.48,2,2,0,0,0-.44,1.36v6.81H70.53v-13h3.32V92a4.42,4.42,0,0,1,2.33-.67Z"/><path class="cls-3" d="M86.6,95v4.42a2.16,2.16,0,0,0,.42,1.48,1.77,1.77,0,0,0,1.35.47h.95v3H88a4.79,4.79,0,0,1-3.61-1.18,5.21,5.21,0,0,1-1.12-3.71V95H81.76V91.86h1.53V89.15h3.32v2.71h2.71V95Z"/><path class="cls-3" d="M98.33,91.44v3.15h-.74a3.11,3.11,0,0,0-2.25.77,3.19,3.19,0,0,0-.81,2.37v5.42H91.21v-13h3.32v2.29a3.48,3.48,0,0,1,2.7-1.09A6.8,6.8,0,0,1,98.33,91.44Z"/><path class="cls-3" d="M104.64,90.18a5.23,5.23,0,0,1,3.67,1.17,4.41,4.41,0,0,1,1.27,3.42v9.59h-3.3v-1.52a5.07,5.07,0,0,1-2.58.59,4.45,4.45,0,0,1-3.1-1.06,3.53,3.53,0,0,1-1.18-2.78,3.45,3.45,0,0,1,1.17-2.79,5,5,0,0,1,3.33-1,5.45,5.45,0,0,1,2.37.48V94.73c0-1.17-.54-1.74-1.62-1.74a1.43,1.43,0,0,0-1.17.41,2.53,2.53,0,0,0-.44,1.42H99.74a5.11,5.11,0,0,1,1.36-3.52,5,5,0,0,1,3.56-1.14Zm1.64,9.33c0-.94-.6-1.4-1.82-1.4s-1.75.46-1.75,1.4.58,1.41,1.75,1.41S106.28,100.45,106.28,99.51Z"/><path class="cls-3" d="M34.34,115.81a4.66,4.66,0,0,1,3.6,1.41,5.48,5.48,0,0,1,1.31,3.85v.8a5.51,5.51,0,0,1-1.31,3.87,4.63,4.63,0,0,1-3.6,1.41,4.8,4.8,0,0,1-2.29-.53v4.73H28.73V114.16h3.32v2.17a4.8,4.8,0,0,1,2.29-.53ZM36,121.3c0-1.57-.66-2.36-2-2.36s-2,.79-2,2.36v.52c0,1.56.66,2.35,2,2.35s2-.79,2-2.35Z"/><path class="cls-3" d="M44,122V123c0,1.57.67,2.35,2,2.35a1.81,1.81,0,0,0,1.4-.5,2.69,2.69,0,0,0,.56-1.6h3.3c-.21,3.4-2,5.09-5.28,5.09a4.9,4.9,0,0,1-5.29-5.29v-3.64A4.9,4.9,0,0,1,46,114.16a5.4,5.4,0,0,1,3.88,1.34,5,5,0,0,1,1.41,3.75v2.68Zm2-5c-1.34,0-2,.78-2,2.34v.23H48v-.42a2.25,2.25,0,0,0-.51-1.59A1.83,1.83,0,0,0,46,117Z"/><path class="cls-3" d="M60.32,115.44v3.15h-.74a3.06,3.06,0,0,0-2.24.77,3.15,3.15,0,0,0-.82,2.37v5.42H53.2v-13h3.32v2.29a3.48,3.48,0,0,1,2.7-1.09A6.8,6.8,0,0,1,60.32,115.44Z"/><path class="cls-3" d="M66.54,128.37a5.34,5.34,0,0,1-3.77-1.22,4.57,4.57,0,0,1-1.32-3.54h3.32a2.14,2.14,0,0,0,.44,1.46,1.69,1.69,0,0,0,1.34.47,1.74,1.74,0,0,0,1.18-.37,1.23,1.23,0,0,0,.42-1,1.16,1.16,0,0,0-.39-1,4.8,4.8,0,0,0-1.71-.46,5.93,5.93,0,0,1-3.33-1.32,3.72,3.72,0,0,1-1-2.84A4.11,4.11,0,0,1,63,115.38a4.79,4.79,0,0,1,3.4-1.19,4.9,4.9,0,0,1,3.48,1.19,4.34,4.34,0,0,1,1.25,3.33H67.8a1.94,1.94,0,0,0-.35-1.28,1.3,1.3,0,0,0-1-.38,1.5,1.5,0,0,0-1.07.35,1.28,1.28,0,0,0-.38,1,1,1,0,0,0,.37.89,3.13,3.13,0,0,0,1.43.41A6.71,6.71,0,0,1,70.33,121a3.66,3.66,0,0,1,1.09,2.87,4.23,4.23,0,0,1-1.31,3.25,4.91,4.91,0,0,1-3.51,1.23Z"/><path class="cls-3" d="M74.27,125.75a5.17,5.17,0,0,1-1.44-3.87v-1.24a5.17,5.17,0,0,1,1.44-3.87,6,6,0,0,1,7.69,0,5.17,5.17,0,0,1,1.44,3.87v1.24a4.9,4.9,0,0,1-5.28,5.27A5.25,5.25,0,0,1,74.27,125.75Zm3.83-1.59c1.32,0,2-.79,2-2.35v-1a2.64,2.64,0,0,0-.51-1.76,1.83,1.83,0,0,0-1.47-.61c-1.32,0-2,.79-2,2.37v1c0,1.56.67,2.35,2,2.35Z"/><path class="cls-3" d="M91,115.37a4,4,0,0,1,3.13,1.22A4.89,4.89,0,0,1,95.22,120v8.32h-3.3v-8c0-1.22-.54-1.84-1.61-1.85a1.61,1.61,0,0,0-1.24.48,2,2,0,0,0-.44,1.36v6.81H85.31v-13h3.32V116a4.48,4.48,0,0,1,2.34-.67Z"/><path class="cls-3" d="M100.22,122V123c0,1.57.66,2.35,2,2.35a1.81,1.81,0,0,0,1.4-.5,2.69,2.69,0,0,0,.56-1.6h3.3c-.21,3.4-2,5.09-5.28,5.09a4.89,4.89,0,0,1-5.28-5.29v-3.64a4.89,4.89,0,0,1,5.28-5.28,5.44,5.44,0,0,1,3.89,1.34,5,5,0,0,1,1.4,3.75v2.68Zm2-5c-1.34,0-2,.78-2,2.34v.23h4v-.42a2.21,2.21,0,0,0-.51-1.59,1.83,1.83,0,0,0-1.44-.56Z"/><path class="cls-3" d="M111.32,128.37a2.16,2.16,0,0,1-1.55-.57,2.14,2.14,0,0,1,0-3,2.19,2.19,0,0,1,1.57-.58,2.16,2.16,0,0,1,1.54.57,2.15,2.15,0,0,1,0,3,2.13,2.13,0,0,1-1.53.57Z"/></g></g></svg>