<svg xmlns="http://www.w3.org/2000/svg" viewBox="0 0 337.5 68.22"><defs><style>.cls-1{fill:#1d1d1b;}</style></defs><g id="Livello_2" data-name="Livello 2"><g id="Livello_1-2" data-name="Livello 1"><path class="cls-1" d="M7.29,65.18v3H5.06V59.7h2l.09.64a2.18,2.18,0,0,1,.9-.59,2.71,2.71,0,0,1,1.08-.16,2.81,2.81,0,0,1,2,.88,3.22,3.22,0,0,1,.71,2.22,3.17,3.17,0,0,1-.8,2.26A2.75,2.75,0,0,1,9,65.82,2,2,0,0,1,7.29,65.18ZM8.44,64a1.12,1.12,0,0,0,.86-.36,1.34,1.34,0,0,0,.34-1,1.29,1.29,0,0,0-.34-.95,1.12,1.12,0,0,0-.86-.36,1.1,1.1,0,0,0-.86.38,1.24,1.24,0,0,0-.34.87,1.57,1.57,0,0,0,.32,1A1.07,1.07,0,0,0,8.44,64Z"/><path class="cls-1" d="M12.86,57.19h2.21v8.5H12.86Z"/><path class="cls-1" d="M20.72,60.34l.11-.64h2.1v6H20.86l-.09-.64a2.18,2.18,0,0,1-.9.59,3.11,3.11,0,0,1-1.08.16,2.78,2.78,0,0,1-2-.93,3.58,3.58,0,0,1,.08-4.41,2.7,2.7,0,0,1,2.11-.9A2,2,0,0,1,20.72,60.34Zm-1.25,1a1.12,1.12,0,0,0-.86.36,1.33,1.33,0,0,0-.34,1,1.3,1.3,0,0,0,.34,1,1.11,1.11,0,0,0,.86.35,1.13,1.13,0,0,0,.89-.38,1.33,1.33,0,0,0,.35-.93,1.37,1.37,0,0,0-.33-1A1.17,1.17,0,0,0,19.47,61.37Z"/><path class="cls-1" d="M28.51,63.46l1.27,1.33a3.65,3.65,0,0,1-2.47,1A4.4,4.4,0,0,1,26,65.63,3.4,3.4,0,0,1,25,65.1a2.39,2.39,0,0,1-.76-1,3.72,3.72,0,0,1,0-2.83,2.65,2.65,0,0,1,.77-1A3.42,3.42,0,0,1,26,59.75a4.18,4.18,0,0,1,1.24-.19,3.19,3.19,0,0,1,2.35.94l-1.19,1.28a1.37,1.37,0,0,0-1-.43,1.21,1.21,0,0,0-1,.39,1.4,1.4,0,0,0-.35,1,1.22,1.22,0,0,0,.35.88,1.26,1.26,0,0,0,.95.36A1.48,1.48,0,0,0,28.51,63.46Z"/><path class="cls-1" d="M33.4,59.55a3.23,3.23,0,0,1,2.56,1,3,3,0,0,1,.54,2.74H32.32a.92.92,0,0,0,.51.57,1.84,1.84,0,0,0,.82.2,2.45,2.45,0,0,0,1.54-.49l1.09,1.23a3.85,3.85,0,0,1-2.73,1A3.92,3.92,0,0,1,31,65a2.81,2.81,0,0,1-1-2.33,2.88,2.88,0,0,1,1-2.35A3.63,3.63,0,0,1,33.4,59.55Zm-1.07,2.34H34.5a.69.69,0,0,0-.53-.63,1.49,1.49,0,0,0-1,0A.8.8,0,0,0,32.33,61.89Z"/><path class="cls-1" d="M37.12,65.06l.73-1.63A4.15,4.15,0,0,0,40,64.1c.4,0,.61-.1.61-.29s-.21-.3-.63-.33a4.25,4.25,0,0,1-.9-.12,3.2,3.2,0,0,1-.82-.33,1.65,1.65,0,0,1-.63-.6,1.81,1.81,0,0,1-.23-.91,1.63,1.63,0,0,1,.8-1.49,3.73,3.73,0,0,1,2-.48,3.94,3.94,0,0,1,2.45.73l-1,1.33a2.32,2.32,0,0,0-.69-.26,2.71,2.71,0,0,0-.81-.1c-.36,0-.53.1-.53.29s.15.28.44.29q2.76.09,2.76,2A1.76,1.76,0,0,1,42.4,65a2.23,2.23,0,0,1-1,.66,4.48,4.48,0,0,1-1.37.2,5.83,5.83,0,0,1-1.6-.22A3.83,3.83,0,0,1,37.12,65.06Z"/><path class="cls-1" d="M89.53,65.06l.73-1.63a4.15,4.15,0,0,0,2.12.67c.4,0,.6-.1.6-.29s-.21-.3-.63-.33a4.25,4.25,0,0,1-.89-.12,3.07,3.07,0,0,1-.82-.33,1.58,1.58,0,0,1-.63-.6,1.81,1.81,0,0,1-.23-.91,1.63,1.63,0,0,1,.8-1.49,3.73,3.73,0,0,1,2-.48,4,4,0,0,1,2.45.73l-1,1.33a2.32,2.32,0,0,0-.69-.26,2.71,2.71,0,0,0-.81-.1c-.36,0-.54.1-.54.29s.15.28.45.29q2.76.09,2.76,2A1.76,1.76,0,0,1,94.81,65a2.23,2.23,0,0,1-1,.66,4.48,4.48,0,0,1-1.37.2,5.83,5.83,0,0,1-1.6-.22A3.83,3.83,0,0,1,89.53,65.06Z"/><path class="cls-1" d="M96.68,58.24,98.9,58v1.73h1.35v1.71H98.89v2a.53.53,0,0,0,.6.58,1.18,1.18,0,0,0,.65-.2l.49,1.64a3.43,3.43,0,0,1-1.73.4,2.32,2.32,0,0,1-1.62-.55,2.39,2.39,0,0,1-.6-1.87v-2h-1V59.73h1Z"/><path class="cls-1" d="M105.68,60.34l.11-.64h2.1v6h-2.06l-.1-.64a2.08,2.08,0,0,1-.89.59,3.11,3.11,0,0,1-1.08.16,2.78,2.78,0,0,1-2-.93,3.24,3.24,0,0,1-.72-2.18,3.18,3.18,0,0,1,.8-2.23,2.7,2.7,0,0,1,2.11-.9A1.92,1.92,0,0,1,105.68,60.34Zm-1.24,1a1.15,1.15,0,0,0-.87.36,1.37,1.37,0,0,0-.34,1,1.34,1.34,0,0,0,.34,1,1.15,1.15,0,0,0,.87.35,1.13,1.13,0,0,0,.89-.38,1.32,1.32,0,0,0,.34-.93,1.41,1.41,0,0,0-.32-1A1.18,1.18,0,0,0,104.44,61.37Z"/><path class="cls-1" d="M111.43,57.2v3a2,2,0,0,1,1.67-.65,2.71,2.71,0,0,1,2.1.88,3.17,3.17,0,0,1,.81,2.25,3.23,3.23,0,0,1-.71,2.22,2.81,2.81,0,0,1-2,.89,3,3,0,0,1-1.08-.16,2.05,2.05,0,0,1-.9-.59l-.1.64h-2V57.2Zm1.16,4.17a1.06,1.06,0,0,0-.89.4,1.55,1.55,0,0,0-.31,1,1.28,1.28,0,0,0,.33.88,1.1,1.1,0,0,0,.87.37,1.14,1.14,0,0,0,.86-.35,1.3,1.3,0,0,0,.34-1,1.33,1.33,0,0,0-.34-1A1.15,1.15,0,0,0,112.59,61.37Z"/><path class="cls-1" d="M116.87,58.16a1,1,0,0,1,.38-.83,1.44,1.44,0,0,1,1.76,0A1.09,1.09,0,0,1,119,59a1.47,1.47,0,0,1-1.75,0A1,1,0,0,1,116.87,58.16Zm.13,7.53h2.25v-5.9H117Z"/><path class="cls-1" d="M120.56,57.19h2.21v8.5h-2.21Z"/><path class="cls-1" d="M123.94,58.16a1,1,0,0,1,.38-.83,1.36,1.36,0,0,1,.88-.3,1.34,1.34,0,0,1,.88.3,1,1,0,0,1,.37.83,1,1,0,0,1-.37.82,1.43,1.43,0,0,1-.88.29,1.41,1.41,0,0,1-.88-.29A1,1,0,0,1,123.94,58.16Zm.13,7.53h2.25v-5.9h-2.25Z"/><path class="cls-1" d="M128.16,58.24l2.22-.24v1.73h1.35v1.71h-1.36v2a.53.53,0,0,0,.6.58,1.18,1.18,0,0,0,.65-.2l.49,1.64a3.43,3.43,0,0,1-1.73.4,2.32,2.32,0,0,1-1.62-.55,2.39,2.39,0,0,1-.6-1.87v-2h-1V59.73h1Z"/><path class="cls-1" d="M137,59.7h2.39l-3.71,8.52h-2.33l1.22-2.8-2.38-5.72h2.36l.51,1.43.66,2.07.73-2.08Z"/><path class="cls-1" d="M197.41,59.7h1.35L199.81,63l.45-1.7.56-1.63h2.34l-2.19,6h-2.05l-.84-2.27-.83,2.27h-2.07l-2.18-6h2.32l.57,1.65.47,1.68Z"/><path class="cls-1" d="M206.75,59.56a3.76,3.76,0,0,1,2.43.8,2.86,2.86,0,0,1,1,2.35,2.77,2.77,0,0,1-1,2.32,3.74,3.74,0,0,1-2.41.8,4.43,4.43,0,0,1-1.27-.18,3.47,3.47,0,0,1-1.08-.56,2.48,2.48,0,0,1-.78-1,3.3,3.3,0,0,1-.29-1.4,3.12,3.12,0,0,1,.5-1.79,2.88,2.88,0,0,1,1.26-1.05A4.42,4.42,0,0,1,206.75,59.56Zm0,4.44a1.16,1.16,0,0,0,.9-.37,1.28,1.28,0,0,0,.34-.92,1.36,1.36,0,0,0-.33-.93,1.14,1.14,0,0,0-.91-.38,1.11,1.11,0,0,0-.9.38,1.46,1.46,0,0,0,0,1.85A1.13,1.13,0,0,0,206.75,64Z"/><path class="cls-1" d="M211.16,59.7h2l.13.65a1.55,1.55,0,0,1,1.46-.8,2.09,2.09,0,0,1,1.57.64l-.89,1.62a1.59,1.59,0,0,0-1-.37,1,1,0,0,0-.74.29,1.1,1.1,0,0,0-.29.84v3.12h-2.23Z"/><path class="cls-1" d="M216.88,57.19h2.21v8.5h-2.21Z"/><path class="cls-1" d="M224.66,60.21v-3h2.23v8.49h-2l-.1-.64a2.05,2.05,0,0,1-.9.59,3,3,0,0,1-1.08.16,2.83,2.83,0,0,1-2-.89,3.23,3.23,0,0,1-.71-2.22,3.17,3.17,0,0,1,.81-2.25,2.71,2.71,0,0,1,2.1-.88A2,2,0,0,1,224.66,60.21Zm-1.16,1.16a1.15,1.15,0,0,0-.86.36,1.37,1.37,0,0,0-.34,1,1.34,1.34,0,0,0,.34,1,1.14,1.14,0,0,0,.86.35,1.1,1.1,0,0,0,.87-.37,1.28,1.28,0,0,0,.33-.88,1.55,1.55,0,0,0-.31-1A1.06,1.06,0,0,0,223.5,61.37Z"/><path class="cls-1" d="M308.77,43.94a21.45,21.45,0,1,1,20.92-26.21l-6.31,1.43a15,15,0,1,0-14.61,18.31,14.9,14.9,0,0,0,8.53-2.66l3.69,5.3A21.34,21.34,0,0,1,308.77,43.94Z"/><path class="cls-1" d="M324.46,42.26a13,13,0,1,1,13-13A13.06,13.06,0,0,1,324.46,42.26Zm0-19.63A6.58,6.58,0,1,0,331,29.21,6.59,6.59,0,0,0,324.46,22.63Z"/><path class="cls-1" d="M21.45,43.94A21.45,21.45,0,1,1,42.37,17.73l-6.3,1.43A15,15,0,1,0,21.45,37.47,14.93,14.93,0,0,0,30,34.81l3.69,5.3A21.37,21.37,0,0,1,21.45,43.94Z"/><path class="cls-1" d="M37.15,42.26a13,13,0,1,1,13-13A13.07,13.07,0,0,1,37.15,42.26Zm0-19.63a6.58,6.58,0,1,0,6.57,6.58A6.59,6.59,0,0,0,37.15,22.63Z"/><path class="cls-1" d="M291.2,57.2v3a2,2,0,0,1,1.66-.65,2.72,2.72,0,0,1,2.11.88,3.17,3.17,0,0,1,.81,2.25,3.23,3.23,0,0,1-.71,2.22,2.84,2.84,0,0,1-2,.89,3,3,0,0,1-1.07-.16,2.05,2.05,0,0,1-.9-.59l-.1.64h-2V57.2Zm1.16,4.17a1.05,1.05,0,0,0-.89.4,1.56,1.56,0,0,0-.32,1,1.29,1.29,0,0,0,.34.88,1.1,1.1,0,0,0,.87.37,1.14,1.14,0,0,0,.86-.35,1.34,1.34,0,0,0,.34-1,1.37,1.37,0,0,0-.34-1A1.15,1.15,0,0,0,292.36,61.37Z"/><path class="cls-1" d="M299.86,59.56a3.77,3.77,0,0,1,2.44.8,2.85,2.85,0,0,1,1,2.35,2.77,2.77,0,0,1-1,2.32,3.73,3.73,0,0,1-2.41.8,4.36,4.36,0,0,1-1.26-.18,3.52,3.52,0,0,1-1.09-.56,2.57,2.57,0,0,1-.78-1,3.3,3.3,0,0,1-.29-1.4,3,3,0,0,1,.51-1.79,2.8,2.8,0,0,1,1.25-1.05A4.46,4.46,0,0,1,299.86,59.56Zm0,4.44a1.13,1.13,0,0,0,.9-.37,1.28,1.28,0,0,0,.34-.92,1.36,1.36,0,0,0-.33-.93,1.13,1.13,0,0,0-.91-.38,1.11,1.11,0,0,0-.9.38,1.46,1.46,0,0,0,0,1.85A1.13,1.13,0,0,0,299.86,64Z"/><path class="cls-1" d="M307.36,59.56a3.76,3.76,0,0,1,2.43.8,2.86,2.86,0,0,1,1,2.35,2.79,2.79,0,0,1-1,2.32,3.74,3.74,0,0,1-2.41.8,4.43,4.43,0,0,1-1.27-.18,3.47,3.47,0,0,1-1.08-.56,2.48,2.48,0,0,1-.78-1,3.3,3.3,0,0,1-.29-1.4,3.12,3.12,0,0,1,.5-1.79,2.88,2.88,0,0,1,1.26-1.05A4.42,4.42,0,0,1,307.36,59.56Zm0,4.44a1.16,1.16,0,0,0,.9-.37,1.43,1.43,0,0,0,0-1.85,1.26,1.26,0,0,0-1.8,0,1.43,1.43,0,0,0,0,1.85A1.13,1.13,0,0,0,307.36,64Z"/><path class="cls-1" d="M311.76,57.19H314v8.5h-2.21Z"/><path class="cls-1" d="M317.51,57.2v3a2,2,0,0,1,1.67-.65,2.71,2.71,0,0,1,2.1.88,3.17,3.17,0,0,1,.81,2.25,3.23,3.23,0,0,1-.71,2.22,2.83,2.83,0,0,1-2,.89,3,3,0,0,1-1.08-.16,2.05,2.05,0,0,1-.9-.59l-.1.64h-2V57.2Zm1.16,4.17a1.06,1.06,0,0,0-.89.4,1.55,1.55,0,0,0-.31,1,1.28,1.28,0,0,0,.33.88,1.1,1.1,0,0,0,.87.37,1.14,1.14,0,0,0,.86-.35,1.34,1.34,0,0,0,.34-1,1.37,1.37,0,0,0-.34-1A1.15,1.15,0,0,0,318.67,61.37Z"/><path class="cls-1" d="M329.39,65.69h-2.23V62.38a1,1,0,0,0-.24-.75.8.8,0,0,0-.6-.25,1,1,0,0,0-.73.3,1.15,1.15,0,0,0-.3.86v3.15h-2.21v-6h2l.1.65a2.56,2.56,0,0,1,3.59-.13,3,3,0,0,1,.64,2.15Z"/><path class="cls-1" d="M332.86,57.2v3a2,2,0,0,1,1.66-.65,2.72,2.72,0,0,1,2.11.88,3.69,3.69,0,0,1,.09,4.47,2.81,2.81,0,0,1-2,.89,3.11,3.11,0,0,1-1.08-.16,2.18,2.18,0,0,1-.9-.59l-.09.64h-2V57.2ZM334,61.37a1,1,0,0,0-.88.4,1.56,1.56,0,0,0-.32,1,1.28,1.28,0,0,0,.33.88A1.13,1.13,0,0,0,334,64a1.11,1.11,0,0,0,.86-.35,1.3,1.3,0,0,0,.34-1,1.33,1.33,0,0,0-.34-1A1.12,1.12,0,0,0,334,61.37Z"/><path class="cls-1" d="M267.29,29.18V27.42h5.3v1.76Zm0,2.6V30h5.3v1.75Z"/><path class="cls-1" d="M66.52,29.21h1.65V27.6h2v1.61h1.66v1.85H70.17v1.61h-2V31.06H66.52Z"/><path class="cls-1" d="M163.93,27.89h1.65v-1.6h2v1.6h1.67v1.86h-1.67v1.61h-2V29.75h-1.65Z"/><path class="cls-1" d="M114.77,45.31a22.57,22.57,0,1,1,22.56-22.57A22.59,22.59,0,0,1,114.77,45.31Zm0-38.13a15.57,15.57,0,1,0,15.56,15.56A15.58,15.58,0,0,0,114.77,7.18Z"/><path class="cls-1" d="M210,3.68a.9.9,0,0,1,.91,1.22,1.71,1.71,0,0,1-.58.73,2.15,2.15,0,0,1-2,.12,1.06,1.06,0,0,0-.61,0c-.73.21-2.26.73-1.4,1.2s2.08-.19,2.56-.5a.91.91,0,0,1,.75-.12c.3.08.58.33.42,1a.86.86,0,0,0,.14.68c.24.34.41.93-.71,1.53a.89.89,0,0,1-.39.12l-2.18.14a7,7,0,0,0-2.42,1,1,1,0,0,1-.76.08,1.28,1.28,0,0,0-1.73.83c-.35,1-.61,1.67-.75,2a.91.91,0,0,1-.53.52c-.45.16-1.13.11-1.21-1.56s-1.23-.76-2.13.09a.89.89,0,0,0,.2,1.43.69.69,0,0,1,.27,1,1.6,1.6,0,0,0-.22,1.22.86.86,0,0,1,0,.63.91.91,0,0,0,.16,1c.42.38,1.85-.07,2.49-.3a1,1,0,0,1,.67,0c.81.31,2.78,1.16,3.37,2.25a.89.89,0,0,0,1,.46c.83-.16,2,0,2.25,2.09a.92.92,0,0,0,.68.78c1.18.33,3.53,1.15,2.88,2.39-.86,1.61-1.91,5.29-4.06,5.94a.57.57,0,0,1-.18,0c-.44.05-2.6.33-3.11,1.9a3.78,3.78,0,0,1-1.52,2,.89.89,0,0,0-.39.77,7.85,7.85,0,0,1,0,1.33,1.4,1.4,0,0,1-.31.74,1,1,0,0,1-1.38.07,5.79,5.79,0,0,1-1.84-4.38,52.47,52.47,0,0,0-.13-5.76,1,1,0,0,0-.2-.5c-.81-1-4-5-2.2-6.55,2-1.83,1-3.58.59-3.62a4.82,4.82,0,0,1-2.09-3,3.41,3.41,0,0,0-.31-1.31.86.86,0,0,1,.06-.86A20.29,20.29,0,0,1,210,3.68Z"/><path class="cls-1" d="M200.76,39.25a1.45,1.45,0,0,1-1-.4,6.23,6.23,0,0,1-2-4.76,49.94,49.94,0,0,0-.13-5.7.47.47,0,0,0-.09-.22c-1.32-1.57-4.16-5.42-2.15-7.25a2.51,2.51,0,0,0,1-2,1.25,1.25,0,0,0-.26-.79,5.32,5.32,0,0,1-2.43-3.45,2.91,2.91,0,0,0-.26-1.11,1.4,1.4,0,0,1,.1-1.37,20.74,20.74,0,0,1,16.41-9h0a1.43,1.43,0,0,1,1.27.62,1.35,1.35,0,0,1,.13,1.29,2.24,2.24,0,0,1-.75,1l-.28.17a1.43,1.43,0,0,1,.17,1.21.39.39,0,0,0,0,.28,1.28,1.28,0,0,1,.25,1A2,2,0,0,1,209.7,10a1.39,1.39,0,0,1-.6.17l-2.17.15a6.19,6.19,0,0,0-2.22.88,1.46,1.46,0,0,1-1.14.13.79.79,0,0,0-1.12.52c-.36,1-.62,1.68-.76,2a1.39,1.39,0,0,1-.82.81,1.21,1.21,0,0,1-1.13-.1,2.3,2.3,0,0,1-.75-1.91c0-.34-.09-.42-.09-.42a3.3,3.3,0,0,0-1.19.86.33.33,0,0,0-.12.31.4.4,0,0,0,.21.31,1.18,1.18,0,0,1,.48,1.64c-.28.62-.21.82-.21.82a1.35,1.35,0,0,1,0,1c-.08.22-.08.38,0,.46a4.27,4.27,0,0,0,2-.4,1.43,1.43,0,0,1,1,0c1.08.42,3,1.29,3.63,2.48a.38.38,0,0,0,.43.21,2.27,2.27,0,0,1,1.82.33,3,3,0,0,1,1,2.2.42.42,0,0,0,.31.35c1.82.5,2.92,1.15,3.25,1.92a1.33,1.33,0,0,1-.06,1.18c-.19.35-.39.81-.6,1.31-.79,1.82-1.87,4.31-3.76,4.88a1.28,1.28,0,0,1-.27,0c-.38,0-2.27.28-2.68,1.55A4.37,4.37,0,0,1,202.5,36a.37.37,0,0,0-.17.33,8,8,0,0,1-.05,1.41,1.8,1.8,0,0,1-.42,1,1.41,1.41,0,0,1-1,.5Zm-3.47-21.07v0a3.22,3.22,0,0,1-1.24,3.46c-1.2,1.08.85,4.19,2.25,5.86a1.46,1.46,0,0,1,.32.78,54.65,54.65,0,0,1,.13,5.82,5.25,5.25,0,0,0,1.69,4,.45.45,0,0,0,.33.12.42.42,0,0,0,.31-.15.9.9,0,0,0,.2-.48,8,8,0,0,0,0-1.24,1.38,1.38,0,0,1,.62-1.22,3.28,3.28,0,0,0,1.32-1.78c.6-1.86,3-2.19,3.53-2.23,1.53-.45,2.5-2.7,3.21-4.34.23-.52.44-1,.63-1.38a.32.32,0,0,0,0-.31c-.15-.35-.91-.89-2.6-1.36a1.38,1.38,0,0,1-1-1.21,2.1,2.1,0,0,0-.62-1.49,1.31,1.31,0,0,0-1-.16,1.4,1.4,0,0,1-1.5-.71,6.29,6.29,0,0,0-3.11-2,.44.44,0,0,0-.32,0c-2.3.82-2.8.37-3,.2A.74.74,0,0,1,197.29,18.18Zm-1,0ZM210,4.18a19.77,19.77,0,0,0-15.63,8.6.36.36,0,0,0,0,.37,3.85,3.85,0,0,1,.35,1.5,4.94,4.94,0,0,0,1.73,2.56.88.88,0,0,1,.63.52,1.73,1.73,0,0,1,.08-.9.36.36,0,0,0,0-.27,2.09,2.09,0,0,1,.22-1.63c.12-.25,0-.28-.06-.35a1.43,1.43,0,0,1-.72-1.06,1.39,1.39,0,0,1,.43-1.16c1-.94,1.71-1.27,2.28-1s.66.6.69,1.28c0,.91.26,1.1.3,1.13a.29.29,0,0,0,.24,0,.36.36,0,0,0,.23-.22c.14-.36.4-1,.76-2a1.75,1.75,0,0,1,2.34-1.14.45.45,0,0,0,.36,0,7.21,7.21,0,0,1,2.64-1L209,9.14a.42.42,0,0,0,.19-.06c.52-.28.6-.49.62-.55a.31.31,0,0,0-.08-.24,1.36,1.36,0,0,1-.23-1.09c.09-.38,0-.41-.07-.42a.43.43,0,0,0-.34.06c-.69.45-2,1.11-3.07.52a.81.81,0,0,1-.51-.81c0-.37.31-.82,2-1.31a1.49,1.49,0,0,1,.93,0A1.68,1.68,0,0,0,210,5.23a1.27,1.27,0,0,0,.42-.53.3.3,0,0,0,0-.33.43.43,0,0,0-.39-.19Zm-3.2,2.38a2.36,2.36,0,0,0,1.35-.32l-.05,0a.44.44,0,0,0-.3,0A6.3,6.3,0,0,0,206.83,6.56Z"/><path class="cls-1" d="M216,7.45a.81.81,0,0,0-1.11-.81,1.11,1.11,0,0,0-.86,1.05C214.09,8.57,215.93,8.45,216,7.45Z"/><path class="cls-1" d="M214.88,8.78h0a1.17,1.17,0,0,1-1.27-1.07,1.57,1.57,0,0,1,1.18-1.54,1.36,1.36,0,0,1,1.29.19,1.26,1.26,0,0,1,.5,1.13h0A1.55,1.55,0,0,1,214.88,8.78Zm.33-1.7a.27.27,0,0,0-.12,0c-.54.2-.53.47-.53.56s.14.11.3.11.65-.12.67-.38h0a.24.24,0,0,0-.11-.24A.32.32,0,0,0,215.21,7.08Z"/><path class="cls-1" d="M222.07,7a1,1,0,0,0-.67-.07c-.58.12-1.59.49-1.24,1.64a5.67,5.67,0,0,0,2.13,2.77c.12,0,1.71,1.63-.71,1.71a2.67,2.67,0,0,0-.67.08,1.08,1.08,0,0,0,.47,2.1A3.59,3.59,0,0,0,223.32,14c1.11-1.24,1.24.16,1.21,1.18a1.07,1.07,0,0,0,.81,1.06,12.83,12.83,0,0,1,1.31.41,7.62,7.62,0,0,0,1.65.33,1.08,1.08,0,0,0,1.11-1.47C228.52,13.25,226.36,9,222.07,7Z"/><path class="cls-1" d="M228.42,17.51h-.18a7.59,7.59,0,0,1-1.77-.35,11,11,0,0,0-1.25-.39A1.56,1.56,0,0,1,224,15.2a3.87,3.87,0,0,0-.08-1.09,2.85,2.85,0,0,0-.25.25,4.09,4.09,0,0,1-2.22,1.31,1.58,1.58,0,0,1-.69-3.08,4.64,4.64,0,0,1,.77-.09c.72,0,.85-.19.86-.19a1.37,1.37,0,0,0-.39-.59,6.13,6.13,0,0,1-2.35-3.05,1.65,1.65,0,0,1,.11-1.36,2.22,2.22,0,0,1,1.51-.92,1.57,1.57,0,0,1,1,.11h0c4.44,2.13,6.66,6.47,7.6,8.86a1.58,1.58,0,0,1-.22,1.54A1.56,1.56,0,0,1,228.42,17.51ZM224,13a.79.79,0,0,1,.29.06c.52.2.74.86.7,2.12a.57.57,0,0,0,.43.57,11.93,11.93,0,0,1,1.37.42,6.57,6.57,0,0,0,1.52.3.57.57,0,0,0,.51-.22.54.54,0,0,0,.08-.56c-.87-2.26-3-6.35-7.09-8.32h0a.53.53,0,0,0-.35,0,1.27,1.27,0,0,0-.85.45.66.66,0,0,0,0,.56,5.29,5.29,0,0,0,1.89,2.47,1.89,1.89,0,0,1,.88,1.62c-.09.64-.7,1-1.8,1a2.47,2.47,0,0,0-.57.07.57.57,0,0,0,.25,1.12,3,3,0,0,0,1.67-1A1.69,1.69,0,0,1,224,13Z"/><path class="cls-1" d="M227.38,35.33a2,2,0,0,1-3.53-1.55,7.23,7.23,0,0,0,.22-2.14c-.27-1.3-.74-2.85,0-3.16s.77-2.46-.26-2.46-1.23,1.31-3,.63-4.59-1.54-3.33-3.52a5.78,5.78,0,0,0,.68-4,1.15,1.15,0,0,1,.2-.86,3.8,3.8,0,0,1,4.94-1.53,12.37,12.37,0,0,0,5.11,1.47,1.26,1.26,0,0,0,.28,0l.38-.1a1.16,1.16,0,0,1,1.4.8A18.89,18.89,0,0,1,227.38,35.33Z"/><path class="cls-1" d="M225.82,36.64a2.66,2.66,0,0,1-1-.21,2.43,2.43,0,0,1-1.44-2.75,6.5,6.5,0,0,0,.23-1.93l-.11-.49c-.3-1.32-.63-2.81.43-3.25a1.21,1.21,0,0,0,.21-1.06c0-.07-.1-.43-.28-.43a1.13,1.13,0,0,0-.66.3,2.38,2.38,0,0,1-2.53.3l-.36-.13c-1.38-.52-3.11-1.16-3.52-2.38a2,2,0,0,1,.31-1.75,5.33,5.33,0,0,0,.61-3.63A1.65,1.65,0,0,1,218,18c1.45-2.06,3.54-2.7,5.57-1.7a11.89,11.89,0,0,0,4.89,1.42l.16,0,.38-.1a1.64,1.64,0,0,1,2,1.14,19.37,19.37,0,0,1-3.19,16.87h0A2.37,2.37,0,0,1,225.82,36.64Zm-2-11.12a1.34,1.34,0,0,1,1.26,1.23,2,2,0,0,1-.81,2.19c-.28.11,0,1.5.16,2.1l.11.5a6.19,6.19,0,0,1-.22,2.34,1.43,1.43,0,0,0,.86,1.63A1.42,1.42,0,0,0,227,35h0a18.35,18.35,0,0,0,3-16,.65.65,0,0,0-.79-.45l-.38.09a1.45,1.45,0,0,1-.41.06,12.67,12.67,0,0,1-5.33-1.52,3.27,3.27,0,0,0-4.31,1.37.63.63,0,0,0-.11.48,6.3,6.3,0,0,1-.76,4.34,1.06,1.06,0,0,0-.2.89c.26.77,1.8,1.34,2.92,1.76l.37.14a1.4,1.4,0,0,0,1.6-.19A2,2,0,0,1,223.84,25.52Z"/><path class="cls-1" d="M210.19,45.34a22.67,22.67,0,1,1,22.67-22.67A22.7,22.7,0,0,1,210.19,45.34Zm0-38.34a15.67,15.67,0,1,0,15.67,15.67A15.69,15.69,0,0,0,210.19,7Z"/><circle class="cls-1" cx="37.15" cy="29.21" r="7.93"/><line class="cls-1" x1="19.08" y1="6.03" x2="19.08" y2="20.65"/><path class="cls-1" d="M19.08,23.15a2.49,2.49,0,0,1-2.5-2.5V6a2.5,2.5,0,0,1,5,0V20.65A2.49,2.49,0,0,1,19.08,23.15Z"/><line class="cls-1" x1="19.08" y1="32.67" x2="19.08" y2="40.63"/><path class="cls-1" d="M19.08,43.13a2.49,2.49,0,0,1-2.5-2.5v-8a2.5,2.5,0,0,1,5,0v8A2.49,2.49,0,0,1,19.08,43.13Z"/><line class="cls-1" x1="28.08" y1="14.65" x2="20.12" y2="14.65"/><path class="cls-1" d="M28.08,17.15h-8a2.5,2.5,0,0,1,0-5h8a2.5,2.5,0,1,1,0,5Z"/><line class="cls-1" x1="12.6" y1="29.89" x2="4.64" y2="29.89"/><path class="cls-1" d="M12.6,32.39h-8a2.5,2.5,0,0,1,0-5h8a2.5,2.5,0,1,1,0,5Z"/><line class="cls-1" x1="11.69" y1="18.25" x2="3.73" y2="18.25"/><path class="cls-1" d="M11.69,20.75h-8a2.5,2.5,0,0,1,0-5h8a2.5,2.5,0,0,1,0,5Z"/></g></g></svg>