<svg xmlns="http://www.w3.org/2000/svg" viewBox="0 0 322.4 344.89"><defs><style>.cls-1{fill:#fff;}.cls-1,.cls-2,.cls-4{stroke:#010101;stroke-miterlimit:10;stroke-width:4px;}.cls-2{fill:none;}.cls-3{fill:#010101;}.cls-4{fill:#f7e828;}</style></defs><g id="Livello_2" data-name="Livello 2"><g id="Livello_1-2" data-name="Livello 1"><polygon class="cls-1" points="30.64 15.04 281.01 17.31 290.05 324.26 30.64 324.26 30.64 15.04"/><path class="cls-2" d="M63.28,14.57S58.51,3,50,9a13.06,13.06,0,0,0-5.42,10.88c.07,5.84.75,15.06,4.06,20"/><circle class="cls-3" cx="53.91" cy="40.64" r="7.4"/><path class="cls-2" d="M106.34,15.52S101.56,1.25,93,7.23a13,13,0,0,0-5.42,10.88c.06,5.85.74,15.06,4,20"/><circle class="cls-3" cx="97.87" cy="37.97" r="8.31"/><path class="cls-2" d="M151.27,16.81S146.5,2.61,137.94,8.6a13.06,13.06,0,0,0-5.42,10.88c.07,5.84.75,15.06,4.06,20"/><ellipse class="cls-3" cx="142.89" cy="40.24" rx="8.39" ry="7.4"/><path class="cls-2" d="M190.31,16.06s-6.1-14.81-14.66-8.83a13.07,13.07,0,0,0-5.42,10.88c.07,5.85.75,15.06,4.06,20"/><ellipse class="cls-3" cx="180" cy="37.46" rx="7.79" ry="8.81"/><path class="cls-2" d="M225.43,16.81S220.66-2.85,212.11,3.13A13.07,13.07,0,0,0,206.68,14c.07,5.84.75,15.06,4.06,20"/><ellipse class="cls-3" cx="217.78" cy="34.78" rx="9.12" ry="7.4"/><path class="cls-2" d="M263.48,16.53s-5.43-18.1-14-12.11a13.06,13.06,0,0,0-5.42,10.88c.07,5.85.75,15.06,4.06,20"/><circle class="cls-3" cx="254.68" cy="35.61" r="8.8"/><polygon class="cls-4" points="138.14 300.49 136.89 339.61 320.4 342.85 320.4 298.11 138.14 300.49"/><polygon class="cls-4" points="53.91 61.64 53.91 109.72 3.65 104.38 2.07 59.84 53.91 61.64"/></g></g></svg>