<svg xmlns="http://www.w3.org/2000/svg" viewBox="0 0 54.61 50"><defs><style>.cls-1{fill:#030404;}.cls-2{fill:#fff;stroke:#000;stroke-linecap:round;stroke-linejoin:round;stroke-width:3px;}</style></defs><g id="Livello_2" data-name="Livello 2"><g id="Livello_1-2" data-name="Livello 1"><path class="cls-1" d="M43.42,26.82a10.56,10.56,0,0,0-.5,3.91q0,5.58,0,11.15c0,.77.2.95,1,.95a3.58,3.58,0,0,1,3.69,4.64A3.47,3.47,0,0,1,44.37,50c-1.25,0-2.5,0-3.74,0a4.76,4.76,0,0,1-4.87-4.9c0-2.11,0-4.22,0-6.33,0-.55-.16-.68-.69-.67a15.37,15.37,0,0,1-7.34-1.78c-.47-.26-.67-.22-.88.32-.75,1.92-.61,3.91-.62,5.9,0,.37.26.29.46.29a6,6,0,0,1,1.74.16A3.64,3.64,0,0,1,31,46.7,3.49,3.49,0,0,1,27.71,50c-1.38.06-2.77.06-4.15,0a4.67,4.67,0,0,1-4.47-4.66c0-2.83,0-5.66,0-8.49a9.74,9.74,0,0,0,0-1.08c-.15-1.82-.81-2.42-2.65-2.43-2.42,0-4.83,0-7.24,0-.47,0-.73.1-.8.58a2.06,2.06,0,0,1-.15.48,2,2,0,0,0,.38,2.6,3.52,3.52,0,0,1-.19,4.94,3.6,3.6,0,0,1-5-.15C2.6,41,1.84,40.22,1.09,39.44a3.53,3.53,0,0,1-.86-3.82c.76-2.28,1.5-4.56,2.25-6.83A3.86,3.86,0,0,1,4.85,26.3c2-.8,4-1.67,6.1-2.53a9.71,9.71,0,0,1-3.6-6.13,7.33,7.33,0,0,1-.11-2.88A3.58,3.58,0,0,1,11,11.82a3.53,3.53,0,0,1,3.27,3.37c.09,1.59.46,3,2.18,3.54a5.45,5.45,0,0,0,1.71.25H29.73a11.82,11.82,0,0,0,1.32-.14,2.6,2.6,0,0,0,.26.32A27.29,27.29,0,0,0,42.6,26.34C42.89,26.45,43.29,26.42,43.42,26.82Z"/><path class="cls-1" d="M34.55,15.65c1-3.09,2-6.2,3.09-9.25a8,8,0,0,0,.59-2.34,4.72,4.72,0,0,1,3.46-4A.91.91,0,0,1,42.92,1c0,1,0,2.05,0,3.08,0,.45.09.64.59.61.8,0,1.61,0,2.41,0a2.63,2.63,0,0,1,2.47,1.4,15.8,15.8,0,0,0,4.9,5.54A3.26,3.26,0,0,1,53.08,17a11,11,0,0,1-6.48,2,1,1,0,0,0-1.22.94A9.26,9.26,0,0,1,44.74,22,23.71,23.71,0,0,1,34.55,15.65Z"/><path class="cls-2" d="M34.55,15.65A23.71,23.71,0,0,0,44.74,22l-1.32,4.81c-.13-.4-.53-.37-.82-.48a27.29,27.29,0,0,1-11.29-7.19,2.6,2.6,0,0,1-.26-.32A5.16,5.16,0,0,0,34.55,15.65Z"/><path class="cls-2" d="M14.31,40.44a2.4,2.4,0,0,1-2.38-2.38,2.44,2.44,0,0,1,2.38-2.39,2.49,2.49,0,0,1,2.4,2.39A2.44,2.44,0,0,1,14.31,40.44Z"/><path class="cls-2" d="M14.27,45.24a2.35,2.35,0,1,1-2.34-2.4A2.34,2.34,0,0,1,14.27,45.24Z"/></g></g></svg>