<svg xmlns="http://www.w3.org/2000/svg" viewBox="0 0 49.81 45.01"><defs><style>.cls-1{fill:#fff;stroke:#000;stroke-linecap:round;stroke-linejoin:round;stroke-width:3px;}.cls-2{fill:#010202;}</style></defs><g id="Livello_2" data-name="Livello 2"><g id="Livello_1-2" data-name="Livello 1"><path class="cls-1" d="M19.32,36.11c0-9.13,0-18.26,0-27.39A7.27,7.27,0,0,1,26.43,1.5a2.41,2.41,0,0,1,.47,4.79,3.1,3.1,0,0,0-2.11.86c-.87,1-.92,4.6,0,5.6a2.68,2.68,0,0,0,2,.86c3.06,0,6.13,0,9.19,0a2.49,2.49,0,0,0,2.68-2.78,13.16,13.16,0,0,1,.47-4.66,7.34,7.34,0,0,1,6.7-4.67A2.42,2.42,0,0,1,48.3,3.6a2.35,2.35,0,0,1-1.91,2.66,4.78,4.78,0,0,1-.66.11,2.25,2.25,0,0,0-2.18,2.32c0,.25,0,.51,0,.76V35.16c0,.31,0,.62,0,.93a20.91,20.91,0,0,1-4.84,1.38c0-1.49,0-3-.06-4.47a2.37,2.37,0,0,0-2.42-2.48q-4.84,0-9.69,0a2.36,2.36,0,0,0-2.38,2.36c0,.81,0,1.62,0,2.44A20.14,20.14,0,0,0,19.32,36.11ZM31.39,25.64c1.57,0,3.14,0,4.72,0A2.39,2.39,0,0,0,38.67,23c0-.64,0-1.29,0-1.93A2.43,2.43,0,0,0,36.1,18.4q-4.68-.07-9.36,0a2.45,2.45,0,0,0-2.57,2.71c0,.68,0,1.35,0,2a2.39,2.39,0,0,0,2.49,2.49C28.24,25.65,29.81,25.64,31.39,25.64Z"/><path class="cls-2" d="M19.32,36.11a20.14,20.14,0,0,1,4.88-.79,24,24,0,0,1,7.18,1.59,13.16,13.16,0,0,0,7.35.56,20.91,20.91,0,0,0,4.84-1.38,22.2,22.2,0,0,1,4.13-.73c.54,0,.66.13.64.64,0,1.37,0,2.75,0,4.13A4.78,4.78,0,0,1,43.4,45H5a4.77,4.77,0,0,1-5-4.91c0-1.35,0-2.7,0-4.05,0-.54.12-.7.69-.68A17.73,17.73,0,0,1,6.4,36.67C10.8,38.37,15.08,37.88,19.32,36.11Z"/><path class="cls-2" d="M12.07,7.56A6,6,0,1,1,6,1.5,6,6,0,0,1,12.07,7.56Z"/></g></g></svg>