<svg xmlns="http://www.w3.org/2000/svg" viewBox="0 0 46.11 47.45"><defs><style>.cls-1{fill:#fff;stroke:#000;stroke-linecap:round;stroke-linejoin:round;stroke-width:3px;}.cls-2{fill:#020303;}</style></defs><g id="Livello_2" data-name="Livello 2"><g id="Livello_1-2" data-name="Livello 1"><path class="cls-1" d="M23,46H6.59A4.79,4.79,0,0,1,1.5,40.89q0-12.06,0-24.13A6.91,6.91,0,0,1,5.2,10.38c4.65-2.63,9.34-5.17,14-7.79a7.38,7.38,0,0,1,7.75,0c4.6,2.59,9.24,5.12,13.85,7.7a7,7,0,0,1,3.8,6.49q0,12.08,0,24.13a4.77,4.77,0,0,1-5,5ZM39.81,20.77A11.47,11.47,0,0,0,37,13.41,2.41,2.41,0,0,0,33.56,13a2.37,2.37,0,0,0-.26,3.48,9.3,9.3,0,0,1,1.09,1.68c1.21,2.58.46,4.87-1.1,7a16.53,16.53,0,0,0-2.13,3.57c-1.73,4.31-.9,8.17,2.09,11.62a2.38,2.38,0,0,0,3.66-3c-.16-.22-.36-.42-.52-.65a5.85,5.85,0,0,1-1.15-5,10.56,10.56,0,0,1,2-3.8A12.42,12.42,0,0,0,39.81,20.77Zm-12-.08a11.45,11.45,0,0,0-2.93-7.36,2.38,2.38,0,1,0-3.63,3.09l.36.46A6,6,0,0,1,22.53,23a9.56,9.56,0,0,1-1.37,2.38,12.92,12.92,0,0,0-2,3.44c-1.66,4.25-.82,8.06,2.1,11.47a2.34,2.34,0,0,0,2.89.6,2.41,2.41,0,0,0,1.27-2.58,3,3,0,0,0-.75-1.38,6,6,0,0,1-.91-6.69,15,15,0,0,1,1.67-2.58A12.75,12.75,0,0,0,27.85,20.69Zm-12,.23a11.8,11.8,0,0,0-2.94-7.62A2.4,2.4,0,0,0,9.62,13a2.32,2.32,0,0,0-.33,3.35c2.49,3,2.17,6-.07,9A15.3,15.3,0,0,0,7.6,27.86,10.81,10.81,0,0,0,9.29,40.33a2.34,2.34,0,0,0,2.5.71,2.28,2.28,0,0,0,1.66-2,2.64,2.64,0,0,0-.74-2,6,6,0,0,1-.86-6.91,13.17,13.17,0,0,1,1.46-2.23A12.65,12.65,0,0,0,15.87,20.92Z"/><path class="cls-2" d="M39.81,20.77a12.42,12.42,0,0,1-2.55,7.06,10.56,10.56,0,0,0-2,3.8,5.85,5.85,0,0,0,1.15,5c.16.23.36.43.52.65a2.38,2.38,0,0,1-3.66,3c-3-3.45-3.82-7.31-2.09-11.62a16.53,16.53,0,0,1,2.13-3.57c1.56-2.14,2.31-4.43,1.1-7a9.3,9.3,0,0,0-1.09-1.68A2.37,2.37,0,0,1,33.56,13a2.41,2.41,0,0,1,3.42.43A11.47,11.47,0,0,1,39.81,20.77Z"/><path class="cls-2" d="M27.85,20.69a12.75,12.75,0,0,1-2.44,7,15,15,0,0,0-1.67,2.58,6,6,0,0,0,.91,6.69,3,3,0,0,1,.75,1.38,2.41,2.41,0,0,1-1.27,2.58,2.34,2.34,0,0,1-2.89-.6c-2.92-3.41-3.76-7.22-2.1-11.47a12.92,12.92,0,0,1,2-3.44A9.56,9.56,0,0,0,22.53,23a6,6,0,0,0-.88-6.13l-.36-.46a2.38,2.38,0,1,1,3.63-3.09A11.45,11.45,0,0,1,27.85,20.69Z"/><path class="cls-2" d="M15.87,20.92a12.65,12.65,0,0,1-2.56,6.93,13.17,13.17,0,0,0-1.46,2.23A6,6,0,0,0,12.71,37a2.64,2.64,0,0,1,.74,2,2.28,2.28,0,0,1-1.66,2,2.34,2.34,0,0,1-2.5-.71A10.81,10.81,0,0,1,7.6,27.86a15.3,15.3,0,0,1,1.62-2.53c2.24-3,2.56-6,.07-9A2.32,2.32,0,0,1,9.62,13a2.4,2.4,0,0,1,3.31.28A11.8,11.8,0,0,1,15.87,20.92Z"/></g></g></svg>