<svg xmlns="http://www.w3.org/2000/svg" viewBox="0 0 69.64 45.7"><defs><style>.cls-1{fill:#fff;}</style></defs><g id="Livello_2" data-name="Livello 2"><g id="Livello_1-2" data-name="Livello 1"><path d="M18.93,41.5A13.87,13.87,0,0,1,15,35.1c-.37-1.48,0-2,1.53-2,3.85,0,7.7,0,11.55,0h1.61V3.18c0-.36,0-.71,0-1.07,0-.76-.25-1.71.77-2s1.44.64,1.89,1.3c1.91,2.77,3.79,5.56,5.68,8.34,4.15,6.11,8.32,12.21,12.44,18.34a9,9,0,0,1,.76,2.13,8.72,8.72,0,0,1-2.15.62c-5.18.05-10.36,0-15.53,0H32.06v2.24c.45,0,.91.06,1.38.06H52.83c1.92,0,2.26.48,1.72,2.34a14,14,0,0,1-3.84,6.07c2.32,1.46,4.56,2.62,7.22.86a6.84,6.84,0,0,1,7.75,0c.89.52,2,.65,2.95,1.13.44.22.68.83,1,1.27-.42.3-.88.91-1.25.86a8.51,8.51,0,0,1-3.12-.94,6,6,0,0,0-6.83,0,6,6,0,0,1-6.77,0,5.77,5.77,0,0,0-6.7,0,6,6,0,0,1-6.78,0,5.75,5.75,0,0,0-6.69,0,6,6,0,0,1-6.78,0,5.75,5.75,0,0,0-6.69,0,6,6,0,0,1-6.77,0,5.89,5.89,0,0,0-6.83,0,7.7,7.7,0,0,1-3.13.92c-.38,0-.86-.62-1.3-1,.33-.4.59-1,1-1.16,1.31-.61,2.72-1,4-1.63a6,6,0,0,1,5.61,0,4.09,4.09,0,0,1,.47.23C13.82,44,16.36,43.43,18.93,41.5Zm-1.12-6-.27.33c.77,1.11,1.54,2.22,2.32,3.32,1.4,2,3.79,2.31,5.72,3.41a4.5,4.5,0,0,0,5,0,7.34,7.34,0,0,1,8.58,0c.15.09.32.14.48.23a3.92,3.92,0,0,0,3.8.06c1.28-.6,2.67-1,3.88-1.68a10.93,10.93,0,0,0,4.78-5.7ZM32.07,5V28.46h16Z"/><path class="cls-1" d="M17.81,35.5H52.1a10.93,10.93,0,0,1-4.78,5.7c-1.21.69-2.6,1.08-3.88,1.68a3.92,3.92,0,0,1-3.8-.06c-.16-.09-.33-.14-.48-.23a7.34,7.34,0,0,0-8.58,0,4.5,4.5,0,0,1-5,0c-1.93-1.1-4.32-1.43-5.72-3.41-.78-1.1-1.55-2.21-2.32-3.32Z"/><path class="cls-1" d="M32.07,5l16,23.49h-16Z"/></g></g></svg>