<?xml version="1.0" encoding="UTF-8"?><svg id="a" xmlns="http://www.w3.org/2000/svg" viewBox="0 0 700 700"><path d="M319.07,493.98l262.41-116.57c11.16-4.96,17.86-15.38,17.86-27.53s-6.7-22.32-17.86-27.28l-262.41-116.58c-11.16-4.96-23.56-2.98-32.5,5.21-8.93,8.43-11.9,20.59-7.93,32.24l37.95,106.41-37.95,106.65c-3.97,11.66-1,23.81,7.93,32,8.93,8.43,21.34,10.41,32.5,5.45h0Z"/><path d="M222.21,281.17c0-4.86-3.94-8.8-8.8-8.8h-76.89c-4.86,0-8.8,3.95-8.8,8.8s3.94,8.8,8.8,8.8h76.89c4.86,0,8.8-3.94,8.8-8.8Z"/><path d="M249.23,349.88c0-4.86-3.94-8.8-8.8-8.8H109.47c-4.86,0-8.8,3.95-8.8,8.8s3.94,8.8,8.8,8.8H240.44c4.86,0,8.79-3.95,8.79-8.8h0Z"/><path d="M222.21,418.83c0-4.86-3.94-8.8-8.8-8.8h-76.89c-4.86,0-8.8,3.95-8.8,8.8s3.94,8.8,8.8,8.8h76.89c4.86,0,8.8-3.95,8.8-8.8Z"/></svg>