<svg xmlns="http://www.w3.org/2000/svg" viewBox="0 0 49.3 46.82"><defs><style>.cls-1{fill:#020203;}.cls-2,.cls-4{fill:#fff;}.cls-2{stroke:#000;stroke-linecap:round;stroke-linejoin:round;stroke-width:3px;}.cls-3{fill:#a6a6a6;}</style></defs><g id="Livello_2" data-name="Livello 2"><g id="Livello_1-2" data-name="Livello 1"><path class="cls-1" d="M37.91,1.65l.31,0a.28.28,0,0,0,.38-.07c3.35-.34,5.77,1.19,7.63,3.8a16.23,16.23,0,0,1,3,9.08c.13,4.18.06,8.37.07,12.56,0,5.68-.06,11.37,0,17.05a2.52,2.52,0,0,1-3.91,2.36c-3.67-2-3-1.78-6.43-.07a3.27,3.27,0,0,1-3.22,0c-3.51-1.79-2.83-1.77-6.3,0a3.37,3.37,0,0,1-3.3,0c-3.34-1.7-2.78-1.74-6.16,0a4.59,4.59,0,0,1-1.22.49,2.33,2.33,0,0,1-2.85-2c0-4.6,0-9.2,0-13.8,0-.68.15-.87.86-.87,6.9,0,13.8,0,20.71,0h.78a10.23,10.23,0,0,1-6.14-5.71,19.78,19.78,0,0,1-.59-15.88A11.34,11.34,0,0,1,36,2.69C36.58,2.29,37.26,2,37.91,1.65Zm4.18,14.18a7.19,7.19,0,0,0-.81-3.6c-.89-1.52-2.25-1.58-3.05,0a7.61,7.61,0,0,0,0,7.25c.8,1.56,2.15,1.5,3,0A6.9,6.9,0,0,0,42.09,15.83Z"/><path class="cls-2" d="M37.91,1.65c-.65.34-1.33.64-1.94,1a11.34,11.34,0,0,0-4.43,5.86,19.78,19.78,0,0,0,.59,15.88,10.23,10.23,0,0,0,6.14,5.71h-.78c-6.91,0-13.81,0-20.71,0-.71,0-.86.19-.86.87,0,4.6,0,9.2,0,13.8-.23-.29-.13-.64-.13-1,0-4.25,0-8.49,0-12.73,0-.83-.25-1-1-1A27.75,27.75,0,0,1,10.21,30a8.09,8.09,0,0,1-6.1-4.56,19.16,19.16,0,0,1,.24-19.7,8.16,8.16,0,0,1,5.74-4.16,7.41,7.41,0,0,1,1.24-.1H37.12C37.38,1.53,37.68,1.42,37.91,1.65Z"/><path class="cls-3" d="M38.6,1.55a.28.28,0,0,1-.38.07A.29.29,0,0,1,38.6,1.55Z"/><path class="cls-4" d="M42.09,15.83a6.9,6.9,0,0,1-.82,3.59c-.88,1.53-2.23,1.59-3,0a7.61,7.61,0,0,1,0-7.25c.8-1.55,2.16-1.49,3.05,0A7.19,7.19,0,0,1,42.09,15.83Z"/></g></g></svg>