<svg xmlns="http://www.w3.org/2000/svg" viewBox="0 0 50.32 41.78"><defs><style>.cls-1{fill:#fff;stroke:#000;stroke-miterlimit:10;stroke-width:3px;}.cls-2{fill:#010202;}</style></defs><g id="Livello_2" data-name="Livello 2"><g id="Livello_1-2" data-name="Livello 1"><path class="cls-1" d="M25.28,1.5A23.93,23.93,0,0,1,40.41,7.24a34.12,34.12,0,0,1,5.87,6.08,12.47,12.47,0,0,1,0,15,29.8,29.8,0,0,1-11.59,9.73c-7.9,3.56-15.46,2.73-22.64-2a30.6,30.6,0,0,1-8.38-8.17,12.46,12.46,0,0,1,.36-14.66A32.79,32.79,0,0,1,13.4,4.81,23.07,23.07,0,0,1,25.28,1.5Zm-13,19.32A12.91,12.91,0,1,0,25.24,8,12.93,12.93,0,0,0,12.25,20.82Z"/><path class="cls-2" d="M12.25,20.82a12.91,12.91,0,1,1,12.87,13A12.91,12.91,0,0,1,12.25,20.82ZM27.31,23A4.3,4.3,0,1,0,23,18.74,4.27,4.27,0,0,0,27.31,23Z"/><path class="cls-1" d="M27.31,23a4.3,4.3,0,0,1,0-8.59,4.3,4.3,0,1,1,0,8.59Z"/></g></g></svg>